<?xml version="1.0" encoding="UTF-8"?>
<svg width="14px" height="14px" viewBox="0 0 14 14" version="1.1" xmlns="http://www.w3.org/2000/svg" xmlns:xlink="http://www.w3.org/1999/xlink">
    <title>下载附件</title>
    <g id="下载附件" stroke="none" stroke-width="1" fill="none" fill-rule="evenodd">
        <g id="附件" transform="translate(0.000000, 0.500000)" fill="#5FFAD7" fill-rule="nonzero">
            <path d="M12.9791168,0.942172341 C13.324204,1.29826897 13.5806226,1.69640431 13.7483738,2.1365798 C13.9161251,2.57675528 14,3.02929475 14,3.49419821 C14,3.95910166 13.9161247,4.41164113 13.7483738,4.85181662 C13.5806226,5.29199211 13.324204,5.69012744 12.9791168,6.04622408 L7.47209866,11.6844208 C7.12701136,12.0405174 6.70284156,12.3372646 6.19958925,12.5746623 C5.69633695,12.8120601 5.16432737,12.9505416 4.60356051,12.9901084 C4.04279366,13.0296748 3.47004507,12.9505421 2.88531335,12.7527107 C2.30058163,12.5548797 1.75898723,12.198783 1.26052734,11.6844208 C0.771653666,11.1799505 0.431358782,10.6334416 0.239644085,10.0448925 C0.0479293891,9.45634343 -0.0287576127,8.87026772 0.00958588823,8.28666539 C0.0479289679,7.70306306 0.179732628,7.15408075 0.404998415,6.63971846 C0.630264201,6.12535618 0.915440039,5.69012744 1.26052734,5.33403081 L6.14926402,0.333840593 C6.23553585,0.244816435 6.36254668,0.222560395 6.53029791,0.267072475 C6.69804915,0.311584554 6.82505998,0.378352672 6.9113318,0.46737683 C6.98801782,0.556400989 7.05032534,0.68746385 7.09825409,0.860566862 C7.14618283,1.03366988 7.12701136,1.16473274 7.04073954,1.25375689 L2.16638149,6.23910975 C1.90756601,6.50618223 1.69188645,6.81776678 1.51934281,7.17386341 C1.34679916,7.52996005 1.2461487,7.91078609 1.21739142,8.31634011 C1.18863415,8.72189412 1.2461487,9.13239489 1.38993507,9.54784096 C1.53372144,9.96328704 1.79253692,10.3638957 2.16638149,10.7496671 C2.50188256,11.0958717 2.87333162,11.3406881 3.28072588,11.4841164 C3.68812013,11.6275443 4.09311889,11.6868941 4.49572073,11.6621647 C4.89832258,11.6374357 5.28175337,11.5459388 5.64601172,11.3876736 C6.01027006,11.2294079 6.32180767,11.0167396 6.58062314,10.7496671 L12.0732626,5.12630777 C12.3320781,4.8592353 12.5166034,4.58227077 12.6268401,4.29541563 C12.7370764,4.00856049 12.7897976,3.72417728 12.7850051,3.44226745 C12.7802123,3.16035762 12.7155084,2.88586646 12.5908935,2.61879399 C12.4662786,2.35172151 12.2937346,2.1044317 12.0732626,1.876926 C11.6610745,1.46147993 11.1985626,1.26612088 10.6857241,1.29085029 C10.1728856,1.31557927 9.65765153,1.59501617 9.14002059,2.12916112 L4.17939071,7.21837549 C3.95891874,7.44588119 3.85107896,7.69811631 3.85587137,7.97508084 C3.86066425,8.25204537 3.94933251,8.47955107 4.12187616,8.65759938 C4.33276331,8.87521447 4.57480324,8.96423863 4.84799735,8.92467186 C5.12119146,8.88510552 5.34406033,8.77629826 5.51660398,8.59824994 L10.0171175,3.98383108 C10.1033893,3.89480692 10.2304001,3.87255088 10.3981514,3.91706296 C10.5659026,3.96157504 10.6929134,4.02834316 10.7791852,4.11736732 C10.8654571,4.20639147 10.9325578,4.33745433 10.9804862,4.51055735 C11.0284149,4.68366036 11.0092434,4.81472322 10.9229716,4.90374738 L6.4080795,9.51816624 C6.0629922,9.87426288 5.73228354,10.1215527 5.41595352,10.2600342 C5.0996235,10.3985162 4.80246453,10.4603386 4.52447801,10.4455012 C4.24649149,10.4306639 3.98767601,10.3540041 3.74803159,10.2155222 C3.50838717,10.0770402 3.2879152,9.9088829 3.08661427,9.71105192 C2.92365685,9.55278627 2.77747357,9.35000998 2.64806584,9.10272017 C2.5186581,8.85543036 2.44436801,8.58341258 2.42519696,8.28666539 C2.40602549,7.9899182 2.45635072,7.67338834 2.57617265,7.33707437 C2.69599458,7.0007604 2.92844926,6.65950113 3.27353656,6.31329655 C3.44608021,6.13524823 3.59945281,5.97203728 3.73365295,5.82366368 C3.84868205,5.69507318 3.95652183,5.58132062 4.05717229,5.48240441 C4.15782275,5.38348863 4.2129404,5.32908551 4.22252662,5.31919345 L8.23416643,1.19440746 C8.57925373,0.838310823 8.95549521,0.558874365 9.36288946,0.356096633 C9.77028372,0.153318901 10.1848687,0.0370933992 10.6066416,0.00741867985 C11.0284145,-0.0222560395 11.4429995,0.0370933992 11.8503937,0.185466996 C12.257788,0.333840593 12.6340295,0.586075708 12.9791168,0.942172341 Z" id="路径"></path>
        </g>
    </g>
</svg>