<?xml version="1.0" encoding="UTF-8"?>
<svg width="24px" height="24px" viewBox="0 0 24 24" version="1.1" xmlns="http://www.w3.org/2000/svg" xmlns:xlink="http://www.w3.org/1999/xlink">
    <title>放大</title>
    <g id="放大" stroke="none" stroke-width="1" fill="none" fill-rule="evenodd">
        <g fill="#05DDF7" fill-rule="nonzero">
            <path d="M14.9338844,9.06611568 L14.9338844,9.0661157 C14.450962,8.58369186 14.4505591,7.80112675 14.9329822,7.31820723 C14.9332828,7.31790635 14.9335835,7.31760562 14.9338844,7.31730506 L21.8887336,0.362455806 L21.8887336,0.362455855 C22.3711574,-0.120466564 23.1537225,-0.120869485 23.636642,0.361553614 C23.6369429,0.361854172 23.6372436,0.362154888 23.6375442,0.362455756 L23.6375441,0.362455709 C24.1204666,0.844879549 24.1208695,1.62744466 23.6384464,2.11036418 C23.6381458,2.11066506 23.6378451,2.11096579 23.6375442,2.11126635 L16.6822892,9.0661156 L16.6822892,9.06611558 C16.1998654,9.549038 15.4173002,9.54944092 14.9343807,9.06701777 C14.9340799,9.06671721 14.9337791,9.0664165 14.9334786,9.06611563" id="路径"></path>
            <path d="M24,1.28571282 L24,1.28571279 C24,1.99579197 23.4819417,2.57142857 22.8428825,2.57142857 L17.443008,2.57142857 L17.4430081,2.57142857 C16.8039516,2.57153731 16.2858119,1.99599085 16.2857143,1.28591167 C16.2856164,0.575832491 16.8035963,0.000108497261 17.4426528,0 C17.4427709,0 17.442889,0 17.4430071,0 L22.8428816,0 L22.8428815,0 C23.481938,0 24,0.575633607 24,1.2857158" id="路径"></path>
            <path d="M22.76313,7.99997326 L22.7631299,7.99997326 C22.0800747,7.99997326 21.5263454,7.46271697 21.5263454,6.79997596 C21.5263454,6.79997596 21.5263454,6.79997596 21.5263454,6.79997596 L21.5263454,1.19999693 L21.5263454,1.19999711 C21.5263454,0.537258913 22.0800718,0 22.7631299,0 C23.4461852,0 23.9999144,0.5372561 23.9999144,1.19999711 C23.9999144,1.19999711 23.9999144,1.19999711 23.9999144,1.19999711 L23.9999144,6.79997614 L23.9999144,6.79997614 C23.9999144,7.46271434 23.4461881,7.99997326 22.7631299,7.99997326 M14.9338844,15.2035503 L14.9338843,15.2035503 C15.4163082,14.7349922 16.1988733,14.7346012 16.6817928,15.2026749 C16.6820937,15.2029666 16.6823944,15.2032583 16.6826949,15.2035503 L23.6375442,21.9515319 L23.6375441,21.9515318 C24.1204666,22.4196063 24.1208695,23.1788945 23.6384464,23.6474499 C23.6381458,23.6477418 23.6378451,23.6480336 23.6375442,23.6483252 L23.6375443,23.6483252 C23.1551204,24.1168834 22.3725553,24.1172743 21.8896358,23.6492005 C21.8893349,23.6489089 21.8890342,23.6486171 21.8887336,23.6483252 L14.9338844,16.9003436 L14.9338844,16.9003436 C14.450962,16.4322692 14.4505591,15.672981 14.9329822,15.2044256 C14.9332828,15.2041337 14.9335835,15.2038419 14.9338843,15.2035503" id="形状"></path>
            <path d="M22.7142858,24 L22.7142857,24 C22.0042074,24 21.4285714,23.4819297 21.4285714,22.8428559 L21.4285714,17.4428581 L21.4285714,17.4428582 C21.4285714,16.8037871 22.0042043,16.2857143 22.7142857,16.2857143 C23.4243641,16.2857143 24,16.8037844 24,17.4428582 C24,17.4428582 24,17.4428582 24,17.4428582 L24,22.8428561 L24,22.8428561 C24,23.4819272 23.4243671,24 22.7142857,24" id="路径"></path>
            <path d="M16.0000192,22.8000063 L16.0000192,22.8000061 C16.0000192,22.1372682 16.5372883,21.6000094 17.2000453,21.6000094 L22.8001595,21.6000094 L22.8001596,21.6000094 C23.4629137,21.6001109 24.0001013,22.137451 24,22.8001889 C23.9998985,23.4627835 23.4627703,23.9998988 22.8001596,24 L17.2000454,24 L17.2000453,24 C16.5372911,24 16.0000192,23.4627441 16.0000192,22.8000033 M8.79626831,8.79644664 L8.79626833,8.79644661 C8.32818259,9.26500464 7.56887606,9.26539558 7.10030936,8.79732197 C7.10001744,8.79703035 7.09972566,8.79673858 7.09943403,8.79644666 L0.351683296,2.04846742 L0.351683318,2.04846745 C-0.116886185,1.58039317 -0.117277131,0.821105229 0.350807915,0.352550013 C0.351099549,0.352258082 0.351391336,0.351966303 0.351683273,0.351674676 L0.35168324,0.351674709 C0.819768984,-0.11688332 1.57907552,-0.117274256 2.04764221,0.350799304 C2.04793415,0.351090931 2.04822593,0.35138271 2.04851757,0.351674641 L8.79666206,7.09965388 L8.79666202,7.09965383 C9.26523152,7.56772811 9.26562247,8.32701605 8.79753747,8.79557126 C8.79724583,8.7958632 8.79695405,8.79615497 8.79666211,8.7964466" id="形状"></path>
            <path d="M1.28571434,0 L1.28571429,0 C1.99579264,0 2.57142857,0.518070277 2.57142857,1.15714409 L2.57142857,6.5571418 L2.57142857,6.5571418 C2.57142857,7.1962129 1.99579565,7.71428571 1.28571429,7.71428571 C0.575635934,7.71428571 0,7.19621561 0,6.5571418 L0,1.15714409 L0,1.15714392 C0,0.518072815 0.575632921,0 1.28571429,0" id="路径"></path>
            <path d="M8.24531902,1.19999392 L8.24531902,1.19999389 C8.24531902,1.86273185 7.69159883,2.39999057 7.00854826,2.39999057 L1.23695912,2.39999057 L1.23695917,2.39999057 C0.553911508,2.40009206 0.000104352451,1.86291748 0,1.20017951 C-0.000104602317,0.537441547 0.553531781,0.000101263712 1.23657945,0 C1.23670567,0 1.2368319,0 1.23695813,0 L7.00854728,0 L7.00854722,0 C7.69159489,0 8.24531902,0.537255923 8.24531902,1.1999967 C8.24531902,1.1999967 8.24531902,1.1999967 8.24531902,1.1999967 M9.06611958,15.2035533 L9.06611962,15.2035534 C9.54903668,15.6716276 9.54943959,16.4309156 9.06702167,16.8994708 C9.06672111,16.8997627 9.0664204,16.9000545 9.06611954,16.9003461 L2.11134751,23.6483253 L2.11134754,23.6483253 C1.62892905,24.1168833 0.846372627,24.1172743 0.363458469,23.6492007 C0.363157604,23.648909 0.362856892,23.6486173 0.362556337,23.6483253 L0.36255636,23.6483254 C-0.120360696,23.1802511 -0.120763613,22.4209632 0.361654152,21.9524079 C0.361954716,21.952116 0.362255437,21.9518242 0.362556314,21.9515326 L7.31732834,15.2035534 L7.31732829,15.2035534 C7.79974677,14.7349954 8.5823032,14.7346045 9.06521736,15.202678 C9.06551822,15.2029697 9.06581893,15.2032614 9.06611949,15.2035533" id="形状"></path>
            <path d="M0,22.7142874 L0,22.7142872 C0,22.004208 0.518082132,21.4285714 1.15717078,21.4285714 L6.55729388,21.4285714 L6.55729393,21.4285714 C7.19637987,21.4286802 7.71438335,22.0044039 7.71428571,22.7144831 C7.71418787,23.4244086 7.19624155,23.9998915 6.55729393,24 L1.15717084,24 L1.15717079,24 C0.518084848,24 0,23.4243664 0,22.7142842" id="路径"></path>
            <path d="M1.28571434,16.2857143 L1.28571429,16.2857143 C1.99579264,16.2857143 2.57142857,16.8037846 2.57142857,17.4428584 L2.57142857,22.8428561 L2.57142857,22.8428561 C2.57142857,23.4819272 1.99579565,24 1.28571429,24 C0.575635934,24 0,23.4819299 0,22.8428561 L0,17.4428584 L0,17.4428582 C0,16.8037871 0.575632921,16.2857143 1.28571429,16.2857143" id="路径"></path>
        </g>
    </g>
</svg>