<?xml version="1.0" encoding="UTF-8"?>
<svg width="12px" height="12px" viewBox="0 0 12 12" version="1.1" xmlns="http://www.w3.org/2000/svg" xmlns:xlink="http://www.w3.org/1999/xlink">
    <title>弹窗减少</title>
    <g id="弹窗减少" stroke="none" stroke-width="1" fill="none" fill-rule="evenodd">
        <g id="加备份-3" transform="translate(0.000000, 5.000000)" fill="#00B3CA" fill-rule="nonzero">
            <path d="M10.7974414,0 C10.9594887,0 11.1151382,0.0319829424 11.2643923,0.0959488273 C11.4136465,0.159914712 11.5415782,0.245202975 11.6481876,0.351812367 C11.7547974,0.458422133 11.8400853,0.586353528 11.9040512,0.735607676 C11.9680171,0.884861824 12,1.04051131 12,1.20255864 C12,1.37313391 11.9680171,1.53091726 11.9040512,1.67590618 C11.8400853,1.82089511 11.754797,1.94669551 11.6481876,2.0533049 C11.5415779,2.15991467 11.4136465,2.24520256 11.2643923,2.30916844 C11.1151382,2.37313433 10.9594887,2.40511727 10.7974414,2.40511727 L7.20255864,2.40511727 L4.79744136,2.40511727 L1.20255864,2.40511727 C1.03198336,2.40511727 0.87420001,2.37313433 0.729211087,2.30916844 C0.584222165,2.24520256 0.458421758,2.1599143 0.351812367,2.0533049 C0.2452026,1.94669514 0.159914712,1.82089511 0.0959488273,1.67590618 C0.0319829424,1.53091726 0,1.37313391 0,1.20255864 C0,1.04051131 0.0319829424,0.884861824 0.0959488273,0.735607676 C0.159914712,0.586353528 0.245202975,0.458421758 0.351812367,0.351812367 C0.458422133,0.2452026 0.584222165,0.159914712 0.729211087,0.0959488273 C0.87420001,0.0319829424 1.03198336,0 1.20255864,0 L4.79744136,0 L7.20255864,0 L10.7974414,0 Z" id="路径"></path>
        </g>
    </g>
</svg>