<?xml version="1.0" encoding="UTF-8"?>
<svg width="12px" height="12px" viewBox="0 0 12 12" version="1.1" xmlns="http://www.w3.org/2000/svg" xmlns:xlink="http://www.w3.org/1999/xlink">
    <title>弹窗增加</title>
    <g id="弹窗增加" stroke="none" stroke-width="1" fill="none" fill-rule="evenodd">
        <g id="加备份-2" fill="#00B3CA" fill-rule="nonzero">
            <path d="M10.7974414,4.79744136 C10.9594887,4.79744136 11.1151382,4.82942431 11.2643923,4.89339019 C11.4136465,4.95735608 11.5415782,5.04264434 11.6481876,5.14925373 C11.7547974,5.2558635 11.8400853,5.38379489 11.9040512,5.53304904 C11.9680171,5.68230319 12,5.83795268 12,6 C12,6.17057528 11.9680171,6.32835863 11.9040512,6.47334755 C11.8400853,6.61833647 11.754797,6.74413688 11.6481876,6.85074627 C11.5415779,6.95735604 11.4136465,7.04264392 11.2643923,7.10660981 C11.1151382,7.17057569 10.9594887,7.20255864 10.7974414,7.20255864 L7.20255864,7.20255864 L7.20255864,10.7974414 C7.20255864,10.9680166 7.17057569,11.1258 7.10660981,11.2707889 C7.04264392,11.4157778 6.95735566,11.5415782 6.85074627,11.6481876 C6.7441365,11.7547974 6.61620511,11.8400853 6.46695096,11.9040512 C6.31769681,11.9680171 6.16204732,12 6,12 C5.82942472,12 5.67164137,11.9680171 5.52665245,11.9040512 C5.38166353,11.8400853 5.25586312,11.754797 5.14925373,11.6481876 C5.04264396,11.5415779 4.95735608,11.4157778 4.89339019,11.2707889 C4.82942431,11.1258 4.79744136,10.9680166 4.79744136,10.7974414 L4.79744136,7.20255864 L1.20255864,7.20255864 C1.03198336,7.20255864 0.87420001,7.17057569 0.729211087,7.10660981 C0.584222165,7.04264392 0.458421758,6.95735566 0.351812367,6.85074627 C0.2452026,6.7441365 0.159914712,6.61833647 0.0959488273,6.47334755 C0.0319829424,6.32835863 -1.29120574e-16,6.17057528 -1.29120574e-16,6 C-1.29120574e-16,5.83795268 0.0319829424,5.68230319 0.0959488273,5.53304904 C0.159914712,5.38379489 0.245202975,5.25586312 0.351812367,5.14925373 C0.458422133,5.04264396 0.584222165,4.95735608 0.729211087,4.89339019 C0.87420001,4.82942431 1.03198336,4.79744136 1.20255864,4.79744136 L4.79744136,4.79744136 L4.79744136,1.20255864 C4.79744136,1.04051131 4.82942431,0.884861824 4.89339019,0.735607676 C4.95735608,0.586353528 5.04264434,0.458421758 5.14925373,0.351812367 C5.2558635,0.2452026 5.38166353,0.159914712 5.52665245,0.0959488273 C5.67164137,0.0319829424 5.82942472,3.9946724e-16 6,3.9946724e-16 C6.3326226,3.9946724e-16 6.61620511,0.117270831 6.85074627,0.351812367 C7.08528743,0.586353528 7.20255864,0.869936034 7.20255864,1.20255864 L7.20255864,4.79744136 L10.7974414,4.79744136 Z" id="路径"></path>
        </g>
    </g>
</svg>