<?xml version="1.0" encoding="UTF-8"?>
<svg width="24px" height="24px" viewBox="0 0 24 24" version="1.1" xmlns="http://www.w3.org/2000/svg" xmlns:xlink="http://www.w3.org/1999/xlink">
    <title>缩小</title>
    <g id="缩小" stroke="none" stroke-width="1" fill="none" fill-rule="evenodd">
        <g id="放大" transform="translate(4.714286, 19.425939) rotate(-180.000000) translate(-4.714286, -19.425939) translate(0.000000, 14.851879)" fill="#05DDF7" fill-rule="nonzero">
            <path d="M1.15717079,9.14812127 C0.853508718,9.14812127 0.577164835,9.01816157 0.37073584,8.80556978 C0.368618077,8.80230139 0.366034012,8.79981832 0.363458469,8.79732193 L0.363007287,8.79688438 L0.36255636,8.79644664 L0.349400986,8.78303422 C0.345888273,8.77922874 0.342397258,8.77539865 0.338928166,8.7715442 L0.293595298,8.7270287 C0.110180316,8.52700608 0,8.27057215 0,7.99097736 L0,2.59097947 C0,1.99185032 0.505927372,1.49906731 1.15425731,1.43980978 L1.28571429,1.43383556 C1.99579264,1.43383556 2.57142857,1.95190583 2.57142857,2.59097965 L2.571,4.955 L7.31732829,0.351674708 C7.79974677,-0.11688332 8.5823032,-0.117274256 9.06521736,0.350799303 L9.06566854,0.351236845 L9.06611962,0.351674641 C9.54903668,0.81974892 9.54943959,1.57903685 9.06702167,2.04759207 L9.06611954,2.04846738 L4.399,6.576 L6.55729393,6.5766927 C7.19637987,6.57680144 7.71438335,7.15252518 7.71428571,7.86260436 C7.71418787,8.57252986 7.19624155,9.14801279 6.55729393,9.14812127 L1.15717079,9.14812127 Z" id="形状结合"></path>
        </g>
        <g id="放大备份" transform="translate(4.574061, 4.736483) rotate(-90.000000) translate(-4.574061, -4.736483) translate(-0.140169, 0.162423)" fill="#05DDF7" fill-rule="nonzero">
            <path d="M1.15717084,9.14812128 C0.853508745,9.14812128 0.577164849,9.01816158 0.370735847,8.80556979 C0.368618077,8.80230139 0.366034012,8.79981832 0.363458469,8.79732193 L0.352279868,8.78614231 C0.3477941,8.78131608 0.34334338,8.77644987 0.338928173,8.7715442 L0.293595298,8.72702871 C0.110180316,8.52700608 0,8.27057215 0,7.99097736 L0,2.59097965 C0,1.95190838 0.575632921,1.43383556 1.28571429,1.43383556 C1.99579264,1.43383556 2.57142857,1.95190584 2.57142857,2.59097965 L2.571,4.955 L7.31732834,0.351674666 C7.79974677,-0.116883314 8.5823032,-0.11727425 9.06521736,0.350799309 C9.54903668,0.819748926 9.54943959,1.57903686 9.06702167,2.04759208 L4.399,6.576 L6.55729388,6.57669271 C7.19637987,6.57680145 7.71438335,7.15252518 7.71428571,7.86260437 C7.71418787,8.57252987 7.19624155,9.14801279 6.55729393,9.14812128 L1.15717084,9.14812128 Z" id="形状结合"></path>
        </g>
        <g id="放大" transform="translate(14.571541, 0.022254)" fill="#05DDF7" fill-rule="nonzero">
            <path d="M1.15717084,9.14812128 C0.853508745,9.14812128 0.577164849,9.01816158 0.370735847,8.80556979 C0.368618077,8.80230139 0.366034012,8.79981832 0.363458469,8.79732193 L0.352279868,8.78614231 C0.3477941,8.78131608 0.34334338,8.77644987 0.338928173,8.7715442 L0.293595298,8.72702871 C0.110180316,8.52700608 0,8.27057215 0,7.99097736 L0,2.59097965 C0,1.95190838 0.575632921,1.43383556 1.28571429,1.43383556 C1.99579264,1.43383556 2.57142857,1.95190584 2.57142857,2.59097965 L2.571,4.955 L7.31732834,0.351674666 C7.79974677,-0.116883314 8.5823032,-0.11727425 9.06521736,0.350799309 C9.54903668,0.819748926 9.54943959,1.57903686 9.06702167,2.04759208 L4.399,6.576 L6.55729388,6.57669271 C7.19637987,6.57680145 7.71438335,7.15252518 7.71428571,7.86260437 C7.71418787,8.57252987 7.19624155,9.14801279 6.55729393,9.14812128 L1.15717084,9.14812128 Z" id="形状结合"></path>
        </g>
        <g id="放大备份" transform="translate(19.425939, 19.285771) rotate(-270.000000) translate(-19.425939, -19.285771) translate(14.711710, 14.711710)" fill="#05DDF7" fill-rule="nonzero">
            <path d="M1.15717084,9.14812128 C0.853508745,9.14812128 0.577164849,9.01816158 0.370735847,8.80556979 C0.368618077,8.80230139 0.366034012,8.79981832 0.363458469,8.79732193 L0.352279868,8.78614231 C0.3477941,8.78131608 0.34334338,8.77644987 0.338928173,8.7715442 L0.293595298,8.72702871 C0.110180316,8.52700608 0,8.27057215 0,7.99097736 L0,2.59097965 C0,1.95190838 0.575632921,1.43383556 1.28571429,1.43383556 C1.99579264,1.43383556 2.57142857,1.95190584 2.57142857,2.59097965 L2.571,4.955 L7.31732834,0.351674666 C7.79974677,-0.116883314 8.5823032,-0.11727425 9.06521736,0.350799309 C9.54903668,0.819748926 9.54943959,1.57903686 9.06702167,2.04759208 L4.399,6.576 L6.55729388,6.57669271 C7.19637987,6.57680145 7.71438335,7.15252518 7.71428571,7.86260437 C7.71418787,8.57252987 7.19624155,9.14801279 6.55729393,9.14812128 L1.15717084,9.14812128 Z" id="形状结合"></path>
        </g>
    </g>
</svg>