<?xml version="1.0" standalone="no"?><!DOCTYPE svg PUBLIC "-//W3C//DTD SVG 1.1//EN" "http://www.w3.org/Graphics/SVG/1.1/DTD/svg11.dtd"><svg t="1688542232449" class="icon" viewBox="0 0 1024 1024" version="1.1" xmlns="http://www.w3.org/2000/svg" p-id="977" xmlns:xlink="http://www.w3.org/1999/xlink" width="200" height="200"><path d="M974.4 731.84l-34.4-2.24a160 160 0 0 0-9.76-22.72l21.92-25.12a16 16 0 0 0 0-21.76L899.52 608a16 16 0 0 0-11.36-4.64 16 16 0 0 0-10.56 3.84l-25.92 22.72a167.04 167.04 0 0 0-22.88-9.28l-2.24-33.12a16 16 0 0 0-16-14.88h-73.28a16 16 0 0 0-16 14.88l-2.4 34.4a167.52 167.52 0 0 0-22.72 9.76L672 610.08a16 16 0 0 0-10.56-4 16 16 0 0 0-11.36 4.64l-51.84 51.84a16 16 0 0 0 0 21.92l22.56 25.92a160 160 0 0 0-9.12 23.04l-34.56 2.56a16 16 0 0 0-15.04 16v73.28a16 16 0 0 0 15.04 16l34.4 2.4a166.72 166.72 0 0 0 9.6 22.72l-21.76 24.96a16 16 0 0 0 0 21.92l51.84 51.84a16 16 0 0 0 11.2 4.64 16 16 0 0 0 10.56-3.84l25.92-22.72a177.76 177.76 0 0 0 23.04 9.28l2.24 32.96a16 16 0 0 0 16 15.04h73.28a16 16 0 0 0 16-15.04l2.56-34.72a202.24 202.24 0 0 0 22.72-9.76L880 962.72a16 16 0 0 0 10.56 4 16 16 0 0 0 11.36-4.64l51.68-51.84a16 16 0 0 0 0.8-21.92l-22.24-25.92a202.72 202.72 0 0 0 9.12-23.04l33.12-2.24a16 16 0 0 0 14.88-16v-73.28a16 16 0 0 0-14.88-16z m-17.12 74.4l-18.08 1.28-21.76 1.44-6.56 20.64a147.36 147.36 0 0 1-7.52 18.4l-9.28 19.2 13.92 16 12.8 14.72-30.72 30.72-13.76-12-16-14.24-19.68 9.6a147.36 147.36 0 0 1-18.56 8l-20 8-2.08 20.48v19.52h-44.16l-1.12-18.24-1.6-21.76-20.64-6.72a157.6 157.6 0 0 1-18.72-7.52l-19.04-9.28-16 13.92-14.72 12.96-30.72-30.56 12-13.76 14.24-16-9.92-19.2a143.04 143.04 0 0 1-7.84-18.56l-7.04-20.16-21.12-1.28-19.52-1.44v-43.84l18.24-1.28 21.76-1.44 5.92-20.64a147.36 147.36 0 0 1 7.52-18.72l9.28-19.2-13.92-16-12.8-14.72 30.72-30.72 13.76 12 16 14.24 19.36-9.92a147.36 147.36 0 0 1 18.56-8l20-6.88 2.4-21.28 1.12-19.2h43.36l1.28 18.24 1.44 21.6 20.8 6.72a117.28 117.28 0 0 1 18.72 7.52l19.04 9.28 16-14.08 14.72-12.8L918.24 672l-12 13.76-14.4 16 9.92 19.36a144 144 0 0 1 8 18.56l6.88 20 21.28 1.44 19.36 1.44z" fill="#3FA9F5" p-id="978"></path><path d="M775.68 695.2a91.2 91.2 0 1 0 91.2 91.2 91.36 91.36 0 0 0-91.2-91.2z m0 150.4a59.2 59.2 0 1 1 59.2-59.2 59.2 59.2 0 0 1-59.2 59.2zM318.72 496a16 16 0 0 0 11.36-4.64 16 16 0 0 0 0-22.72L60.48 198.72l128-128 29.6 29.76L160 160a16 16 0 0 0 0 22.56 16 16 0 0 0 22.56 0l58.88-58.72L277.6 160l-35.04 35.04a16 16 0 0 0 11.36 27.36 16 16 0 0 0 11.36-4.8l35.04-35.04 36.8 36.8-58.88 58.72a16 16 0 0 0 0 22.72 16 16 0 0 0 11.36 4.64 16 16 0 0 0 11.2-4.64l58.88-58.88 36.8 36.8-35.2 35.04a16 16 0 0 0 0 22.72A16 16 0 0 0 384 336l35.04-35.2 36.8 36.8-58.88 59.2a16 16 0 0 0 0 22.56 16 16 0 0 0 22.72 0l70.08-70.08a16 16 0 0 0 0-22.72L252.32 89.12 199.84 36.8a16 16 0 0 0-22.56 0l-150.72 150.56a16 16 0 0 0 0 22.72l280.8 280.8a16 16 0 0 0 11.36 5.12zM279.04 919.04h1.44l677.12-678.08a16 16 0 0 0 0-22.4l24.32-24.32a50.24 50.24 0 0 0 14.88-32 42.56 42.56 0 0 0-12-32.96l-83.52-83.84a41.44 41.44 0 0 0-32.96-12 50.24 50.24 0 0 0-32 14.88l-25.92 25.76a16 16 0 0 0-16 3.84L508.8 363.68a16 16 0 0 0-5.92 3.68 14.4 14.4 0 0 0-3.52 5.76L117.28 755.2a8.96 8.96 0 0 0 0 1.28 9.12 9.12 0 0 0-1.92 2.88 7.04 7.04 0 0 0-0.96 2.56 8.64 8.64 0 0 0 0 1.76l-23.36 125.28a48 48 0 0 0 48 56.32 47.04 47.04 0 0 0 8.16 0l124.8-22.56h1.76l2.72-1.12a10.56 10.56 0 0 0 2.56-2.56z m236.32-516.8l112 111.04a16 16 0 0 0 8.8 4.16L337.92 816l-115.68-114.88a17.12 17.12 0 0 0-3.04-2.08zM858.72 70.88a19.52 19.52 0 0 1 11.52-5.6 11.52 11.52 0 0 1 8.48 2.88l83.52 83.52a10.56 10.56 0 0 1 2.72 8.32 18.4 18.4 0 0 1-5.44 11.68l-24.32 24.16L834.56 96zM805.92 112l117.76 117.76-269.76 269.76a16 16 0 0 0-4.16-8.96l-112-110.88z m-608 608a13.76 13.76 0 0 0 2.08 3.2l115.52 114.72-46.08 46.24-118.08-117.76zM141.12 912.96a16 16 0 0 1-14.08-4.48 16 16 0 0 1-4.48-13.92l16-95.04L236 896z" fill="#3FA9F5" p-id="979"></path></svg>