<svg t="1649143182235" class="icon" viewBox="0 0 1024 1024" version="1.1" xmlns="http://www.w3.org/2000/svg" p-id="5575" width="200" height="200"><path d="M972.8 433.152H56.32V242.176c0-63.488 51.2-114.688 114.688-114.688h687.616c63.488 0 114.688 51.2 114.688 114.688v190.976h-0.512zM132.608 356.864h763.904V242.176c0-20.992-16.896-38.4-38.4-38.4H171.008c-20.992 0-38.4 16.896-38.4 38.4v114.688z" fill="#FFFFFF" p-id="5576"></path><path d="M858.112 967.68H171.008C107.52 967.68 56.32 916.48 56.32 852.992v-496.64h916.48v496.64c0 63.488-51.2 114.688-114.688 114.688zM132.608 433.152v419.84c0 20.992 16.896 38.4 38.4 38.4h687.616c20.992 0 38.4-16.896 38.4-38.4v-419.84H132.608z m190.976-114.688c-20.992 0-38.4-16.896-38.4-38.4V89.6c0-20.992 16.896-38.4 38.4-38.4 20.992 0 38.4 16.896 38.4 38.4v190.976c0 20.992-17.408 37.888-38.4 37.888z m381.952 0c-20.992 0-38.4-16.896-38.4-38.4V89.6c0-20.992 16.896-38.4 38.4-38.4 20.992 0 37.888 16.896 38.4 38.4v190.976c0 20.992-17.408 37.888-38.4 37.888z" fill="#FFFFFF" p-id="5577"></path><path d="M543.744 570.368H399.872V509.44h229.376v44.544c-76.288 83.968-85.504 141.824-91.136 261.12H457.216c6.656-100.864 23.552-165.376 86.528-244.736z" fill="#FFFFFF" p-id="5578"></path></svg>