<svg t="1648027875042" class="icon" viewBox="0 0 1024 1024" version="1.1" xmlns="http://www.w3.org/2000/svg" p-id="8579" width="200" height="200"><path d="M512.512 972.8c-36.864 0-85.504-19.456-111.104-31.232-33.28-15.36-83.968-41.472-137.216-82.944-51.2-39.936-92.672-84.48-122.368-131.072-36.864-57.344-54.784-116.736-54.784-177.152V215.04c0-31.744 21.504-58.88 51.712-66.56l356.352-90.112c5.632-1.536 11.264-2.048 16.896-2.048 5.632 0 11.264 1.024 16.896 2.048L886.272 148.48c30.72 7.68 51.712 34.816 52.224 66.56v335.36c0 60.416-18.432 120.32-54.784 177.152-29.696 47.104-71.168 91.136-122.368 131.072-53.76 41.472-104.448 68.096-137.216 82.944-26.624 11.264-74.752 31.232-111.616 31.232zM158.72 549.888c0 117.248 93.696 207.872 149.504 250.88 37.376 29.184 80.896 55.296 122.88 74.24 40.96 18.432 68.608 24.576 81.92 24.576 12.8 0 41.472-6.656 81.92-24.576 41.472-18.944 84.992-45.056 122.88-74.24 55.808-43.52 149.504-133.632 149.504-250.88V217.6L511.488 128.512 158.72 217.6v332.288z" fill="#FFFFFF" p-id="8580"></path><path d="M512 755.712c-19.456 0-36.352-15.872-36.352-36.352v-17.408c-76.288-14.848-136.704-75.264-151.04-151.04H307.2c-19.456 0-36.352-15.872-36.352-36.352 0-19.456 15.872-36.352 36.352-36.352h17.408c14.848-76.288 75.264-136.704 151.04-151.04v-17.408c0-19.456 15.872-36.352 36.352-36.352s36.352 15.872 36.352 36.352v16.896c76.288 14.848 136.704 75.264 151.04 151.04h17.408c19.456 0 36.352 15.872 36.352 36.352 0 19.456-15.872 36.352-36.352 36.352h-16.896c-14.848 76.288-74.752 136.704-151.04 151.04v17.408c-0.512 20.48-16.896 36.864-36.864 36.864z m-113.152-205.312c11.776 36.864 40.96 65.536 76.8 76.8 0.512-19.456 16.384-34.816 36.352-34.816 19.456 0 35.328 15.36 36.352 34.816 36.864-11.776 65.536-40.96 76.8-76.8-19.456-0.512-34.816-16.384-34.816-36.352 0-19.456 15.36-35.328 34.816-36.352-11.776-36.352-40.96-65.536-76.8-76.8-0.512 19.456-16.384 34.816-36.352 34.816-19.456 0-35.328-15.36-36.352-34.816-36.864 11.776-65.536 40.96-76.8 76.8 19.456 0.512 34.816 16.384 34.816 36.352 0.512 19.968-14.848 35.84-34.816 36.352z" fill="#FFFFFF" p-id="8581"></path></svg>