<svg t="1648027899807" class="icon" viewBox="0 0 1024 1024" version="1.1" xmlns="http://www.w3.org/2000/svg" p-id="8710" width="200" height="200"><path d="M329.728 967.68H101.888c-25.088 0-45.568-20.48-45.568-45.568V398.336c0-25.088 20.48-45.568 45.568-45.568h227.84v-250.88c0-25.088 20.48-45.568 45.568-45.568h273.408c25.088 0 45.568 20.48 45.568 45.568v433.152h227.84c24.064 0 43.52 18.432 45.568 41.984v345.088c0 24.064-18.432 43.52-41.984 45.568H329.728z m0-546.816h-204.8v478.208h204.8V420.864z m569.344 182.272h-205.312v296.448h205.312v-296.448z m-272.896-478.208H398.336v774.656h227.84V124.928z" fill="#FFFFFF" p-id="8711"></path></svg>