<svg t="1648026936535" class="icon" viewBox="0 0 1024 1024" version="1.1" xmlns="http://www.w3.org/2000/svg" p-id="7258" width="200" height="200"><path d="M507.392 552.448c-135.168 0-244.224-109.568-244.224-244.224s109.568-244.224 244.224-244.224 244.224 109.568 244.224 244.224-109.568 244.224-244.224 244.224z m0-424.96c-99.84 0-180.736 80.896-180.736 180.736s80.896 180.736 180.736 180.736 180.736-80.896 180.736-180.736-80.896-180.736-180.736-180.736z" fill="#FFFFFF" p-id="7259"></path><path d="M514.56 973.824H88.064c-17.92 0-31.744-14.336-31.744-31.744 0-248.832 202.24-450.56 451.072-450.56 80.896 0 159.744 21.504 228.864 61.952 14.848 9.216 19.968 28.16 11.264 43.52-9.216 14.848-28.16 19.968-43.52 11.264-59.392-35.328-126.976-53.248-196.608-53.248-202.752 0-369.664 156.672-386.048 355.328h392.704c17.92 0 31.744 14.336 31.744 31.744 0.512 17.92-13.312 31.744-31.232 31.744z" fill="#FFFFFF" p-id="7260"></path><path d="M793.088 820.736c-73.728 0-134.144-77.312-134.144-173.056 0-12.8 10.24-23.04 23.04-23.04s23.04 10.24 23.04 23.04c0 70.656 39.424 127.488 88.576 127.488 48.64 0 88.576-57.344 88.576-127.488 0-12.8 10.24-23.04 23.04-23.04s23.04 10.24 23.04 23.04c-1.024 95.744-61.44 173.056-135.168 173.056z" fill="#FFFFFF" p-id="7261"></path><path d="M939.52 668.672h-292.864c-12.8 0-23.04-10.24-23.04-23.04s10.24-23.04 23.04-23.04h292.864c12.8 0 23.04 10.24 23.04 23.04s-10.24 23.04-23.04 23.04z m-35.328 303.616c-12.8 0-23.04-10.24-23.04-23.04 0-70.656-39.424-127.488-88.576-127.488s-88.576 57.344-88.576 127.488c0 12.8-10.24 23.04-23.04 23.04s-23.04-10.24-23.04-23.04c0-95.744 60.416-173.056 134.144-173.056s134.144 77.312 134.144 173.056c1.024 12.8-9.216 23.04-22.016 23.04z" fill="#FFFFFF" p-id="7262"></path><path d="M939.52 973.824h-292.864c-12.8 0-23.04-10.24-23.04-23.04s10.24-23.04 23.04-23.04h292.864c12.8 0 23.04 10.24 23.04 23.04 0 13.312-10.24 23.04-23.04 23.04z" fill="#FFFFFF" p-id="7263"></path></svg>