<svg t="1649142848878" class="icon" viewBox="0 0 1024 1024" version="1.1" xmlns="http://www.w3.org/2000/svg" p-id="5314" width="200" height="200"><path d="M169.984 927.744v-53.248c0-180.224 138.752-328.704 315.904-345.6h0.512c10.752-1.024 22.016-1.536 32.768-1.536h5.12c38.912-3.072 98.304-12.288 129.536-39.936l15.36-11.776c59.392-46.08 93.184-115.2 93.184-189.44 0-133.12-109.056-241.152-242.688-241.152C385.536 45.056 276.48 153.6 276.48 286.208c0 74.24 33.792 143.36 93.184 189.44l15.36 11.776-17.92 7.168C209.408 557.568 107.52 706.56 107.52 874.496v83.968c0 16.896 13.824 31.232 31.232 31.232h457.216c-14.848-18.944-27.648-39.936-37.888-61.952H169.984zM339.456 286.208c0-98.816 80.896-179.2 180.224-179.2s180.224 80.384 180.224 179.2-80.896 179.2-180.224 179.2c-99.84 0-180.224-80.384-180.224-179.2z m267.776 287.744h241.152c16.896 0 30.208 13.312 30.208 30.208s-13.312 30.208-30.208 30.208h-241.152c-16.896 0-30.208-13.312-30.208-30.208s13.824-30.208 30.208-30.208z m0 131.584h241.152c16.896 0 30.208 13.312 30.208 30.208 0 16.384-13.312 30.208-30.208 30.208h-241.152c-16.896 0-30.208-13.824-29.696-30.72 0.512-16.384 13.312-29.696 29.696-29.696z m0 131.584h241.152c16.896 0 30.208 13.312 30.208 30.208s-13.312 30.208-30.208 30.208h-241.152c-16.896 0-30.208-13.824-29.696-30.72 0.512-16.384 13.312-29.184 29.696-29.696z" fill="#FFFFFF" p-id="5315"></path></svg>