<svg t="1646903789497" class="icon" viewBox="0 0 1024 1024" version="1.1" xmlns="http://www.w3.org/2000/svg" p-id="4065" width="200" height="200"><path d="M284.928 596.4288c0-0.512 0.3072-1.0752 0.4608-1.5872 0.4096-1.024 0.7168-2.048 0.9216-3.1232 0.6656-3.3792 0.6656-6.8608 0-10.24-0.9728-4.9152-3.4304-9.472-6.9632-13.0048l-70.8096-70.656a25.5744 25.5744 0 0 0-36.1984-0.6144 25.5744 25.5744 0 0 0-0.6144 36.1984l0.6144 0.6144 27.136 27.136H100.9152c-14.1312 0-25.6 11.4688-25.6 25.6s11.4688 25.6 25.6 25.6h98.4576l-27.0336 26.9824a25.56928 25.56928 0 0 0-0.0512 36.1984 25.58464 25.58464 0 0 0 36.2496 0l70.4-70.4c1.3824-1.3312 2.6112-2.7648 3.6864-4.352 0.8704-1.3824 1.6384-2.8672 2.304-4.352zM594.5856 337.92c0 62.976 51.0464 114.0224 114.0224 114.0224S822.6304 400.896 822.6304 337.92s-51.0464-114.0224-114.0224-114.0224h-0.0512c-62.976 0.0512-113.9712 51.0464-113.9712 114.0224z m165.8368 0c-0.0512 28.6208-23.2448 51.8144-51.8656 51.7632-28.6208-0.0512-51.8144-23.2448-51.7632-51.8656 0.0512-28.5696 23.1936-51.712 51.7632-51.7632 28.6208 0 51.8656 23.2448 51.8656 51.8656z m183.6032 217.9584h-91.392c-16.3328-1.1264-31.5904-8.704-42.4448-20.992a114.09408 114.09408 0 0 0-101.4272-61.8496h-6.5024c-1.1776-0.1536-2.3552-0.256-3.5328-0.256h-20.9408c-106.5984 3.0208-191.4368 90.368-191.3856 197.0176a31.16032 31.16032 0 0 0 32.3584 29.8496c16.1792-0.6656 29.184-13.6192 29.8496-29.8496-0.0512-39.68 17.408-77.3632 47.7696-102.912-1.1264 6.6048-1.7408 13.2608-1.7408 19.968v149.5552a72.6016 72.6016 0 0 0 44.4928 62.72l-1.28 2.7648a151.83872 151.83872 0 0 1-136.6016 85.5552 31.16032 31.16032 0 0 0-29.8496 32.3584c0.6656 16.1792 13.6192 29.184 29.8496 29.8496a213.9648 213.9648 0 0 0 193.3824-122.4192l2.56-5.632 7.4752-17.0496h19.3536l24.2176 8.3456 5.8368 2.0992a190.9248 190.9248 0 0 1 111.7696 114.0736c0.0512 0.2048 0.0512 0.3584 0 0.5632 6.5024 15.9232 24.6784 23.5008 40.6016 16.9984a31.15008 31.15008 0 0 0 17.7664-38.5536 253.14304 253.14304 0 0 0-114.3808-135.3216c8.2432-12.0832 12.5952-26.368 12.544-40.96v-118.528c11.1104 3.1744 22.5792 4.7616 34.1504 4.7616h90.0608a31.11424 31.11424 0 0 0 28.5184-33.4336 31.10912 31.10912 0 0 0-31.488-28.6208l0.4096-0.1024zM760.4224 732.16v1.8432a10.2912 10.2912 0 0 1-10.24 8.4992h-84.9408a10.2912 10.2912 0 0 1-8.4992-10.24v-148.7872c1.792-28.5696 26.4192-50.2784 54.9888-48.4352 27.3408 1.7408 48.64 24.4224 48.5376 51.8144l0.1536 145.3056z" fill="#FFFFFF" p-id="4066"></path><path d="M962.56 111.5136l-16.64-74.9568L70.7072 231.4752l16.7424 74.9568 218.2656-48.64v661.504c0 14.1312 11.4688 25.6 25.6 25.6s25.6-11.4688 25.6-25.6V246.4256L962.56 111.5136z" fill="#FFFFFF" p-id="4067"></path></svg>