<svg t="1647940672880" class="icon" viewBox="0 0 1024 1024" version="1.1" xmlns="http://www.w3.org/2000/svg" p-id="5295" width="200" height="200"><path d="M917.504 89.088H117.76c-39.936 0-72.704 32.768-72.704 72.704v581.632c0 39.936 32.768 72.704 72.704 72.704h799.744c39.936 0 72.704-32.768 72.704-72.704V161.792c0-39.936-32.768-72.704-72.704-72.704z m0 654.336H117.76V161.792h799.744v581.632z" fill="#FFFFFF" p-id="5296"></path><path d="M222.208 506.88h69.12l43.52 66.048c7.168 11.264 20.48 17.408 33.792 16.384 13.312-1.024 25.088-9.728 30.208-22.016l54.784-131.072 60.928 138.752c5.632 13.312 18.944 22.016 33.28 22.016h1.024c14.848-0.512 27.648-9.728 33.28-23.552l48.128-130.048 25.088 59.904c5.632 13.312 18.944 22.528 33.28 22.528h123.904c19.968 0 36.352-16.384 36.352-36.352 0-19.968-16.384-36.352-36.352-36.352h-99.84l-51.712-122.368c-5.632-13.824-19.456-22.528-34.304-22.016-14.848 0.512-28.16 9.728-33.28 23.552l-48.64 131.584L486.4 329.216c-5.632-13.312-18.944-22.016-33.28-22.016s-27.648 8.704-33.28 22.016L358.4 476.16l-16.896-25.6c-6.656-10.24-17.92-16.384-30.208-16.384H222.208c-19.968 0-36.352 16.384-36.352 36.352 0 19.968 16.384 36.352 36.352 36.352z m549.888 367.616H263.168c-19.968 0-36.352 16.384-36.352 36.352s16.384 36.352 36.352 36.352h508.928c19.968 0 36.352-16.384 36.352-36.352s-16.384-36.352-36.352-36.352z" fill="#FFFFFF" p-id="5297"></path></svg>