<svg t="1648029032127" class="icon" viewBox="0 0 1024 1024" version="1.1" xmlns="http://www.w3.org/2000/svg" p-id="9884" width="200" height="200"><path d="M772.096 676.864l65.536-65.536c-49.664-49.664-110.592-87.552-177.152-110.08 102.912-94.72 109.568-254.976 14.848-357.888S420.352 33.792 317.44 128.512 207.36 383.488 302.08 486.4c9.216 9.728 18.944 18.944 29.184 27.136C161.28 585.728 51.2 752.64 51.2 936.96c0 25.6 20.992 46.08 46.08 46.08s45.568-20.48 46.08-46.08c0.512-203.776 165.888-368.128 369.152-368.128 97.28 0.512 190.464 39.424 259.584 108.032zM488.96 154.112c89.088 0 161.28 72.192 161.28 161.28s-72.192 161.28-161.28 161.28S327.68 404.48 327.68 315.392s72.192-161.28 161.28-161.28z" fill="#FFFFFF" p-id="9885"></path><path d="M926.72 660.992c-25.6 0-46.08 20.48-46.08 46.08v92.16h-306.176l16.896-16.384c16.384-17.92 16.384-45.056 0-62.464-17.92-16.896-45.568-16.896-62.976 0l-94.72 92.16c-16.384 17.92-16.384 45.056 0 62.464l94.72 92.16c17.92 16.896 45.568 16.896 62.976 0 16.384-17.92 16.384-45.056 0-62.464l-16.896-12.8H926.72c25.6 0 46.08-20.48 46.08-46.08v-138.24c0-26.112-20.992-46.592-46.08-46.592z" fill="#FFFFFF" p-id="9886"></path></svg>