<svg t="1649143138762" class="icon" viewBox="0 0 1024 1024" version="1.1" xmlns="http://www.w3.org/2000/svg" p-id="5444" width="200" height="200"><path d="M849.408 958.976l-640.512 0.512c-53.248 0-96.256-42.496-96.256-95.744l-0.512-97.28 64-0.512 0.512 97.28c0 17.92 14.336 32.256 32.256 31.744l640.512-0.512c17.92 0 32.256-14.336 31.744-32.256l-2.56-702.464c0-17.92-14.336-32.256-32.256-31.744l-641.024 1.024c-17.92 0-32.256 14.336-31.744 32.256l0.512 95.232-64 0.512-0.512-95.232c0-53.248 42.496-96.256 95.744-96.256l640.512-0.512c53.248 0 96.256 42.496 96.256 95.744l2.56 702.464c0.512 52.224-42.496 95.744-95.232 95.744z" fill="#FFFFFF" p-id="5445"></path><path d="M111.616 385.536h64l1.024 256H112.64l-1.024-256z m-32.768-95.744l128-0.512V353.28l-128 0.512V289.792z m1.536 384l128-0.512V737.28l-128 0.512v-64z m270.336-470.528c-17.92 0-32.256 14.336-32.256 32.256 0 17.408 14.336 31.744 32.256 31.744s32.256-14.336 31.744-32.256c0-17.408-14.336-31.744-31.744-31.744z m64.512 143.872c0 35.328-128 35.84-128 0.512-0.512-35.84 28.16-71.168 63.488-71.168 35.328-0.512 64.512 35.328 64.512 70.656zM350.72 427.008c-17.92 0-32.256 14.336-32.256 32.256 0 17.408 14.336 31.744 32.256 31.744s32.256-14.336 31.744-32.256c0-17.408-14.336-31.744-31.744-31.744z m64.512 143.872c0 35.328-128 35.84-128 0.512s28.16-70.656 64-71.168c34.816 0 64 35.328 64 70.656z m-64.512 80.384c-17.92 0-32.256 14.336-32.256 32.256 0 17.408 14.336 31.744 32.256 31.744s32.256-14.336 31.744-32.256c0-17.408-14.336-31.744-31.744-31.744z m64.512 143.872c0 35.328-128 35.84-128 0.512s28.16-70.656 64-71.168 64 35.328 64 70.656zM512 257.024h320v64H512V257.024z m0 223.232h320v64H512V480.256z m0 223.744h320V768H512v-64z" fill="#FFFFFF" p-id="5446"></path></svg>