<svg t="1648026614916" class="icon" viewBox="0 0 1024 1024" version="1.1" xmlns="http://www.w3.org/2000/svg" p-id="6734" width="200" height="200"><path d="M344.064 731.136c-154.112-28.672-259.584-173.056-240.64-331.776 19.456-124.928 115.2-230.912 240.64-254.976 91.136-14.336 178.176 9.728 245.248 67.072 9.728 9.728 24.064 9.728 38.4 4.608 9.728-4.608 14.336-14.336 19.456-24.064 0-9.728-4.608-19.456-9.728-28.672-76.8-62.464-163.328-91.136-254.976-86.528C199.68 86.528 50.688 230.912 36.352 413.696s115.2 351.232 297.984 384.512h4.608c14.336 0 28.672-9.728 28.672-24.064 4.608-9.728 0-19.456-4.608-28.672-4.608-4.608-9.216-9.728-18.944-14.336z" fill="#FFFFFF" p-id="6735"></path><path d="M805.888 586.752c48.128-33.792 76.8-86.528 76.8-148.992 0-100.864-81.92-182.784-182.784-182.784S517.12 336.896 517.12 437.76c0 57.856 28.672 110.592 72.192 144.384-124.928 52.736-187.392 192.512-187.392 312.832 0 14.336 4.608 28.672 14.336 38.4s24.064 14.336 38.4 14.336h480.768c14.336 0 28.672-4.608 38.4-14.336 9.728-9.728 14.336-24.064 14.336-38.4 0.512-135.168-76.8-260.096-182.272-308.224z m-105.984-24.064c-72.192 0-124.928-52.736-124.928-124.928s52.736-124.928 124.928-124.928 124.928 52.736 124.928 124.928-52.736 124.928-124.928 124.928z m240.64 331.776H459.776c4.608-134.656 86.528-273.92 240.64-273.92 110.08 0 235.008 105.472 240.128 273.92zM372.736 288.768v144.384l-100.864 100.864c-4.608 4.608-9.728 14.336-9.728 19.456 0 9.728 4.608 14.336 9.728 19.456 4.608 4.608 9.728 4.608 19.456 4.608s14.336-4.608 24.064-9.728l105.984-105.984c4.608-4.608 4.608-14.336 4.608-19.456v-153.6c0-14.336-9.728-28.672-28.672-28.672-14.848-0.512-24.576 14.336-24.576 28.672z" fill="#FFFFFF" p-id="6736"></path></svg>