<svg t="1648026128261" class="icon" viewBox="0 0 1024 1024" version="1.1" xmlns="http://www.w3.org/2000/svg" p-id="6343" width="200" height="200"><path d="M97.28 880.64h812.544v68.096H97.28V880.64z m677.376-327.168h-180.224c0-35.328 16.384-69.12 45.056-90.112 100.352-74.24 120.832-216.064 46.592-315.904-32.256-43.52-79.36-74.24-132.608-86.016-16.384-3.072-32.768-4.608-49.664-4.608-124.928 0-225.792 100.864-225.792 225.792 0 71.168 33.28 137.728 90.112 180.736 27.136 18.944 44.032 49.664 45.056 82.944v7.168H232.448C157.696 553.472 97.28 614.4 97.28 689.152v98.816c0 19.968 16.384 36.352 36.864 36.864h739.328c19.968 0 36.352-16.384 36.864-36.864v-98.816c-0.512-74.752-60.928-135.68-135.68-135.68z m67.584 203.264H165.376v-68.096c0-37.376 30.208-68.096 67.584-68.096h180.224c37.376 0 68.096-30.208 68.096-67.584v-7.168c-1.024-53.76-27.648-103.936-71.68-135.168-70.656-50.688-87.04-148.992-36.352-220.16 30.208-41.984 78.848-66.56 130.56-65.536 11.776 0 23.552 1.024 34.816 3.584 13.312 3.072 26.112 7.68 38.4 14.336 64 32.768 97.28 104.96 80.896 174.592-8.704 36.864-29.696 69.632-60.416 92.16-45.056 34.304-71.68 87.552-71.68 144.384 0 37.376 30.208 68.096 67.584 68.096h180.224c37.376 0 68.096 30.208 68.096 67.584v67.072h0.512z" fill="#FFFFFF" p-id="6344"></path></svg>