<svg t="1648026574007" class="icon" viewBox="0 0 1024 1024" version="1.1" xmlns="http://www.w3.org/2000/svg" p-id="6604" width="200" height="200"><path d="M514.048 70.656c146.944 0 266.24 119.296 266.24 266.24 0 86.016-41.472 166.4-111.104 216.576 13.824 4.608 27.136 10.24 40.448 16.384 18.944 9.216 27.136 31.744 17.92 50.688-8.704 18.432-30.72 26.624-49.664 18.432-51.2-23.552-107.008-35.84-163.328-35.328h11.264c-185.344 6.656-340.992 141.824-373.248 325.12-3.584 20.48-23.04 34.304-44.032 30.72-20.48-3.584-34.304-23.04-30.72-44.032 28.16-161.28 138.24-295.936 290.816-355.84-122.88-80.896-157.184-245.76-76.288-368.64 48.64-75.264 132.096-120.32 221.696-120.32z m303.104 566.784l4.096 3.584 124.928 124.928c13.312 13.312 14.848 34.304 3.584 49.664l-3.584 4.096-124.928 124.928c-14.848 14.848-38.912 14.848-53.76 0-13.312-13.312-14.848-34.304-3.584-49.664l3.584-4.096 59.904-59.904H665.6c-20.992 0-37.888-16.896-37.888-37.888 0-18.944 13.824-34.816 32.768-37.888l5.12-0.512h161.792l-59.904-59.904c-13.312-13.312-14.848-34.304-3.584-49.664l3.584-4.096c13.312-12.8 34.304-14.848 49.664-3.584z m-303.104-490.496c-104.96 0-189.952 84.992-189.952 189.952s84.992 189.952 189.952 189.952 189.952-84.992 189.952-189.952-84.992-189.952-189.952-189.952z" fill="#FFFFFF" p-id="6605"></path></svg>