<svg t="1646903539404" class="icon" viewBox="0 0 1024 1024" version="1.1" xmlns="http://www.w3.org/2000/svg" p-id="3405" width="200" height="200"><path d="M276.0704 287.3344c0-94.464 77.9264-170.1376 172.1856-170.1376 94.208 0 172.1344 75.6736 172.1344 170.1376 0 94.464-76.6976 164.7616-170.9056 164.7616-94.208 0-173.4144-70.2976-173.4144-164.7616zM114.5344 851.3024v-1.4336c0-172.5952 133.2224-315.2896 301.7728-331.52l35.8912-5.3248c38.912-3.0208 93.696-7.8848 122.624-33.792l13.1584-9.6768c55.1936-45.6704 87.552-110.6432 87.552-182.2208 0-126.9248-103.8848-231.0144-233.4208-231.0144-120.0128 0-223.7952 104.0896-223.7952 231.0144 0 71.5776 32.3584 136.5504 87.6032 182.2208l16.1792 9.6768-16.1792 6.6048C156.5696 544.2048 56.32 687.36 56.32 849.8688c-0.5632 60.5696 47.5136 119.296 107.9296 119.8592h287.9488c9.6256 0 30.3616-15.2064 30.3616-30.464 0-15.2064-20.736-30.3616-30.3616-30.3616H165.7856c-28.16 0.3584-50.8416-29.3888-51.2512-57.6z m800.512-79.5648c-48.5888 6.5536-84.5824 45.568-84.5824 97.3824 0 9.6768 3.0208 22.8864 6.5536 29.4912l-42.0352 22.8352-16.1792-16.2304c-19.3024-13.2608-35.4304-19.2512-55.1936-19.2512-16.2816 0-35.4816 6.5536-55.1936 19.2512-6.6048 6.5536-13.1584 9.6768-16.2304 16.2304l-38.9632-22.8352c3.0208-6.6048 6.5536-19.3024 6.5536-29.4912 0.2048-49.0496-35.9424-90.7264-84.5312-97.3824 0-6.656-3.072-19.3536-3.072-32.5632 0-9.6768 3.072-22.8352 3.072-32.512 48.5376-6.656 84.5824-45.7216 84.5824-97.4848 0-9.6768-3.0208-22.8352-6.5536-29.3888l42.0352-22.8864c3.0208 3.072 9.5744 9.6768 16.1792 13.2608 19.2 13.1584 35.4816 19.2512 51.6608 19.2512 16.128 0 32.3584-6.5536 51.6096-19.2512 6.656-6.5536 13.1584-9.6768 16.2816-13.2608l42.0352 22.8864c-3.0208 6.5536-6.656 19.3024-6.656 29.3888-0.2048 49.1008 35.9936 90.7776 84.6336 97.4848 0 6.5536 3.0208 19.3024 3.0208 32.512 4.608 9.6256 0.9728 22.8352 0.9728 32.5632z m16.2816-110.7456h-3.072c-29.2864 0-51.6096-22.8352-51.6096-51.7632 0-6.6048 3.0208-16.2816 3.0208-19.3024 6.5024-16.2304 0-35.584-13.2096-45.7216l-58.2144-32.512h-16.2304c-9.5232 0-22.7328 3.0208-29.3376 13.1584-6.6048 6.6048-25.856 22.8864-38.9632 22.8864-13.2096 0-32.4608-16.2304-42.0864-22.8864-6.5536-6.5536-16.1792-13.1584-29.3888-13.1584-6.5024 0-9.5744 0-13.1584 3.0208l-61.7472 32.512c-13.2096 9.6768-19.3024 29.44-13.2096 45.6704 0 0 3.0208 9.6768 3.0208 19.3024 0.4608 28.16-21.9648 51.3536-50.0736 51.8144H512.4608c-13.1584 0-25.856 13.2608-29.3888 29.44 0 3.0208-6.5536 25.856-6.5536 48.7936 0 19.3536 3.0208 45.7216 6.5536 48.64 3.072 16.3328 16.1792 29.5424 29.3888 29.5424h3.1232c29.3376 0 51.6096 22.8352 51.6096 51.8144 0 6.5536-3.0208 16.1792-3.0208 19.2-6.5536 16.3328 0 35.4816 13.2096 45.7216l58.1632 32.5632c6.656-3.0208 9.6768-3.0208 16.2304-3.0208 9.6256 0 22.784-3.0208 29.44-13.2608 6.5536-6.5536 25.8048-25.7536 42.0352-25.7536 13.1584 0 35.3792 16.1792 42.0352 25.7536 6.5536 6.656 16.2304 13.2608 29.3888 13.2608 6.5024 0 9.5744 0 16.128-3.0208l58.2144-32.512c13.1584-9.6256 19.3024-29.3888 13.1584-45.7728 0 0-2.9696-9.5744-2.9696-19.2512 0-29.44 22.784-51.8144 51.6608-51.8144h3.0208c13.1584 0 25.8048-13.2608 29.3376-29.44 0 0 6.5536-25.856 6.5536-48.7936-6.0416-16.2304-9.0624-42.1376-9.0624-45.6192-3.1232-16.3328-16.2816-29.4912-29.3888-29.4912z m-207.616 120.32c-22.784 0-42.0864-19.3024-42.0864-42.1376 0-22.8352 19.3024-42.1376 42.0864-42.1376 22.7328 0 42.0352 19.3024 42.0352 42.1888 0.4608 22.784-19.3024 42.0864-42.0352 42.0864z m16.1792-129.9456c-61.7984-13.2608-116.992 42.1376-103.8336 107.1104 6.6048 35.5328 35.4816 64.9216 71.3728 71.5264 61.8496 13.312 117.0432-42.0864 103.8848-104.0384-6.0928-38.5536-35.4816-68.0448-71.424-74.5984z" fill="#FFFFFF" p-id="3406"></path></svg>