<?xml version="1.0" standalone="no"?><!DOCTYPE svg PUBLIC "-//W3C//DTD SVG 1.1//EN" "http://www.w3.org/Graphics/SVG/1.1/DTD/svg11.dtd"><svg t="1650707096967" class="icon" viewBox="0 0 1024 1024" version="1.1" xmlns="http://www.w3.org/2000/svg" p-id="4804" xmlns:xlink="http://www.w3.org/1999/xlink" width="200" height="200"><defs><style type="text/css">@font-face { font-family: feedback-iconfont; src: url("//at.alicdn.com/t/font_1031158_u69w8yhxdu.woff2?t=1630033759944") format("woff2"), url("//at.alicdn.com/t/font_1031158_u69w8yhxdu.woff?t=1630033759944") format("woff"), url("//at.alicdn.com/t/font_1031158_u69w8yhxdu.ttf?t=1630033759944") format("truetype"); }
</style></defs><path d="M915.968 115.2H110.592c-34.816 0-62.976 28.16-62.976 62.976v686.592c0 34.816 28.16 62.976 62.976 62.976h805.376c34.816 0 62.976-28.16 62.976-62.976V177.664c0-34.816-28.16-62.464-62.976-62.464z m-6.656 69.632v62.464H117.76V184.832h791.552zM117.76 857.6V317.44h791.04v540.16H117.76z m506.88-472.064l-163.84 435.712c-6.656 17.92-27.136 27.136-45.056 20.48-17.92-6.656-27.136-27.136-20.48-45.056l163.84-435.712c7.168-17.92 27.648-26.112 45.568-18.944 17.408 6.656 26.112 26.112 19.968 43.52z m-282.624 163.84l-68.096 68.096 68.096 68.096c13.312 13.824 12.8 35.84-1.024 49.152-13.312 12.8-34.816 12.8-48.64 0L199.68 642.048c-13.824-13.824-13.824-35.84 0-49.152l92.672-92.672c14.336-12.8 36.352-11.776 49.152 2.56 12.8 12.8 12.8 33.28 0.512 46.592z m485.888-30.208c13.824 13.824 13.824 35.84 0 49.152l-92.672 92.672c-13.824 13.824-35.84 13.824-49.152 0-13.824-13.824-13.824-35.84 0-49.152l68.096-68.096L685.568 476.16c-13.824-13.824-13.824-35.84 0-49.152 13.824-13.824 35.84-13.824 49.152 0l93.184 92.16z" fill="#FFFFFF" p-id="4805"></path></svg>