<?xml version="1.0" standalone="no"?><!DOCTYPE svg PUBLIC "-//W3C//DTD SVG 1.1//EN" "http://www.w3.org/Graphics/SVG/1.1/DTD/svg11.dtd"><svg t="1650704122370" class="icon" viewBox="0 0 1024 1024" version="1.1" xmlns="http://www.w3.org/2000/svg" p-id="4174" xmlns:xlink="http://www.w3.org/1999/xlink" width="200" height="200"><defs><style type="text/css">@font-face { font-family: feedback-iconfont; src: url("//at.alicdn.com/t/font_1031158_u69w8yhxdu.woff2?t=1630033759944") format("woff2"), url("//at.alicdn.com/t/font_1031158_u69w8yhxdu.woff?t=1630033759944") format("woff"), url("//at.alicdn.com/t/font_1031158_u69w8yhxdu.ttf?t=1630033759944") format("truetype"); }
</style></defs><path d="M669.184 213.504H275.456c-18.432-0.512-34.304 14.336-34.816 32.768 0 17.92 15.36 32.768 34.816 32.768h393.216c18.432 0.512 34.304-14.336 34.816-32.768 0-17.92-15.36-32.768-34.304-32.768z m-107.008 182.784h-286.72c-18.432-0.512-34.304 14.336-34.816 32.768 0 17.92 15.36 32.768 34.816 32.768h286.72c18.432 0.512 34.304-14.336 34.816-32.768 0-18.432-15.36-32.768-34.816-32.768zM374.272 578.56H275.968c-18.432-0.512-34.304 14.336-34.816 32.768 0 17.92 15.36 32.768 34.816 32.768h98.816c18.432 0.512 34.304-14.336 34.816-32.768-0.512-18.432-15.872-32.768-35.328-32.768z" fill="#FFFFFF" p-id="4175"></path><path d="M419.328 971.264H203.776c-67.072 0-121.856-51.712-121.856-115.2v-691.2C81.92 101.376 136.704 49.664 203.776 49.664h536.576c67.072 0 121.856 51.712 121.856 115.2v249.344c0 17.92-15.36 32.768-34.816 32.768-18.432 0.512-34.304-14.336-34.816-32.768V164.864c0-27.136-23.552-49.152-52.224-49.152H203.776c-28.672 0-52.224 22.016-52.224 49.152v691.2c0 27.136 23.552 49.152 52.224 49.152h215.552c19.456 0 34.816 14.848 34.816 32.768 0 18.944-15.36 33.28-34.816 33.28z" fill="#FFFFFF" p-id="4176"></path><path d="M870.4 756.736v-55.808c0-61.44-49.152-111.616-109.568-111.616-60.416 0-109.568 49.664-109.568 111.616 0 15.36 12.288 27.648 27.648 27.648 15.36 0 27.648-12.8 27.648-27.648 0-30.72 24.576-55.296 54.784-55.808 30.208 0 54.784 25.088 54.784 55.808v55.808h-164.864c-30.72 0-55.296 25.088-54.784 55.808V896c0 30.72 24.576 55.296 54.784 55.808H870.4c30.72 0 55.296-25.088 54.784-55.808v-83.456c0-30.72-24.576-55.808-54.784-55.808z m0 139.264h-219.648v-83.456H870.4V896z" fill="#FFFFFF" p-id="4177"></path></svg>