<?xml version="1.0" standalone="no"?><!DOCTYPE svg PUBLIC "-//W3C//DTD SVG 1.1//EN" "http://www.w3.org/Graphics/SVG/1.1/DTD/svg11.dtd"><svg t="1650703453318" class="icon" viewBox="0 0 1024 1024" version="1.1" xmlns="http://www.w3.org/2000/svg" p-id="4242" xmlns:xlink="http://www.w3.org/1999/xlink" width="200" height="200"><defs><style type="text/css">@font-face { font-family: feedback-iconfont; src: url("//at.alicdn.com/t/font_1031158_u69w8yhxdu.woff2?t=1630033759944") format("woff2"), url("//at.alicdn.com/t/font_1031158_u69w8yhxdu.woff?t=1630033759944") format("woff"), url("//at.alicdn.com/t/font_1031158_u69w8yhxdu.ttf?t=1630033759944") format("truetype"); }
</style></defs><path d="M810.496 41.472c78.336 0 141.824 66.56 141.824 148.48v637.952c0 81.92-63.488 148.48-141.824 148.48H218.112c-78.336 0-141.824-66.56-141.824-148.48V189.952c0-81.92 63.488-148.48 141.824-148.48h592.384z m14.848 72.704H203.776c-29.696 0-53.76 25.088-54.272 56.32v676.352c0 31.232 23.552 56.832 53.248 57.344H825.344c29.696 0 53.76-25.088 54.272-56.32V171.52c0-31.232-23.552-56.832-53.248-57.344h-1.024zM479.232 690.176c19.456 0 35.328 15.872 35.328 35.328 0 19.456-15.872 35.328-35.328 35.328H320c-19.456 0-35.328-15.872-35.328-35.328 0-19.456 15.872-35.328 35.328-35.328h159.232z m229.888-218.624c19.456 0 35.328 15.872 35.328 35.328 0 19.456-15.872 35.328-35.328 35.328h-389.12c-19.456 0-35.328-15.872-35.328-35.328 0-19.456 15.872-35.328 35.328-35.328h389.12zM383.488 202.24L409.6 255.488l58.368 8.704-42.496 41.472 10.24 58.368-52.224-27.648L330.752 363.52l10.24-58.368-42.496-41.472 58.368-8.704 26.624-52.736z m325.632 55.296c19.456 0 35.328 15.872 35.328 35.328 0 19.456-15.872 35.328-35.328 35.328h-159.232c-19.456 0-35.328-15.872-35.328-35.328 0-19.456 15.872-35.328 35.328-35.328h159.232z" fill="#FFFFFF" p-id="4243"></path></svg>