<svg t="1648026857269" class="icon" viewBox="0 0 1024 1024" version="1.1" xmlns="http://www.w3.org/2000/svg" p-id="6995" width="200" height="200"><path d="M841.216 986.624H176.64c-33.28 0-59.904-26.624-59.904-59.904v-356.352c-0.512-33.28 25.6-60.416 58.88-60.928 9.728 0 19.456 2.048 28.16 6.656l311.296 148.48 300.032-147.968c29.696-14.848 65.536-2.56 80.384 26.624 4.608 8.704 6.656 18.432 6.144 28.16v353.792c0.512 33.28-26.112 60.416-59.392 60.928 0 0.512-0.512 0.512-1.024 0.512zM177.152 569.856v356.352h665.088v-353.792L515.072 732.16l-337.92-162.304z" fill="#FFFFFF" p-id="6996"></path><path d="M750.08 611.84c-16.384 0-30.208-13.312-30.208-30.208V265.728c0-16.384 13.312-30.208 30.208-30.208 16.384 0 30.208 13.312 30.208 30.208v316.416c0 16.384-13.312 29.696-30.208 29.696z m-482.304-2.048c-16.384 0-30.208-13.312-30.208-30.208v-317.44c0-16.384 13.312-30.208 30.208-30.208 16.384 0 30.208 13.312 30.208 30.208v317.44c-0.512 16.896-13.824 30.208-30.208 30.208z" fill="#FFFFFF" p-id="6997"></path><path d="M172.032 372.224c-8.704 0-17.408-4.096-23.04-10.752-10.752-12.8-9.216-31.744 3.072-42.496l324.608-266.24c23.04-19.456 56.832-19.456 79.872 0l309.248 267.264c12.288 11.264 13.824 30.208 2.56 42.496s-30.208 13.824-42.496 2.56l-308.224-267.264c-0.512-0.512-2.048-0.512-2.56 0L190.464 365.056c-5.12 4.608-11.776 6.656-18.432 7.168z m483.328 50.176H362.496c-11.264 0-19.968-9.216-19.968-19.968 0-11.264 8.704-19.968 19.968-19.968H655.36c11.264 0 19.968 9.216 19.968 19.968 0 11.264-9.216 19.968-19.968 19.968z m0 101.376H362.496c-11.264 0-19.968-9.216-19.968-19.968 0-11.264 8.704-19.968 19.968-19.968H655.36c11.264 0 19.968 9.216 19.968 19.968 0 11.264-9.216 19.968-19.968 19.968z" fill="#FFFFFF" p-id="6998"></path></svg>