<svg t="1648026813543" class="icon" viewBox="0 0 1024 1024" version="1.1" xmlns="http://www.w3.org/2000/svg" p-id="6865" width="200" height="200"><path d="M951.296 435.2l-345.088-358.4c-25.6-26.624-59.904-41.472-96.768-41.472-36.864 0.512-71.168 14.848-96.768 41.472l-36.352 37.376c-5.632-5.12-12.8-8.704-20.992-8.704H168.96c-16.896 0-30.72 13.824-30.72 30.72v225.28L67.584 435.2c-38.912 40.448-33.792 72.192-27.136 88.064 6.656 15.36 26.112 41.472 82.432 41.472h18.944V962.56c0 16.896 13.824 30.72 30.72 30.72h674.304c16.896 0 30.72-13.824 30.72-30.72v-398.336h18.944c56.32 0 75.776-26.112 82.432-41.472 6.144-15.36 11.264-47.104-27.648-87.552zM199.68 166.912h125.44v1.024L199.68 298.496V166.912z m416.768 765.44h-91.136v-216.064h91.136v216.064z m199.68 0h-138.752v-246.784c0-16.896-13.824-30.72-30.72-30.72H494.592c-16.896 0-30.72 13.824-30.72 30.72v246.784h-261.12v-367.616h613.376v367.616z m80.384-429.056H122.368c-14.336 0-22.528-2.56-25.6-4.608 1.024-3.072 4.096-10.752 14.336-21.504l345.088-357.888c28.16-29.184 77.312-29.184 105.472 0l345.088 357.888c10.24 10.24 13.824 17.92 14.336 21.504-2.56 2.048-10.24 4.608-24.576 4.608z" fill="#FFFFFF" p-id="6866"></path></svg>