<svg t="1648217459161" class="icon" viewBox="0 0 1024 1024" version="1.1" xmlns="http://www.w3.org/2000/svg" p-id="4211" width="200" height="200"><path d="M670.72 141.824c39.424 0 74.24 24.576 87.552 61.44l79.36 240.128h4.096c36.864 0 66.56 29.696 66.56 66.56v276.992c0 35.84-28.672 64.512-64.512 64.512s-64.512-28.672-64.512-64.512H247.296c0 35.84-28.672 64.512-64.512 64.512s-64.512-28.672-64.512-64.512v-276.48c0-36.864 29.696-66.56 66.56-66.56h4.096l79.36-240.128c13.312-36.864 48.64-61.44 87.552-61.44H670.72m-2.56-79.36H358.4c-74.24 0-140.8 46.592-165.888 116.224-0.512 1.024-0.512 1.536-1.024 2.56L128 372.736C74.24 397.312 39.936 450.56 39.936 509.952v271.872c0 81.92 66.56 148.48 148.48 148.48 48.64 0 93.696-23.552 121.344-63.488H716.8c47.104 67.072 139.264 83.456 206.848 36.864 39.936-27.648 63.488-73.216 63.488-121.856V509.952c0-59.392-34.816-112.64-88.576-137.216l-62.976-190.976c-0.512-1.024-0.512-1.536-1.024-2.56-25.6-69.632-92.16-116.224-166.4-116.224z" fill="#FFFFFF" p-id="4212"></path><path d="M513.536 579.072c70.656 0 143.872 73.216 143.872 143.872h68.608c0-117.248-95.232-212.48-212.48-212.48s-212.48 95.232-212.48 212.48h68.608c0-70.656 73.216-143.872 143.872-143.872z m137.728-206.848c0-76.288-61.952-138.24-138.24-138.24s-138.24 61.952-138.24 138.24 61.952 138.24 138.24 138.24 138.24-61.952 138.24-138.24z m-137.728 80.896c-44.544 0-80.896-36.352-80.896-80.896s36.352-80.896 80.896-80.896 80.896 36.352 80.896 80.896c0 44.544-36.352 80.896-80.896 80.896z" fill="#FFFFFF" p-id="4213"></path></svg>