<svg t="1648027093199" class="icon" viewBox="0 0 1024 1024" version="1.1" xmlns="http://www.w3.org/2000/svg" p-id="7392" width="200" height="200"><path d="M514.56 444.416c110.08 0 199.168-89.088 199.168-199.168S624.64 46.08 514.56 46.08 315.392 135.168 315.392 245.248 404.48 444.416 514.56 444.416z m0-345.088c79.36 0 143.872 64.512 143.872 143.872S593.92 387.072 514.56 387.072 370.688 323.072 370.688 243.2V240.64c1.536-78.336 65.536-141.312 143.872-141.312z m431.616 667.136c-5.12-12.8-138.24-304.64-314.368-304.64H399.872c-176.128 0-308.736 292.352-316.928 304.64-1.024 3.584-1.024 7.68 0 11.264v172.544c0 15.872 12.8 28.672 28.672 29.184h174.592c8.192 0 15.872-3.072 21.504-8.704 5.12-6.144 8.192-13.824 7.168-22.016v-8.704c-0.512-2.048-0.512-4.608 0-6.656 2.048-111.104 93.696-199.68 204.8-197.632 108.544 2.048 196.096 89.088 197.632 197.632 0.512 2.048 0.512 4.608 0 6.656v8.704c-0.512 8.192 2.048 15.872 7.168 22.016 5.632 6.144 13.312 9.216 20.992 9.216h174.592c15.872-0.512 28.672-13.312 28.672-29.184V778.24c0.512-3.584-0.512-8.192-2.56-11.776zM255.488 922.112H140.8v-137.216c36.352-78.848 145.92-265.728 259.072-265.728H629.76c30.72 1.536 59.904 12.288 83.456 31.232l-132.608 132.608c-21.504-6.144-44.032-9.216-66.56-9.216-138.752 0.512-252.416 109.568-258.56 248.32z m633.344 0h-114.688c-4.096-89.6-54.272-171.008-132.608-215.04l118.784-118.784c54.272 58.88 99.328 125.952 132.608 199.168l-4.096 134.656z" fill="#FFFFFF" p-id="7393"></path><path d="M514.56 775.168c-95.232 0.512-172.544 77.312-172.544 172.544-0.512 2.56-0.512 5.12 0 7.168-0.512 2.56-0.512 5.12 0 7.168 0 15.872 12.8 28.672 28.672 28.672h288.256c15.872 0 28.672-12.8 28.672-28.672 0.512-2.56 0.512-5.12 0-7.168 0.512-2.56 0.512-5.12 0-7.168-0.512-95.232-77.824-172.032-173.056-172.544z m-113.664 158.208c6.656-62.464 62.976-108.032 125.952-101.376 53.248 5.632 95.744 48.128 101.376 101.376H400.896z" fill="#FFFFFF" p-id="7394"></path></svg>