<svg t="1648027139808" class="icon" viewBox="0 0 1024 1024" version="1.1" xmlns="http://www.w3.org/2000/svg" p-id="7523" width="200" height="200"><path d="M749.056 344.576c3.072-7.168 3.072-14.848 0-22.016-23.552-62.464-61.952-137.728-119.296-137.728H393.216c-57.856 0-95.744 74.752-119.296 137.728-4.096 6.656-4.096 15.36 0 22.016 4.096 7.168 11.776 11.264 19.456 10.752h433.152c9.216 0 17.408-4.096 22.528-10.752z m-419.328-38.4c22.016-47.104 45.568-71.168 57.856-72.192H629.76c13.312 0 35.84 25.088 57.856 72.192H329.728zM248.832 446.976c-15.36-7.168-32.768-7.168-48.128 0-13.312 8.192-22.016 21.504-25.088 36.352-14.336 70.144 22.528 88.064 43.52 93.184 14.848 3.072 30.208 5.12 45.568 6.144h14.848c2.048 0.512 4.096 0.512 6.144 0 1.536 0.512 2.56 0.512 4.096 0 14.848 0.512 29.696-0.512 44.544-3.584 18.944-4.608 34.304-17.92 42.496-35.84 5.12-23.04-6.144-47.104-27.136-57.856-32.768-15.872-66.56-30.208-100.864-42.496v4.096zM322.56 533.504c-11.776 1.024-23.04 1.024-34.816 0h-17.408c-13.312 0-26.112 0-38.912-4.608s-12.8 0-6.144-33.792v-4.096c2.048-0.512 4.096-0.512 6.144 0 31.232 10.24 61.952 23.04 91.648 38.4l-0.512 4.096z" fill="#FFFFFF" p-id="7524"></path><path d="M412.16 680.448H253.952c-13.824 0-25.088 11.264-25.088 25.088v61.44c-0.512 7.168-6.144 12.8-13.312 13.312H137.728c-7.168-0.512-12.8-6.144-13.312-13.312v-166.4L156.672 404.48c0.512-7.168-2.048-14.336-6.144-19.456-5.12-5.632-11.776-8.704-18.944-8.704h-22.016c-7.168-0.512-12.8-6.144-13.312-13.312v-11.776c1.536-6.144 6.656-10.752 13.312-10.752h78.848c10.752 0 20.48-7.168 23.552-17.408C235.52 249.856 288.768 148.48 333.312 148.48h353.28c44.544 0 97.792 101.888 121.856 173.568 3.584 10.24 12.8 16.896 23.552 17.408h82.432c7.168 0.512 12.8 6.144 13.312 13.312V363.52c-0.512 7.168-6.144 12.8-13.312 13.312h-22.016c-7.168 0.512-14.336 3.584-18.944 8.704-5.12 5.12-7.168 12.288-6.144 19.456l3.584 22.016h44.032c32.256-2.048 57.856-28.672 57.856-61.44v-14.848c-0.512-34.816-28.672-62.464-62.976-62.464h-61.952c-10.24-28.672-22.528-56.32-36.864-83.456-38.912-73.216-80.384-109.568-127.488-109.568H332.288c-45.056 0-87.04 36.352-125.44 109.056-13.824 27.136-26.112 54.784-36.864 83.456H107.52c-34.304 0.512-61.952 28.672-61.952 62.976v10.752c0.512 32.256 25.6 58.88 57.856 61.44l-27.648 173.568v173.568c0.512 34.816 28.672 62.464 62.976 62.464H215.04c34.816-0.512 62.464-29.184 61.952-64V729.088h135.168v-48.64z" fill="#FFFFFF" p-id="7525"></path><path d="M720.384 752.64c28.16 0 51.2-23.04 51.2-51.2s-23.04-51.2-51.2-51.2-51.2 23.04-51.2 51.2c0 28.672 23.04 51.2 51.2 51.2z m0 51.2c-56.32 0-101.888-45.568-101.888-101.888s45.568-101.888 101.888-101.888 101.888 45.568 101.888 101.888c0 55.808-45.568 101.376-101.888 101.888z m194.048-75.776c4.608 8.192 11.264 14.848 19.456 18.944 12.288 6.656 17.408 22.016 10.752 34.304v0.512l-41.472 69.632c-7.168 11.776-22.016 15.872-34.304 9.216-26.624-14.336-59.392-6.144-75.776 18.944-5.12 7.68-7.68 16.384-7.68 25.6 0 13.824-11.264 25.6-25.6 25.6h-81.92c-13.824 0-25.088-11.264-25.6-25.088-1.024-29.696-25.6-53.248-55.296-52.224h-2.56c-9.728 0-19.456 2.56-27.648 7.68-11.776 6.656-27.136 3.072-33.792-9.216L491.52 782.336c-7.168-11.776-3.072-27.648 8.704-34.816 25.088-13.312 34.304-44.032 21.504-69.12-0.512-0.512-0.512-1.024-1.024-1.536-4.608-8.192-11.776-14.336-19.456-18.944-12.288-6.656-17.408-22.016-10.752-34.304v-0.512l41.472-69.632c6.144-12.8 21.504-17.92 34.304-11.776 0.512 0 1.024 0.512 1.024 0.512 26.624 14.336 59.392 6.144 75.776-18.944 5.12-7.68 7.68-16.896 7.68-26.112 0-13.824 11.264-25.088 25.088-25.6h81.92c13.824 0 25.6 11.264 25.6 25.6 0.512 29.696 25.088 53.248 54.784 52.736h3.072c9.728 0 19.456-2.56 27.648-7.68 11.776-6.656 27.136-3.072 33.792 9.216l41.472 69.632c7.168 11.776 3.072 27.648-8.704 34.816-25.6 12.288-36.352 42.496-24.064 68.096 1.536 1.536 2.048 2.56 3.072 4.096z m-43.52 26.624c-23.552-40.96-15.36-93.184 19.456-124.928l-18.432-30.72c-56.32 15.872-114.688-16.896-131.072-73.216 0-0.512-0.512-1.536-0.512-2.048H701.44c-14.336 56.32-71.168 90.112-127.488 75.776-2.56-0.512-5.12-1.536-7.68-2.048l-16.384 32.256c6.656 6.656 12.8 13.824 17.92 22.016 24.576 40.96 17.408 93.184-17.92 125.44l18.432 30.72c9.216-3.072 18.944-4.608 29.184-4.608 48.128-0.512 90.112 31.232 102.4 77.824h39.936c2.56-9.216 6.144-17.92 10.752-26.112 25.088-40.96 74.752-60.416 120.832-47.104l18.432-30.72c-6.656-6.656-12.288-13.824-17.408-22.016l-1.536-0.512z" fill="#FFFFFF" p-id="7526"></path></svg>