<svg t="1648027669089" class="icon" viewBox="0 0 1024 1024" version="1.1" xmlns="http://www.w3.org/2000/svg" p-id="8447" width="200" height="200"><path d="M952.832 860.672c-8.192-54.784-66.048-80.384-93.696-93.184-2.56-1.024-5.632-2.56-7.68-3.584-1.024-1.536-3.072-4.096-4.096-5.12-9.728-11.776-25.6-31.232-54.272-47.104-29.184-15.872-65.536-24.064-107.008-24.064-5.632 0-11.776 0-17.92 0.512-59.904 3.072-111.104 32.768-146.944 85.504-26.624 38.4-35.84 76.288-35.84 77.824-1.536 5.632 2.048 11.776 8.192 12.8l27.648 6.656h1.536c-4.096 9.216-6.144 19.456-6.144 29.184 0 41.984 34.304 76.288 76.288 76.288 35.84 0 66.048-25.088 73.728-58.368 3.072 1.536 6.144 2.56 9.216 2.56h80.896c3.584 0 7.168-1.024 10.24-3.072 7.68 32.256 36.864 55.808 71.168 55.808 40.448 0 73.216-32.768 73.216-73.216 0-9.728-2.048-19.456-5.632-28.16 0.512 1.536 1.536 2.56 3.072 3.584 2.048 1.536 4.096 2.048 6.144 2.048h1.536l27.648-4.096c3.072-0.512 5.12-2.048 7.168-4.096 1.024-3.072 2.048-5.632 1.536-8.704z m-115.712 62.976c-12.8 0-23.552-10.752-23.552-23.552s10.752-23.552 23.552-23.552 23.552 10.752 23.552 23.552c0 12.8-10.24 23.552-23.552 23.552z m-245.248 3.072c-14.336 0-26.112-11.776-26.112-26.112s11.776-26.112 26.112-26.112 26.112 11.776 26.112 26.112-11.776 26.112-26.112 26.112z m245.248-99.84c-34.816 0-64 24.576-71.168 56.832-3.072-2.048-6.656-2.56-10.24-2.56h-80.896c-3.072 0-6.144 1.024-9.216 2.048-7.68-33.792-37.888-59.392-74.24-59.392-20.992 0-39.936 8.192-53.76 22.016 4.608-11.776 11.776-28.16 23.04-44.544 27.648-39.936 64-61.44 109.056-64 5.12-0.512 10.24-0.512 15.36-0.512 79.36 0 107.52 34.816 122.368 53.248 5.632 6.656 9.728 11.776 15.872 15.872 3.584 2.048 8.192 4.096 14.336 7.168 20.992 9.728 60.416 27.136 64.512 55.296 0 0.512 0 1.024 0.512 2.048-10.24-25.6-35.84-43.52-65.536-43.52z" fill="#FFFFFF" p-id="8448"></path><path d="M956.928 425.984l-76.8-30.208h-0.512c-14.848-5.12-26.624-16.384-32.768-31.232-6.144-14.336-5.632-30.72 1.024-45.056l33.792-70.656c1.536-3.072 1.024-7.168-1.536-9.728l-99.84-104.448c-2.56-2.56-6.656-3.584-9.728-2.048l-75.776 32.768h-0.512c-7.68 3.584-15.36 5.12-23.552 5.12-7.168 0-14.336-1.536-20.992-4.096-14.336-6.144-25.6-17.92-31.232-32.768l-26.112-74.24c-1.024-3.584-4.608-5.632-8.192-5.632l-144.384-3.072c-3.584 0-6.656 2.048-8.192 5.632l-30.72 76.8v0.512c-5.12 14.848-16.896 27.136-31.232 32.768-6.144 2.56-13.312 4.096-20.48 4.096-8.192 0-16.384-2.048-24.064-5.12l-70.656-33.792c-3.072-1.536-7.168-1.024-9.728 1.536L139.776 233.472c-2.56 2.56-3.584 6.656-2.048 9.728l32.768 75.776v0.512c6.656 13.824 7.168 30.208 1.536 44.032l-2.048 5.632c-6.144 11.776-17.92 21.504-30.72 26.112l-73.728 26.112c-3.584 1.024-5.632 4.608-5.632 8.192l-3.584 144.896c0 3.584 2.048 7.168 5.632 8.192l76.8 30.72h0.512c14.848 5.12 26.624 16.384 32.768 31.232 6.144 14.336 5.632 30.72-1.024 45.056l-33.792 70.656c-1.536 3.072-1.024 7.168 1.536 9.728l99.84 104.448c2.56 2.56 6.656 3.584 9.728 2.048l75.776-32.768h0.512c7.68-3.584 15.36-5.12 23.552-5.12 7.168 0 14.336 1.536 20.992 4.096 3.584 1.536 7.68 2.56 12.288 2.56 18.432 0 38.912-15.36 45.568-33.792 1.536-3.584 0.512-7.68-2.56-9.728-9.216-7.68-19.456-13.824-30.208-18.432-14.336-6.144-30.208-9.216-46.08-9.216-17.92 0-35.328 4.096-51.712 11.264l-40.448 19.456-47.104-50.688 19.968-35.84v-0.512c14.336-30.72 15.36-66.048 2.56-97.28s-38.912-55.808-70.656-67.072l-42.496-14.848 2.56-69.632 39.424-11.264h0.512c31.744-11.264 57.344-35.84 70.656-67.072v-0.512l1.536-5.12c11.264-29.184 9.216-62.464-4.608-91.648L209.408 250.88l50.688-47.104 35.84 19.968s0.512 0 0.512 0.512c15.872 7.68 33.792 11.776 51.712 11.776 14.336 0 28.16-2.56 41.984-7.168h0.512l9.216-4.096c28.672-13.312 51.2-38.4 61.44-68.096l14.848-42.496 69.12 2.56 11.264 39.424v0.512c10.752 30.208 33.792 55.296 62.976 69.12h0.512l9.216 3.584c12.8 4.608 26.624 7.168 40.448 7.168 17.408 0 35.328-4.096 51.2-11.776l40.448-19.456 47.104 50.688-19.968 35.84v0.512c-14.336 30.72-15.36 66.048-2.56 97.28s38.912 55.808 70.656 67.072l42.496 14.848-2.56 69.632-39.424 11.264h-0.512c-31.744 11.264-57.856 35.84-70.656 67.072-5.12 12.8-8.192 26.112-8.704 39.424 0 4.096 2.56 8.192 7.168 9.216 15.872 3.072 31.232 7.68 46.08 12.8 3.072 1.024 6.144 0.512 8.192-1.536 2.56-2.048 3.584-4.608 3.072-7.68-1.024-9.216 0.512-18.944 4.096-27.136 6.144-14.336 17.92-25.6 32.768-31.232l73.728-26.112c3.584-1.024 5.632-4.608 5.632-8.192l3.072-144.384c1.536-4.096-1.024-7.168-4.096-8.704z" fill="#FFFFFF" p-id="8449"></path><path d="M509.44 317.44c-49.664 0-96.768 19.456-132.096 54.784-35.328 35.328-54.784 81.92-54.784 132.096 0 49.664 19.456 96.768 54.784 132.096 35.328 35.328 81.92 54.784 132.096 54.784h1.024c49.664-0.512 95.744-19.968 131.072-54.784 35.328-35.328 54.784-81.92 54.784-132.096 0-49.664-19.456-96.768-54.784-132.096-35.328-34.816-82.432-54.272-132.096-54.784z m0 308.736c-67.072 0-121.856-54.784-121.856-121.856s54.784-121.856 121.856-121.856 121.856 54.784 121.856 121.856c0 67.584-54.784 121.856-121.856 121.856z" fill="#FFFFFF" p-id="8450"></path></svg>