<svg t="1648023746025" class="icon" viewBox="0 0 1024 1024" version="1.1" xmlns="http://www.w3.org/2000/svg" p-id="5295" width="200" height="200"><path d="M944.128 307.2c9.216 0.512 17.92 5.12 23.04 13.312l3.072 8.192 0.512 1.536V854.528h-111.104c-40.448 0-77.824-0.512-111.616-0.512-41.472 67.072-129.536 87.04-196.608 45.568-20.992-12.8-37.888-31.232-49.664-52.736-8.192-0.512-15.872-1.536-23.04-2.048-72.704-7.168-98.304-19.968-98.816-56.32v-20.992-17.92c-0.512-71.168 1.024-96.768 12.8-129.024 15.36-41.472 46.08-73.728 98.816-103.936 4.608-2.56 9.216-5.12 13.312-7.168 84.992-44.032 178.176-65.536 278.528-64.512 1.024 0 2.048-0.512 3.072-1.024 33.28-34.816 67.072-68.608 101.888-101.376 12.288-11.264 22.016-19.456 29.184-24.576 4.096-3.072 8.704-5.632 13.312-7.68 4.096-2.56 8.704-3.584 13.312-3.072zM160.256 117.248c64-30.72 140.288-3.584 170.496 60.416 30.72 64 3.584 140.288-60.416 170.496-5.12 2.56-10.752 4.608-16.384 6.656h42.496c44.032 0 79.872 35.84 79.872 79.872l0.512 206.848c0 34.816-22.528 64.512-53.76 75.776v115.2c0 44.032-35.84 79.872-79.872 79.872H188.416c-44.032 0-79.872-35.84-79.872-79.872v-115.2c-32.256-11.264-53.248-41.472-53.248-75.776V434.688c0-44.032 35.84-79.872 79.872-79.872h42.496c-67.584-21.504-104.448-93.184-83.456-160.768 9.728-30.208 30.208-56.32 57.856-72.192l8.192-4.608z m466.944 571.392c-49.152 0-89.088 39.936-89.088 89.088 0 15.872 4.096 31.744 12.288 45.568l-2.048-3.584c1.536 2.56 2.56 5.12 4.608 7.68l-2.56-4.096c1.536 2.56 3.072 5.12 5.12 7.68l-2.56-3.584 4.608 6.144-2.048-3.072c1.536 2.048 3.584 4.608 5.12 6.656l-3.072-3.584c30.72 38.4 87.04 44.544 125.44 13.824 2.048-2.048 4.608-3.584 6.656-5.632l-4.096 3.584c2.048-2.048 4.608-4.096 6.656-6.144l-2.56 2.56c2.048-2.048 4.096-4.608 6.144-6.656l-3.584 4.096c2.048-2.048 4.096-4.608 5.632-6.656l-2.048 2.56c5.12-6.144 9.216-12.288 12.288-19.456l-1.024 2.048c1.536-2.56 2.56-5.632 3.584-8.192l-2.56 6.144c1.536-2.56 2.56-5.632 3.584-8.704l-1.024 2.56c1.024-3.072 2.048-5.632 3.072-8.704l-2.048 6.144c15.872-46.592-8.704-97.28-55.296-113.664-9.728-3.072-19.456-4.608-29.184-4.608z m-356.864 32.768H161.28v110.592c0 14.848 11.776 26.624 26.624 26.624h55.296c14.848 0 26.624-11.776 26.624-26.624 0.512 0.512 0.512-110.592 0.512-110.592z m647.168-333.824c-22.016 20.992-53.248 51.712-92.672 92.672-10.752 11.264-26.112 17.92-41.984 17.408-92.16-1.536-176.64 17.92-253.44 58.368-4.096 2.048-8.192 4.096-11.776 6.656-43.008 24.064-64.512 47.616-75.264 75.776-8.704 24.064-10.24 45.568-9.728 110.08v34.304c8.192 3.072 25.088 6.144 50.688 8.704h1.024c-7.168-78.336 50.176-147.968 129.024-155.136 78.336-7.168 147.968 50.176 155.136 129.024 1.024 11.776 0.512 23.552-1.024 35.328 28.672 0.512 59.392 0.512 92.16 0.512h57.344l0.512-413.696zM296.96 408.064H134.656c-14.848 0-26.624 11.776-26.624 26.624v206.848c0 8.192 3.584 15.36 9.728 20.48l0.512 0.512 3.584 2.56c1.536 0.512 2.56 1.536 4.096 2.048l-1.536-0.512c3.072 1.536 6.656 2.048 10.752 2.048H296.96c14.848 0 26.624-11.776 26.624-26.624V435.2c0-14.848-12.288-27.136-26.624-27.136z m-43.008-241.664c-35.84-22.528-82.944-11.776-105.472 24.064s-11.776 82.944 24.064 105.472c1.536 1.024 3.072 2.048 4.608 2.56 37.376 19.968 83.968 5.632 103.424-31.744 18.944-34.816 7.168-78.848-26.624-100.352z" fill="#FFFFFF" p-id="5296"></path></svg>