<svg t="1648027305561" class="icon" viewBox="0 0 1024 1024" version="1.1" xmlns="http://www.w3.org/2000/svg" p-id="8051" width="200" height="200"><path d="M731.648 206.848h-82.944v-15.36c0-61.952-42.496-105.984-103.936-105.984H127.488c-61.44 0-99.84 43.008-99.84 105.984V803.84c0 29.696 17.92 51.2 46.592 51.2h72.192c17.92 58.368 72.192 102.4 137.216 102.4s119.296-43.52 137.216-102.4h154.624c17.92 58.368 72.192 102.4 137.216 102.4s122.368-43.52 140.8-102.4h23.552c65.024 0 119.296-54.784 119.296-120.32V398.336l-264.704-191.488zM284.16 883.712c-39.936 0-72.192-33.28-75.776-76.8 0-41.984 33.792-76.288 75.776-76.8 43.008 0 75.776 36.352 75.776 76.8 0 41.984-33.792 76.288-75.776 76.8z m429.056 0c-39.936 0-72.192-33.28-75.776-76.8 0-41.984 33.792-76.288 75.776-76.8 43.008 0 75.776 36.352 75.776 76.8 0 41.984-33.792 76.288-75.776 76.8z m211.456-149.504c0 25.6-21.504 47.616-46.592 47.616h-16.384c-14.336-69.632-72.192-120.32-144.896-120.32s-130.048 51.2-144.896 120.32h-143.36c-11.264-69.632-68.608-120.32-140.8-120.32s-133.632 51.2-144.896 120.32h-46.592V191.488c0-18.432 6.144-32.768 27.648-32.768h416.768c21.504 0 32.256 14.336 32.256 32.768V583.68h352.768l-1.024 150.528z m0-230.4h-276.992V276.48h72.192l204.288 133.12 0.512 94.208z" fill="#FFFFFF" p-id="8052"></path><path d="M407.04 459.264H183.296V517.12h223.744v52.736l93.184-78.848-93.184-79.36v47.616zM183.296 332.8l105.472 78.848V358.912h211.456V306.688H288.768V253.952L183.296 332.8z" fill="#FFFFFF" p-id="8053"></path></svg>