<svg t="1648027460730" class="icon" viewBox="0 0 1024 1024" version="1.1" xmlns="http://www.w3.org/2000/svg" p-id="8314" width="200" height="200"><path d="M224.256 881.664c-27.648 0-55.296-2.048-82.432-7.168l-4.096-0.512c-9.728-1.536-18.432-7.168-24.576-14.848l-2.048-3.072c-14.848-19.456-22.528-44.032-23.04-74.24-1.536-23.552-2.56-48.128-2.56-71.68v-34.816c0-44.032 0-58.88 0.512-78.336 0-7.68-0.512-15.36-1.024-23.552-0.512-5.632-0.512-11.264-1.024-16.896l-16.384-4.096c-14.336-3.584-25.6-14.848-28.672-29.696l-1.024-5.632c-3.072-13.824-3.072-28.672 0-43.008 0-0.512 0-1.024 0.512-1.536l1.024-3.072 0.512-2.048c14.336-37.376 40.448-85.504 102.912-90.624 14.336-33.792 27.136-69.12 38.4-104.96C203.776 193.024 274.432 135.168 356.352 128l38.4-6.144 7.168-1.024c14.336-2.048 21.504-3.072 29.184-4.608h2.048l26.112-2.048c5.632 0 118.784-5.632 183.296 4.096 11.776 2.048 17.408 3.584 39.424 7.68 50.176 9.216 72.192 13.824 97.792 20.992 47.104 11.264 84.992 46.08 100.864 93.184 3.584 10.24 7.68 20.992 11.776 31.744 5.12 13.824-2.048 29.184-15.872 34.304s-29.184-2.048-34.304-15.872c-4.096-10.752-7.68-21.504-11.776-32.768-10.24-29.696-33.792-51.712-64-58.88-24.576-6.656-45.568-11.264-94.208-20.48-22.016-4.096-28.16-5.12-38.912-7.168-57.856-8.704-169.984-3.584-171.008-3.584l-23.552 1.536c-7.68 1.024-14.848 2.048-29.184 4.608l-7.68 1.024c-12.8 1.536-25.088 3.584-37.376 5.632-0.512 0-2.048 0.512-2.56 0.512-60.928 5.12-113.152 48.128-130.048 106.496-12.8 41.472-28.16 82.432-45.568 121.856-2.048 5.12-5.12 9.216-8.192 12.288-5.12 5.632-12.8 8.704-20.48 8.192-27.648-1.536-49.152 7.68-67.584 55.808v1.024c-1.024 5.632-1.024 11.264-0.512 16.384l17.92 4.608c17.408 4.608 29.184 19.968 29.184 37.888 0 8.704 0.512 16.896 1.024 24.576 0.512 9.216 1.024 17.92 1.024 27.648-0.512 19.456-0.512 34.304-0.512 77.824v34.304c0 23.04 1.024 46.08 2.56 69.12v1.536c0 17.92 3.584 31.232 10.752 41.472 47.616 8.192 96.256 8.192 144.384 0h0.512c3.072-4.096 6.656-22.528 10.24-40.448l3.584-18.432c4.096-19.456 19.968-32.768 38.912-32.768h58.368c14.848 0 26.624 11.776 26.624 26.624s-11.776 26.624-26.624 26.624h-46.592l-1.536 8.192c-8.704 43.008-13.824 69.12-45.056 79.872-0.512 0-1.536 0.512-2.048 0.512l-3.584 1.024c-1.024 0-1.536 0.512-2.048 0.512-27.136 5.632-54.784 8.192-82.432 8.192z m-130.048-322.56z" fill="#FFFFFF" p-id="8315"></path><path d="M320.512 650.752c-29.184 0-52.224-23.04-52.224-51.712s23.552-51.712 52.224-51.712 52.224 23.04 52.224 51.712-23.552 51.712-52.224 51.712z m117.248-156.672h-2.048c-52.736-4.096-105.472-11.776-157.184-22.528-13.312-2.56-24.576-10.752-30.72-22.528-6.656-11.776-7.168-25.6-2.56-37.888l17.92-48.64c16.384-44.032 27.136-70.144 39.424-96.768 0-0.512 0.512-1.024 1.024-1.536l1.024-2.048c0.512-0.512 0.512-1.024 1.024-1.536 12.8-19.456 32.256-32.768 54.784-37.888 28.16-7.68 57.344-11.776 86.528-12.8 71.168 0.512 146.432 2.56 237.568 6.656 28.672 0 56.32 10.24 76.8 30.208 7.68 7.168 13.824 15.36 18.944 24.064 7.168 12.8 3.072 29.184-9.728 36.352-12.8 7.168-29.184 3.072-36.352-9.728-2.56-4.608-5.632-8.704-9.728-12.288-10.752-10.24-25.088-15.872-39.936-15.36h-1.536c-90.624-4.096-165.376-6.144-235.52-6.656-24.064 1.024-49.664 4.608-74.24 11.264l-1.536 0.512c-8.704 2.048-16.384 7.168-21.504 14.336l-0.512 0.512C337.92 314.368 327.68 339.456 312.32 381.44l-14.848 40.448c47.104 9.216 94.72 15.872 141.824 19.968 14.848 1.024 25.6 13.824 24.576 28.672-1.024 12.8-12.288 23.552-26.112 23.552z" fill="#FFFFFF" p-id="8316"></path><path d="M873.472 908.8h-263.168c-63.488 0-114.688-51.712-114.688-114.688V483.84c0-63.488 51.712-114.688 114.688-114.688h263.168c63.488 0 114.688 51.712 114.688 114.688v310.272c0 63.488-51.2 114.688-114.688 114.688z m-263.168-486.4c-33.792 0-61.44 27.648-61.44 61.44v310.272c0 33.792 27.648 61.44 61.44 61.44h263.168c33.792 0 61.44-27.648 61.44-61.44V483.84c0-33.792-27.648-61.44-61.44-61.44h-263.168z" fill="#FFFFFF" p-id="8317"></path><path d="M859.136 548.864H624.64c-14.848 0-26.624-11.776-26.624-26.624 0-14.848 11.776-26.624 26.624-26.624h234.496c14.848 0 26.624 11.776 26.624 26.624 0 14.336-11.776 26.624-26.624 26.624z m0 119.808H624.64c-14.848 0-26.624-11.776-26.624-26.624s11.776-26.624 26.624-26.624h234.496c14.848 0 26.624 11.776 26.624 26.624 0 14.336-11.776 26.624-26.624 26.624z m0 119.808H624.64c-14.848 0-26.624-11.776-26.624-26.624s11.776-26.624 26.624-26.624h234.496c14.848 0 26.624 11.776 26.624 26.624s-11.776 26.624-26.624 26.624z" fill="#FFFFFF" p-id="8318"></path></svg>