<svg t="1646903257208" class="icon" viewBox="0 0 1024 1024" version="1.1" xmlns="http://www.w3.org/2000/svg" p-id="2878" width="200" height="200"><path d="M688.8448 453.5808H335.9744c-32.9216 0-59.5968 26.624-59.5968 59.5456v235.3152c0 31.3344 26.6752 58.0096 59.5968 58.0096h352.8192c32.9216 0 59.5968-26.624 59.5968-59.5456V511.5904c-1.4848-31.3856-28.16-58.0096-59.5456-58.0096z m25.6 293.2736c0 14.1312-11.4688 25.6512-25.6 25.6512H335.9744c-13.8752 0-25.6512-11.008-25.6512-24.0128v-235.264c0-14.1312 11.4688-25.6512 25.6-25.6512h352.8704c12.7488 0 24.576 11.6224 25.6512 25.0368v234.24z m-116.2752-318.72v-32.6144a26.9824 26.9824 0 0 0-26.9824-26.9824H453.5808a26.9824 26.9824 0 0 0-26.9824 26.9824v32.6144H391.168v-32.6144c0-34.4576 28.0064-62.4128 62.4128-62.4128h118.016c16.384 0 32.0512 6.5024 43.776 18.3296 11.776 11.7248 18.3296 27.5456 18.2784 44.1344v32.6144c0-0.0512-35.4816-0.0512-35.4816-0.0512z" fill="#FFFFFF" p-id="2879"></path><path d="M599.4496 600.9856h-59.5968v-59.5968H480.3072v59.5968H423.8336v59.5968h59.5968v59.5968h59.5968v-59.5968h59.5968v-59.5968h-3.1744z" fill="#FFFFFF" p-id="2880"></path><path d="M908.2368 982.7328H110.592c-44.032 0-79.7696-35.6352-79.872-79.6672V459.776c0-23.3984 10.2912-45.6704 28.2112-60.7232L457.728 61.4912a79.77472 79.77472 0 0 1 103.3728 0l398.7968 337.4592a79.4112 79.4112 0 0 1 28.2112 60.7744v443.2896c-0.1536 44.0832-35.84 79.6672-79.872 79.7184z m14.8992-523.008c0-4.4032-1.9456-8.5504-5.2736-11.3664l-398.7968-337.4592c-5.5808-4.7616-13.824-4.7616-19.4048 0L100.9152 448.3584a14.7968 14.7968 0 0 0-5.2736 11.3664v443.2896c0 8.2432 6.7072 14.9504 15.0016 14.9504h797.5936c8.2432 0 14.9504-6.7072 15.0016-14.9504V459.7248h-0.1024z" fill="#FFFFFF" p-id="2881"></path></svg>