<svg t="1648025789266" class="icon" viewBox="0 0 1024 1024" version="1.1" xmlns="http://www.w3.org/2000/svg" p-id="6213" width="200" height="200"><path d="M648.192 427.008h1.024c35.328-0.512 73.728-0.512 111.104-1.024 52.736-0.512 102.4-0.512 141.312-1.536 30.208-0.512 54.272-26.112 53.76-56.32 0-5.632-1.024-11.264-3.072-16.896-47.616-133.12-152.576-237.568-285.696-285.184-28.672-9.728-59.904 5.12-70.144 33.792-2.048 5.632-3.072 11.776-3.072 17.92v253.44c0 31.232 24.576 55.808 54.784 55.808z m15.36-286.208c96.768 40.448 173.568 117.248 214.528 214.016-34.304 0.512-75.264 1.024-118.272 1.024-32.256 0-65.024 0.512-96.256 0.512V140.8zM962.56 488.448c-10.24-10.752-25.088-16.896-39.936-16.896h-371.2c-2.56 0-4.608-2.048-4.608-4.608-0.512-56.832 0-134.656 0-217.6 0-50.176 0-101.888 0.512-153.088 0-30.208-24.576-54.784-54.784-55.296h-3.072C232.96 53.76 34.816 271.872 46.592 528.384c10.752 238.08 205.824 432.64 443.904 443.904 7.168 0.512 14.336 0.512 21.504 0.512 248.832-0.512 453.632-195.072 465.92-443.392 0.512-15.36-4.608-29.696-15.36-40.96z m-845.824 36.864c-9.728-211.968 148.992-393.728 360.448-413.184 0 45.568 0 92.16-0.512 136.704 0 82.944-0.512 161.28 0 218.112 0 5.632 0.512 11.264 2.048 16.896l-263.168 283.648c-59.392-67.072-94.208-152.576-98.816-242.176z m376.832 376.832c-82.944-4.096-162.304-34.304-226.816-86.016l259.072-279.04c8.192 3.072 17.408 4.608 26.112 4.608h354.816c-19.456 211.456-201.216 370.176-413.184 360.448z" fill="#FFFFFF" p-id="6214"></path></svg>