<?xml version="1.0" standalone="no"?><!DOCTYPE svg PUBLIC "-//W3C//DTD SVG 1.1//EN" "http://www.w3.org/Graphics/SVG/1.1/DTD/svg11.dtd"><svg t="1650707139953" class="icon" viewBox="0 0 1024 1024" version="1.1" xmlns="http://www.w3.org/2000/svg" p-id="5585" xmlns:xlink="http://www.w3.org/1999/xlink" width="200" height="200"><defs><style type="text/css">@font-face { font-family: feedback-iconfont; src: url("//at.alicdn.com/t/font_1031158_u69w8yhxdu.woff2?t=1630033759944") format("woff2"), url("//at.alicdn.com/t/font_1031158_u69w8yhxdu.woff?t=1630033759944") format("woff"), url("//at.alicdn.com/t/font_1031158_u69w8yhxdu.ttf?t=1630033759944") format("truetype"); }
</style></defs><path d="M819.712 252.416h-168.448c-18.432 0-35.84 3.584-51.712 10.24-6.144 2.56-13.312-1.536-13.312-8.704v-19.456c0-77.824-63.488-141.312-141.312-141.312H197.632C119.808 93.184 56.32 156.672 56.32 234.496v622.592c0 52.736 42.496 95.232 95.232 95.232h348.672c15.872 0 30.72-4.096 43.52-11.776 3.072-1.536 6.656-1.536 9.216 0 11.776 7.168 25.6 11.776 40.448 11.776h283.648c47.616 0 86.016-38.4 86.016-86.016v-471.04c0-78.848-64.512-142.848-143.36-142.848zM491.008 883.2H151.552c-14.336 0-26.112-11.776-26.112-26.112V234.496c0-39.936 32.256-71.68 71.68-71.68h247.296c39.936 0 71.68 32.256 71.68 71.68v622.592c1.024 14.336-10.752 26.112-25.088 26.112z m402.944-16.384c0 9.216-7.168 16.384-16.384 16.384h-274.432c-9.216 0-16.384-7.168-16.384-16.384v-471.04c0-40.96 33.28-74.24 74.24-74.24h158.72c40.96 0 74.24 33.28 74.24 74.24v471.04z" fill="#FFFFFF" p-id="5586"></path><path d="M386.048 636.416H258.56c-18.432 0-34.816 13.312-36.352 31.232-2.048 20.48 14.336 37.888 34.304 37.888H384c18.432 0 34.816-13.312 36.352-31.232 2.048-20.48-14.336-37.888-34.304-37.888z m0-166.912H258.56c-18.432 0-34.816 13.312-36.352 31.232-2.048 20.48 14.336 37.888 34.304 37.888H384c18.432 0 34.816-13.312 36.352-31.232 2.048-20.48-14.336-37.888-34.304-37.888z m418.304 166.912h-126.976c-18.432 0-34.816 13.312-36.352 31.232-2.048 20.48 14.336 37.888 34.304 37.888h126.976c18.432 0 34.816-13.312 36.352-31.232 2.048-20.48-13.824-37.888-34.304-37.888z m0-166.912h-126.976c-18.432 0-34.816 13.312-36.352 31.232-2.048 20.48 14.336 37.888 34.304 37.888h126.976c18.432 0 34.816-13.312 36.352-31.232 2.048-20.48-13.824-37.888-34.304-37.888zM386.048 302.08H258.56c-18.432 0-34.816 13.312-36.352 31.232-2.048 20.48 14.336 37.888 34.304 37.888H384c18.432 0 34.816-13.312 36.352-31.232 2.048-20.48-14.336-37.888-34.304-37.888z" fill="#FFFFFF" p-id="5587"></path></svg>