<?xml version="1.0" standalone="no"?><!DOCTYPE svg PUBLIC "-//W3C//DTD SVG 1.1//EN" "http://www.w3.org/Graphics/SVG/1.1/DTD/svg11.dtd"><svg t="1650709208241" class="icon" viewBox="0 0 1024 1024" version="1.1" xmlns="http://www.w3.org/2000/svg" p-id="4606" xmlns:xlink="http://www.w3.org/1999/xlink" width="200" height="200"><defs><style type="text/css">@font-face { font-family: feedback-iconfont; src: url("//at.alicdn.com/t/font_1031158_u69w8yhxdu.woff2?t=1630033759944") format("woff2"), url("//at.alicdn.com/t/font_1031158_u69w8yhxdu.woff?t=1630033759944") format("woff"), url("//at.alicdn.com/t/font_1031158_u69w8yhxdu.ttf?t=1630033759944") format("truetype"); }
</style></defs><path d="M960 176.128c0-70.656-57.344-128-128-128h-640c-70.656 0-128 57.344-128 128v640c0 7.68 3.584 15.36 8.704 20.992l130.048 130.048c8.704 8.704 22.528 11.776 33.792 6.656 5.12-1.536 9.728-4.096 13.824-8.192l119.296-119.296 120.832 120.832c8.704 8.704 22.528 11.776 33.792 6.656 5.12-1.536 9.728-4.096 13.824-8.192l119.296-119.296 120.832 120.832c8.704 8.704 22.528 11.776 33.792 6.656 5.12-1.536 9.728-4.096 13.824-8.192l122.88-122.88c7.168-7.168 10.24-16.896 9.728-26.624h1.024v-640z m-305.152 613.376c-13.312-8.704-31.232-7.168-42.496 4.096l-103.424 103.424-103.936-103.936c-10.24-10.24-26.112-11.776-37.888-4.096-13.312-8.704-31.232-7.168-42.496 4.096l-103.424 103.424-93.184-92.16V176.128c0-35.328 28.672-64 64-64h640c35.328 0 64 28.672 64 64v621.568l-99.328 99.328-103.936-103.936c-9.728-9.728-25.6-11.776-37.888-3.584z" fill="#FFFFFF" p-id="4607"></path><path d="M757.248 281.6c-13.824-13.824-35.328-13.824-49.152 0l-260.096 260.096L315.904 409.6c-13.824-13.312-35.84-12.288-49.152 1.536-12.288 13.312-12.288 34.304 0 47.616l154.624 154.624c7.168 7.168 16.896 10.752 26.624 9.728 9.728 1.024 19.456-2.56 26.624-9.728l282.624-282.624c13.824-13.824 13.824-35.328 0-49.152z" fill="#FFFFFF" p-id="4608"></path></svg>