<?xml version="1.0" standalone="no"?><!DOCTYPE svg PUBLIC "-//W3C//DTD SVG 1.1//EN" "http://www.w3.org/Graphics/SVG/1.1/DTD/svg11.dtd"><svg t="1650707122233" class="icon" viewBox="0 0 1024 1024" version="1.1" xmlns="http://www.w3.org/2000/svg" p-id="5195" xmlns:xlink="http://www.w3.org/1999/xlink" width="200" height="200"><defs><style type="text/css">@font-face { font-family: feedback-iconfont; src: url("//at.alicdn.com/t/font_1031158_u69w8yhxdu.woff2?t=1630033759944") format("woff2"), url("//at.alicdn.com/t/font_1031158_u69w8yhxdu.woff?t=1630033759944") format("woff"), url("//at.alicdn.com/t/font_1031158_u69w8yhxdu.ttf?t=1630033759944") format("truetype"); }
</style></defs><path d="M829.44 38.4c53.248 0 97.28 43.52 97.28 97.28v756.224c0 53.76-43.52 96.768-97.28 97.28H179.2c-53.76 0-96.768-43.52-97.28-97.28V135.68c0-53.248 43.52-97.28 97.28-97.28h650.24z m0 76.8H179.2c-11.264 0-19.968 9.216-19.968 19.968v756.224c0 11.264 9.216 19.968 19.968 19.968h650.24c11.264 0 19.968-9.216 19.968-19.968V135.68c0.512-11.264-8.704-20.48-19.968-20.48z m-59.904 625.152c18.432 0 33.28 14.848 33.28 33.28s-14.848 33.28-33.28 33.28H239.104c-18.432 0-33.28-14.848-33.28-33.28s14.848-33.28 33.28-33.28h530.432z m0-158.208c18.432 0 33.28 14.848 33.28 33.28s-14.848 33.28-33.28 33.28h-99.328c-18.432 0-33.28-14.848-33.28-33.28s14.848-33.28 33.28-33.28h99.328z m-302.08-350.72c2.56 0 5.632 0.512 8.192 1.536 20.48 7.68 39.424 18.944 55.808 32.768 4.096 3.584 6.656 8.192 8.192 13.312l0.512 4.096v5.12l-2.56 20.992c-2.048 16.896 5.632 33.792 18.432 44.032l5.12 3.584 5.12 2.56 19.456 8.192c7.68 3.072 13.312 9.728 14.336 17.92 3.584 21.504 3.584 43.52 0 65.024-1.024 5.12-3.584 10.24-7.68 13.824l-3.072 2.56-3.584 2.048-19.456 8.704c-15.872 7.168-26.624 21.504-28.672 37.888l-0.512 6.144 0.512 5.632 2.56 20.992c1.024 8.192-2.048 16.896-8.704 22.016-16.896 13.824-35.328 25.088-55.808 32.768-5.12 1.536-10.752 2.048-15.872 0l-3.584-1.536-3.584-2.048-18.944-13.824c-13.312-9.728-31.232-11.776-46.592-6.144l-5.632 2.56-5.12 3.584-19.456 13.824c-4.096 3.072-9.728 4.608-14.848 4.608-2.56 0-5.632-0.512-8.192-1.536-20.48-7.68-38.912-18.944-55.808-32.768-4.096-3.584-7.168-8.192-8.192-13.312l-0.512-4.096v-5.12l2.048-19.968c2.048-16.896-5.12-33.792-18.432-44.032l-5.12-3.584-5.12-2.56-19.456-8.192c-7.68-3.072-13.312-10.24-14.848-18.432-3.584-21.504-3.584-43.52 0-65.024 1.024-5.12 3.584-10.24 7.68-13.824l3.072-2.56 3.584-2.048 19.456-8.192c15.36-6.656 26.624-21.504 28.672-37.888l0.512-6.144v-5.632l-2.048-20.992c-1.024-8.192 2.048-16.896 8.704-22.016 14.336-11.776 30.208-21.504 47.104-29.184 8.192-3.584 17.92-4.096 26.624-1.536l5.12 2.048 5.12 3.072 13.824 10.24c13.312 9.728 31.232 11.776 46.592 6.144l5.632-2.56 5.12-3.584 19.456-13.824c4.096-3.584 9.216-5.632 14.848-5.632z m-4.096 50.176l-8.192 6.656c-24.576 20.48-59.392 24.064-87.552 8.704l-6.656-4.096-6.656-4.608-8.192-6.656-6.656 4.096-6.656 4.096-6.144 4.608 1.024 9.728c3.584 35.84-11.264 70.656-37.888 90.112l-6.144 4.096-6.656 3.584-7.168 3.584-0.512 6.656v12.288l0.512 6.656 7.168 3.584c30.208 14.848 49.664 46.592 51.712 81.92v7.68l-0.512 8.192-1.024 9.728 6.144 4.608 6.656 4.096 6.656 4.096 8.192-6.656c24.576-20.48 59.392-24.064 88.064-8.704l6.656 4.096 6.656 4.608 8.192 6.656 6.656-4.096 6.656-4.096 6.656-4.608-1.024-9.728c-3.584-35.84 11.264-70.656 37.888-90.112l6.144-4.096 6.656-3.584 7.168-3.584 0.512-6.656v-12.288l-0.512-6.656-7.168-3.584c-30.208-14.336-49.664-46.08-51.712-81.92V312.32l0.512-8.192 1.024-9.728c-6.656-4.608-13.312-8.704-20.48-12.8z m306.176 142.336c18.432 0 33.28 14.848 33.28 33.28s-14.848 33.28-33.28 33.28h-99.328c-18.432 0-33.28-14.848-33.28-33.28s14.848-33.28 33.28-33.28h99.328zM404.48 348.16c38.912 0 70.144 31.232 70.144 70.144S443.392 488.448 404.48 488.448c-38.4 0-70.144-31.232-70.144-70.144C334.336 379.904 365.568 348.16 404.48 348.16z m0 47.104c-12.8 0-23.552 10.24-23.04 23.552s10.24 23.552 23.552 23.04c12.8 0 23.552-10.24 23.552-23.552s-11.264-23.04-24.064-23.04z m365.056-129.536c18.432 0 33.28 14.848 33.28 33.28s-14.848 33.28-33.28 33.28h-99.328c-18.432 0-33.28-14.848-33.28-33.28s14.848-33.28 33.28-33.28h99.328z" fill="#FFFFFF" p-id="5196"></path></svg>