<?xml version="1.0" standalone="no"?><!DOCTYPE svg PUBLIC "-//W3C//DTD SVG 1.1//EN" "http://www.w3.org/Graphics/SVG/1.1/DTD/svg11.dtd"><svg t="1650703469686" class="icon" viewBox="0 0 1024 1024" version="1.1" xmlns="http://www.w3.org/2000/svg" p-id="4502" xmlns:xlink="http://www.w3.org/1999/xlink" width="200" height="200"><defs><style type="text/css">@font-face { font-family: feedback-iconfont; src: url("//at.alicdn.com/t/font_1031158_u69w8yhxdu.woff2?t=1630033759944") format("woff2"), url("//at.alicdn.com/t/font_1031158_u69w8yhxdu.woff?t=1630033759944") format("woff"), url("//at.alicdn.com/t/font_1031158_u69w8yhxdu.ttf?t=1630033759944") format("truetype"); }
</style></defs><path d="M859.136 912.896H165.888c-72.192 0-130.56-59.392-130.56-132.608V316.928C35.328 243.712 93.696 184.32 165.888 184.32h693.76c72.192 0 130.56 59.392 130.56 132.608v463.36c0 73.216-58.88 132.608-131.072 132.608zM165.888 256c-33.28 0-60.416 27.136-60.416 60.928v463.36c0 33.792 27.136 60.928 60.416 60.928h693.76c33.28 0 60.416-27.136 60.416-60.928V316.928c0-33.792-27.136-60.928-60.416-60.928H165.888z" fill="#FFFFFF" p-id="4503"></path><path d="M693.248 249.856c-19.456 0-35.328-16.384-35.328-35.84v-50.688c0-8.192-6.656-14.336-14.336-14.848H381.952c-8.192 0-14.336 6.656-14.336 14.848v50.688c0 19.968-15.872 35.84-35.328 35.84-19.456 0-35.328-16.384-35.328-35.84v-50.688C296.96 115.712 335.36 76.8 381.952 76.8h261.632c47.104 0 84.992 38.912 84.992 86.528v50.688c0 19.456-15.872 35.328-35.328 35.84z m-299.52 294.912H80.384c-19.456 0-35.328-16.384-35.328-35.84s15.872-35.84 35.328-35.84h312.832c19.456 0 35.328 15.872 35.328 35.84 0 19.456-15.36 35.84-34.816 35.84z m546.304 0h-312.832c-19.456 0-35.328-16.384-35.328-35.84s15.872-35.84 35.328-35.84h312.832c19.456 0 35.328 15.872 35.328 35.84 0 19.456-15.872 35.84-35.328 35.84z" fill="#FFFFFF" p-id="4504"></path><path d="M512.512 641.536c-77.824 0-141.312-64-141.312-143.36s63.488-143.36 141.312-143.36 141.312 64 141.312 143.36c0 78.848-63.488 143.36-141.312 143.36z m0-215.04c-38.912 0-70.656 32.256-70.656 71.68s31.744 71.68 70.656 71.68c38.912 0 70.656-32.256 70.656-71.68s-31.744-71.68-70.656-71.68z" fill="#FFFFFF" p-id="4505"></path></svg>