<svg t="1648023920852" class="icon" viewBox="0 0 1024 1024" version="1.1" xmlns="http://www.w3.org/2000/svg" p-id="5687" width="200" height="200"><path d="M461.312 512c111.616 0 202.24-90.624 202.24-202.24S572.928 107.52 461.312 107.52 259.072 198.144 259.072 309.76 349.696 512 461.312 512z m0 50.688c-139.776 0-252.928-113.152-252.928-252.928s113.152-252.928 252.928-252.928 252.928 113.152 252.928 252.928-113.152 252.928-252.928 252.928z" fill="#FFFFFF" p-id="5688"></path><path d="M589.312 532.48c-40.96-13.824-84.48-20.48-127.488-20.48-223.232 0-404.48 181.248-404.48 404.48 0 13.824 11.264 25.088 25.088 25.088s25.088-11.264 25.088-25.088c0-195.584 158.72-353.792 353.792-353.792 37.888 0 75.776 6.144 111.616 17.92 13.312 4.096 27.648-3.584 31.232-16.896 4.096-12.8-2.56-26.624-14.848-31.232z m175.616 434.688c111.616 0 202.24-90.624 202.24-202.24s-90.624-202.24-202.24-202.24-202.24 90.624-202.24 202.24 90.624 202.24 202.24 202.24z m0-50.688c-83.968 0-151.552-68.096-151.552-151.552s68.096-151.552 151.552-151.552S916.48 680.96 916.48 764.928 848.384 916.48 764.928 916.48z" fill="#FFFFFF" p-id="5689"></path><path d="M739.328 663.552c16.896 0 25.088 8.192 25.088 25.088v101.376c0 16.896-8.192 25.088-25.088 25.088-16.896 0-25.088-8.192-25.088-25.088v-101.376c0-16.384 8.704-25.088 25.088-25.088z" fill="#FFFFFF" p-id="5690"></path><path d="M714.24 790.016c0-16.896 8.192-25.088 25.088-25.088h101.376c16.896 0 25.088 8.192 25.088 25.088 0 16.896-8.192 25.088-25.088 25.088h-101.376c-16.384 0.512-25.088-8.192-25.088-25.088z" fill="#FFFFFF" p-id="5691"></path></svg>