<svg t="1648023945151" class="icon" viewBox="0 0 1024 1024" version="1.1" xmlns="http://www.w3.org/2000/svg" p-id="5820" width="200" height="200"><path d="M608.256 57.856v2.56l2.56-2.56h-2.56m-30.72 5.12v2.56l2.56-2.56h-2.56m137.216 0h2.56-2.56M456.192 119.808h2.56v-2.56l-2.56 2.56m385.024 5.12h-2.56 2.56M386.048 197.632c-2.56 2.56-2.56 2.56 0 0l2.56-2.56-2.56 2.56m-5.12 17.92h2.56-2.56m560.64 79.872l5.12 5.12-2.56-2.56-2.56-2.56m10.24 65.024v-5.12 5.12m-550.4-5.12h2.56-2.56m211.968 35.84l2.56 5.12v-2.56h-2.56v-2.56m-138.752 10.24l2.56 5.12v-2.56h-2.56v-2.56M283.136 409.6c-2.56 2.56-2.56 2.56 0 0l2.56-5.12-2.56 5.12m594.432 5.12v2.56l2.56-2.56c-2.56 0 0 0 0 0h-2.56m-41.472 87.552v2.56l2.56-2.56h-2.56m46.592 49.152v5.12l2.56-5.12h-2.56m-175.616 38.912v2.56l2.56-2.56h-2.56m46.08 56.832l-2.56 2.56 5.12-5.12-2.56 2.56m-61.44 12.8v5.12l2.56-2.56-2.56-2.56m-248.32 12.8c-2.56 2.56-2.56 2.56 0 0l2.56-2.56-2.56 2.56m-23.04 31.232h2.56v-2.56l-2.56 2.56m-168.448 15.36v2.56l2.56-2.56h-2.56m-20.48 10.24c-2.56 2.56-2.56 2.56 0 0l2.56-2.56-2.56 2.56m-34.304 15.872h2.56v-2.56l-2.56 2.56m36.864 54.272v2.56l2.56-2.56h-2.56m-193.536 33.28v2.56l2.56-2.56h-2.56m108.032 7.68v5.12l2.56-2.56-2.56-2.56m566.272 49.152v0m-589.312-38.4v2.56l2.56-2.56h-2.56M701.952 130.048l2.56 2.56v-2.56s-2.56 0 0 0l-2.56-2.56v2.56m-279.04 20.992v2.56h-2.56l5.12-5.12-2.56 2.56m408.064 61.952l2.56 2.56v-2.56s-2.56 0 0 0l-2.56-2.56v2.56M363.008 290.304c0-2.56 0-2.56 0 0m134.656 41.472l2.56 2.56h2.56l-2.56-2.56h-2.56m-261.12 26.112v2.56h-2.56l5.12-5.12-2.56 2.56M283.136 409.6v-2.56 2.56m271.36 20.48l2.56 2.56h2.56l-2.56-2.56h-2.56m183.296 150.016v2.56h-2.56l5.12-5.12-2.56 2.56" fill="#FFFFFF" p-id="5821"></path><path d="M605.696 57.856h2.56v-2.56l-2.56 2.56m-28.16 5.12l-2.56 2.56h2.56l2.56-2.56v-2.56l-2.56 2.56m139.776 0h2.56l-2.56-2.56v2.56m17.92 5.12l5.12 2.56-2.56-2.56h-2.56m-208.896 10.24h2.56-2.56m-57.344 28.672v5.12-2.56l2.56-2.56h-2.56m206.336 15.36v2.56h2.56l-2.56-2.56m165.888 2.56h2.56l-2.56-2.56v2.56m-284.16 15.872c-2.56 2.56-2.56 2.56 0 0V138.24v2.56m175.616-3.072l2.56 2.56v-2.56h-2.56m38.4 20.992l5.12 5.12-2.56-2.56-2.56-2.56m-359.424 5.12h2.56v-2.56l-2.56 2.56m383.488 10.24l2.56 2.56-2.56-2.56m-165.888 23.552l-2.56 2.56h2.56l2.56-2.56v-2.56l-2.56 2.56m35.84 5.12c-2.56-2.56-2.56-2.56 0 0m-284.16 2.56h2.56v-2.56l-2.56 2.56m524.8 0h2.56v-2.56l-2.56 2.56m-444.416 2.56v5.12l2.56-5.12v-2.56l-2.56 2.56m364.544-2.56l2.56 2.56v-2.56h-2.56m-155.648 2.56c-2.56-2.56-2.56-2.56 0 0m-291.84 7.68l5.12 5.12v-2.56l-2.56-2.56h-2.56m545.28 17.92l2.56 2.56-5.12-5.12 2.56 2.56m-71.68 7.68l2.56 2.56-2.56-2.56m81.92 18.432c-2.56-2.56-2.56-2.56 0 0m-66.56 12.8v2.56h2.56l-2.56-2.56m-507.392 17.92v2.56l2.56-2.56h-2.56m581.632 2.56l2.56 2.56 2.56 2.56-2.56-2.56-2.56-2.56m-612.352 5.12h2.56v-2.56l-2.56 2.56m116.736 5.632h2.56v-2.56l-2.56 2.56m-173.056 17.92v2.56l2.56-2.56h-2.56m609.792 12.8l2.56 2.56-2.56-2.56m69.12 10.24s0 2.56 0 0v-2.56 2.56m-552.96 10.752l5.12 5.12v-2.56l-2.56-2.56h-2.56m-167.424 10.24h2.56v-2.56l-2.56 2.56m97.792 2.56v2.56l2.56-2.56h-2.56m622.592 7.68v-2.56 2.56m-503.296 0l2.56 2.56-2.56-2.56m93.184 7.68l2.56 2.56-5.12-5.12 2.56 2.56m2.56 10.24l2.56 2.56h2.56l-5.12-2.56m-333.312 10.24l-2.56 2.56h2.56l2.56-2.56v-2.56l-2.56 2.56m423.424 2.56l2.56 2.56-2.56-2.56m243.2 8.192l-2.56 2.56h2.56l2.56-2.56v-2.56l-2.56 2.56M278.016 419.84v2.56l2.56-7.68-2.56 5.12m663.552 23.04l-2.56 2.56 2.56-2.56c0-2.56 0-2.56 0 0m-74.24 5.12h2.56V445.44l-2.56 2.56m61.44 26.112v2.56l2.56-5.12-2.56 2.56m-82.432 12.8h2.56-2.56m-12.8 15.36h2.56v-2.56l-2.56 2.56m72.192 15.872h2.56v-2.56l-2.56 2.56m-183.296 67.072l-2.56 2.56h2.56l2.56-2.56v-2.56l-2.56 2.56m-17.92 5.12h2.56v-2.56l-2.56 2.56m-147.456 36.352v2.56l2.56-7.68-2.56 5.12m-82.432 0l-2.56 2.56h2.56l2.56-2.56v-2.56l-2.56 2.56m-188.928 0l2.56 2.56 2.56 2.56-2.56-2.56-2.56-2.56m503.296 5.12c-2.56 0-2.56 0 0 0l2.56-2.56-2.56 2.56m-12.8 5.12h2.56v-2.56l-2.56 2.56m-10.24 2.56v2.56l2.56-2.56h-2.56m-544.768 10.24l2.56 2.56-2.56-2.56m305.152 23.04v2.56l2.56-2.56h-2.56m-202.24 5.12c-2.56-2.56-2.56-2.56 0 0M244.224 686.08l5.12 5.12-2.56-2.56-2.56-2.56m183.808 5.12v5.12-2.56l2.56-2.56h-2.56m-170.496 10.24l2.56 2.56v-2.56h-2.56m160.256 7.68v2.56l2.56-2.56h-2.56m-155.136 5.12l-2.56 2.56h2.56l2.56-2.56v-2.56l-2.56 2.56m235.008-2.56l2.56 2.56 2.56 2.56-2.56-2.56-2.56-2.56m-248.32 7.68h2.56v-2.56l-2.56 2.56m258.56-2.56l2.56 2.56 2.56 2.56-2.56-2.56-2.56-2.56m10.24 5.12l2.56 2.56 2.56 2.56-2.56-2.56-2.56-2.56m10.752 5.12l2.56 2.56 2.56 2.56-2.56-2.56-2.56-2.56m10.24 5.12l2.56 2.56 2.56 2.56-2.56-2.56-2.56-2.56m12.8 8.192c-2.56-2.56-2.56-2.56 0 0m10.24 5.12c-2.56-2.56-2.56-2.56 0 0m-141.824 2.56l5.12 5.12-2.56-2.56-2.56-2.56m152.064 2.56c-2.56-2.56-2.56-2.56 0 0m10.24 5.12c-2.56-2.56-2.56-2.56 0 0m10.24 5.12c-2.56-2.56-2.56-2.56 0 0m-429.056 0v2.56l2.56-2.56H163.84m-10.24 2.56v5.12-2.56l2.56-2.56H153.6m449.536 2.56l2.56 2.56-5.12-5.12 2.56 2.56m10.24 5.12l2.56 2.56-5.12-5.12 2.56 2.56m10.752 5.12l2.56 2.56-5.12-5.12 2.56 2.56m10.24 5.12l2.56 2.56-5.12-5.12 2.56 2.56m10.24 5.12l2.56 2.56-5.12-5.12 2.56 2.56m10.24 5.632c-2.56-2.56-2.56-2.56 0 0m10.24 5.12c-2.56-2.56-2.56-2.56 0 0m-428.544 5.12v2.56l2.56-5.12-2.56 2.56m438.784 0c-2.56-2.56-2.56-2.56 0 0m-451.584 5.12h2.56v-2.56l-2.56 2.56m462.848 0c-3.584-2.56-3.584-2.56 0 0m10.24 5.12c-2.56-2.56-2.56-2.56 0 0m-641.024 2.56h2.56v-2.56l-2.56 2.56m-17.92 17.92h2.56v-2.56l-2.56 2.56m90.112 20.992v2.56l2.56-5.12-2.56 2.56M37.888 944.128l5.12 5.12-2.56-2.56-2.56-2.56m7.68 10.752l2.56 2.56v-2.56h-2.56m5.12 5.12l2.56 2.56v-2.56h-2.56M677.888 287.744v56.832-56.832m-118.272 248.32v0m320.512 17.92h2.56v-2.56l-2.56 2.56m-7.68 10.24v2.56l2.56-2.56v-2.56l-2.56 2.56m-165.376 26.112l2.56 2.56v-5.12l-2.56 2.56m7.68 67.072l2.56 2.56v-2.56h-2.56m-25.6 2.56v2.56l2.56-2.56h-2.56M40.448 833.024l2.56 2.56v-2.56h-2.56m105.472 7.68v2.56c0 2.56 0 2.56 0 0l2.56-2.56h-2.56m-40.96 41.472v0" fill="#FFFFFF" p-id="5822"></path><path d="M610.816 57.856v2.56h-15.36l-15.36 2.56h-2.56v2.56h-8.192l-10.24 2.56h-2.56l-7.68 2.56c-5.12 0-10.24 2.56-7.68 5.12h-5.12l-7.68 2.56-5.12 2.56-5.12 2.56h-2.56l-7.68 2.56-5.12 5.12c2.56 0 0 0 0 0l-5.12 2.56-5.12 2.56-5.12 2.56v2.56h-2.56l-5.12 2.56-5.12 2.56-2.56 5.12h-2.56l-5.12 2.56-5.12 5.12-2.56 2.56-5.12 2.56-2.56 2.56-2.56 2.56-5.12 5.12v2.56h-2.56l-2.56 2.56v3.584h-5.12l-2.56 2.56-5.12 7.68-7.68 7.68-4.096 2.56-2.56 2.56-2.56 2.56-2.56 2.56v2.56l-5.12 5.12-2.56 2.56-2.56 5.12v2.56h-2.56l-2.56 5.12v2.56l-5.12 5.12-2.56 2.56v10.24l2.56 2.56 2.56 2.56h2.56l5.12 5.12h2.56l2.56 2.56 2.56 2.56 2.56 2.56 5.12 2.56 2.56 2.56 5.12 2.56 2.56 2.56 10.24 2.56 5.12-2.56 2.56-2.56h2.56l2.56-7.68 2.56-2.56 2.56-5.12 2.56-5.12h2.56l2.56-2.56 2.56-2.56 2.56-5.12 2.56-5.12 2.56-2.56 2.56-2.56 2.56-2.56 2.56-2.56 2.56-2.56 2.56-2.56 2.56-2.56 2.56-2.56 2.56-2.56 2.56-2.56h2.56l2.56-2.56V174.08h-2.56 5.12l5.12-5.12h2.56l2.56-2.56c0-2.56 2.56-5.12 5.12-2.56v-2.56l5.12-2.56 2.56-2.56 5.12-2.56c5.12 0 7.68-2.56 7.68-5.12h5.12l5.12-2.56 5.12-2.56 5.12-2.56 5.12-2.56 7.68-2.56 10.24-2.56 7.68-2.56 7.68-2.56 12.8-2.56h2.56V122.88c24.064-1.024 48.128-0.512 72.192 2.56v2.56c7.68-2.56 20.48 0 23.04 2.56l7.68 2.56h7.68l10.24 5.12 5.12 2.56 7.68 2.56h2.56c0 2.56 2.56 5.12 7.68 5.12 2.56 0 5.12 0 2.56 2.56h2.56v2.56h5.12l2.56 2.56 5.12 2.56h2.56l2.56 2.56 2.56 2.56 2.56 2.56h2.56l2.56 2.56 2.56 2.56 5.12 2.56 2.56 2.56 6.144 2.56 2.56 2.56 2.56 2.56 2.56 2.56 2.56 2.56 2.56 2.56 2.56 2.56h2.56l2.56 5.12 2.56 2.56 2.56 2.56 2.56 2.56 2.56 2.56 2.56 5.12v2.56h2.56l2.56 5.12 2.56 2.56 2.56 2.56 2.56 5.12 2.56 5.12 2.56 2.56 2.56 2.56c0.512 2.048 1.536 3.584 2.56 5.12v2.56l2.56 5.12 2.56 5.12 2.56 7.68 2.56 2.56 2.56 5.12 2.56 10.24 2.56 7.68 2.56 7.68v2.56l2.56 2.56v10.24l2.56 10.24v5.12c5.12 0 5.12 51.712 0 54.272v2.56l-2.56 2.56v20.48h-2.56v2.56l-2.56 10.24v5.12c-2.56 0-5.12 2.56-5.12 10.24v5.12c-2.56 0-5.12 2.56-5.12 7.68l-2.56 5.12-2.56 5.12v5.12h-2.56v2.56l-2.56 2.56-2.56 2.56-2.56 5.12-2.56 5.12-2.56 2.56v2.56l-5.12 5.12v2.56l-2.56 2.56-2.56 2.56-2.56 2.56-2.56 2.56-2.56 2.56-2.56 2.56-2.56 2.56-2.56 2.56v2.56l-5.12 2.56v2.56h-2.56v2.56l-2.56 2.56c2.56 0 0 0 0 0l-5.12 2.56-2.56 2.56-2.56 2.56-2.56 2.56-2.56 2.56-2.56 2.56-5.12 5.12h-2.56l-5.12 2.56-2.56 2.56c-2.048 0.512-3.584 1.536-5.12 2.56h-2.56l-2.56 2.56-2.56 2.56-5.12 2.56-5.12 2.56-5.12 2.56-5.12 2.56-2.56 2.56h-5.12c-5.12 0-7.68 2.56-7.68 5.12h-7.68l-7.68 2.56-7.68 2.56c-29.184 2.048-58.88 4.608-88.064 7.68l-2.56 61.952 2.56 2.56h74.752v-2.56l12.8-2.56 15.36-2.56 10.24-2.56c10.24 0 12.8 0 12.8-5.12h5.12l7.68-2.56c2.56-2.56 2.56-2.56 0 0h-2.56l10.24-2.56 5.12-2.56 5.12-2.56c5.12 0 5.12 0 5.12-5.12h5.12l5.12-2.56 5.12-2.56 5.12-2.56 5.12-2.56 5.12-5.12h2.56l2.56-2.56 2.56-2.56c5.12 0 7.68-2.56 7.68-5.12l5.12-5.12h2.56c2.56 0 7.68-2.56 5.12-5.12h2.56l5.12-2.56 2.56-2.56 2.56-2.56 2.56-2.56 2.56-2.56 2.56-2.56 2.56-5.12h2.56l2.56-2.56 2.56-2.56 2.56-2.56 7.68-10.24 2.56-5.12 2.56-2.56 2.56-2.56 2.56-2.56 2.56-2.56 2.56-5.12 2.56-5.12 2.56-2.56 2.56-2.56 2.56-2.56 2.56-5.12 2.56-5.12 2.56-2.56v-2.56l2.56-2.56c0 2.56 0 2.56 0 0 2.56 0 2.56 0 0 0v-2.56l2.56-5.12 2.56-2.56 2.56-7.68 2.56-2.56c2.56-2.56 2.56-2.56 0 0h-2.56l2.56-2.56 2.56-5.12c0-5.12 2.56-5.12 5.12-7.68v-2.56l2.56-7.68v-2.56l2.56-12.8 2.56-2.56 2.56-2.56 2.56-15.36v-2.56h-2.56 2.56l2.56-2.56c0.512-12.8 1.024-26.112 2.56-38.912v-44.032l-2.56-17.92-2.56-17.92-2.56-10.24-2.56-12.8c-2.56 2.56-2.56 0-2.56-2.56l-2.56-12.8-2.56-2.56-2.56-10.24-2.56-10.24-2.56-2.56-2.56-5.12-2.56-5.12-2.56-2.56-2.56-10.24-2.56-2.56-2.56-5.12-2.56-5.12-2.56-5.12h-2.56l-5.12-7.68v-5.12h-2.56V179.2c-2.56 2.56-2.56 0-2.56-2.56l-2.56-2.56-2.56-2.56-2.56-2.56c-2.56 0-2.56 0 0 0l-2.56-2.56-2.56-5.12V158.72l-5.12-2.56-2.56-2.56-2.56-5.12-2.56-2.56-2.56-2.56-2.56-2.56h-2.56l-2.56-2.56-2.56-2.56c2.56 0 2.56 0 0 0l-5.12-5.12-5.12-2.56-2.56-2.56V122.88c-2.56 2.56-5.12 0-5.12-2.56l-2.56-2.56h-2.56l-5.12-5.12-2.56-2.56h-2.56l-2.56-2.56-2.56-2.56-2.56-2.56h-2.56c0-2.56 0-2.56 0 0l-2.56-2.56-5.12-2.56-2.56-2.56-7.68-2.56-2.56-2.56-5.12-2.56-5.12-2.56h-2.56l-5.12-2.56h-5.12v-2.56h-2.56V76.8c-5.12 2.56-10.24 0-10.24-2.56h-2.56l-7.68-2.56h-5.12v-2.56l-10.24-2.56-10.24-2.56-12.8-2.56-15.36-2.56-2.56-2.56H650.24l-39.424 1.536m23.552 139.776l-2.56 2.56h-2.56l-7.68 2.56-2.56 2.56-2.56 2.56v2.56c-5.12 0-5.12 2.56-5.12 93.184 1.024 32.768 3.584 65.536 7.68 98.304l7.68 2.56c-2.56 2.56-2.56 2.56 0 0l5.12 2.56 5.12 2.56 2.56 2.56h147.456V409.6l5.12-2.56 5.12-2.56 2.56-2.56 2.56-5.12 2.56-2.56v-33.792c-2.56 2.56-2.56 0-2.56-2.56l-2.56-2.56-2.56-2.56-2.56-2.56-2.56-2.56-59.392-2.56h-54.272V287.744c-2.048-23.04-3.584-46.592-5.12-69.632l-2.56-7.68-2.56-2.56v-2.56l-5.12-2.56-5.12-2.56-2.56-2.56h-20.992m-266.24 92.672h-2.56v2.56h-17.92l-12.8 2.56-2.56 2.56h-5.12l-10.24 2.56-10.24 2.56-5.12 5.12h-3.584c-5.12 0-7.68 2.56-7.68 5.12h-2.56l-5.12 2.56-5.12 2.56-2.56 2.56-2.56 3.072-2.56 2.56c-2.56 0-2.56 0 0 0l-2.56 2.56-5.12 2.56h-2.56l-2.56 2.56-2.56 2.56-2.56 2.56-2.56 2.56v2.56l-2.56 2.56h-2.56l-2.56 5.12-2.56 2.56-2.56 2.56-2.56 5.12-2.56 2.56-2.56 2.56-2.56 5.12v2.56l-2.56 2.56v5.12l-5.12 5.12-2.56 2.56-2.56 7.68v7.68c-2.56-2.56-5.12 0-5.12 2.56 2.56 5.12 0 15.36-2.56 15.36s-2.56-2.56-2.56 103.424v98.304l2.56 2.56 2.56 2.56 2.56 2.56 2.56 2.56v2.56l5.12 5.12v2.56l2.56 2.56 2.56 7.68h2.56l2.56 5.12 2.56 2.56 2.56 2.56 2.56 5.12 2.56 5.12 2.56 2.56 2.56 2.56 2.56 2.56 2.56 5.12 2.56 2.56v2.56l2.56 2.56 2.56 4.096 2.56 2.56c0.512 2.048 1.536 3.584 2.56 5.12v2.56l2.56 2.56-7.68 2.56-2.56 2.56-5.12 2.56-5.12 2.56h-2.56l-2.56 2.56-5.12 2.56-2.56 2.56h-5.12l-2.56 2.56h-2.56l-7.68 2.56-5.12 2.56-2.56 2.56-5.12 2.56-7.68 2.56-5.12 2.56-5.12 2.56-5.12 2.56-5.12 2.56-5.12 2.56-5.12 2.56c-5.12 0-5.12 2.56-5.12 5.12h-5.12l-5.12 2.56-7.68 2.56-2.56 2.56h-2.56l-2.56 2.56-5.12 2.56h-2.56c2.56 0 2.56 0 0 0l-7.68 2.56-5.12 5.12h-7.68l-2.56 5.12h-2.56l-7.68 2.56-5.12 2.56-5.12 2.56-7.68 2.56-2.56 5.12h-2.56l-7.68 2.56-2.56 2.56c-5.12 0-7.68 2.56-7.68 5.12 0 0 0 2.56 0 0-2.56 0-5.12 2.56-5.12 10.24v5.12c-5.12 0-5.12-2.56-5.12 54.272v51.712l2.56 2.56 2.56 7.68 2.56 2.56 2.56 2.56 2.56 2.56 2.56 2.56 5.12 2.56 7.68 2.56c210.432 0.512 420.352-0.512 630.784-2.56l5.12-2.56c0-2.56 0-2.56 0 0h-2.56l5.12-2.56c2.56 0 5.12-2.56 5.12-7.68l2.56-2.56 2.56-2.56v-113.664l-2.56-2.56-2.56-2.56-2.56-5.12-2.56-5.12-10.24-5.12-2.56-2.56-7.68-2.56-2.56-2.56-7.68-2.56-2.56-2.56-7.68-2.56-2.56-2.56-7.68-2.56-5.12-2.56-5.12-2.56-5.12-2.56-5.12-2.56-5.12-2.56-5.12-2.56-2.56-2.56h-2.56l-5.12-2.56-2.56-2.56h-2.56l-5.12-2.56-2.56-2.56c-2.56 2.56-5.12 0-7.68-2.56l-2.56-2.56-7.68-2.56-5.12-2.56-5.12-2.56-5.12-2.56-5.12-2.56-5.12-2.56-5.12-2.56-5.12-2.56-5.12-2.56-5.12-2.56h-5.12l-5.12-5.12h-5.12l-5.12-5.12h-5.12l-5.12-5.12h-5.12v-5.12h2.56l2.56-5.12 2.56-5.12 2.56-2.56 2.56-5.12 2.56-5.12 2.56-2.56 2.56-2.56c1.536-3.584 3.584-6.656 5.12-10.24l2.56-2.56 2.56-2.56 2.56-2.56 2.56-5.12 2.56-5.12 2.56-2.56 2.56-2.56 2.56-2.56 2.56-5.12 2.56-7.68h2.56l2.56-5.12 2.56-5.12 2.56-2.56c-1.536-66.56-3.584-132.608-5.12-199.168l-2.56-10.24-6.144-3.072v-10.24l-2.56-2.56h-2.56l-2.56-10.24-2.56-5.12-2.56-5.12-2.56-2.56v-5.12l-5.12-2.56-2.56-5.12-2.56-2.56-2.56-2.56V353.28l-2.56-2.56-2.56-2.56-2.56-2.56-2.048-2.56v-2.56l-5.12-2.56-2.56-2.56-5.12-2.56v-2.56h-5.12l-2.56-5.12h-2.56l-5.12-5.12-2.56-2.56-5.12-2.56-2.56-2.56-5.12-2.56-7.68-2.56-7.68-2.56c-5.12 0-7.68 0-5.12-2.56l-10.24-2.56-5.12-2.56h-2.56l-12.8-2.56h-7.68l-2.56-2.56h-2.56c-10.24-1.536-20.48-1.536-31.232 0l-4.096-1.536m35.84 65.024v2.56l7.68 2.56 10.24 2.56h2.56l2.56 2.56h2.56l7.68 5.12 2.56 2.56h2.56l5.12 2.56 2.56 2.56 2.56 2.56 2.56 2.56 2.56 2.56 2.56 2.56 2.56 2.56 2.56 2.56 2.56 2.56 2.56 2.56 2.56 2.56 2.56 7.68 2.56 2.56 2.56 5.12 2.56 5.12c2.56 0 5.12 5.12 2.56 10.24l2.56 2.56h2.56v85.504c-1.536 31.232-4.096 61.952-7.68 93.184l-2.56 2.56-2.56 2.56-2.56 10.24-5.12 2.56-2.56 2.56-2.56 5.12-2.56 5.12-2.56 2.56-2.56 2.56-2.56 5.12-2.56 2.56v2.56l-2.56 2.56-2.56 2.56-2.56 5.12v2.56l-5.12 5.12-2.56 5.12-2.56 2.56c-2.56 0-5.12 2.56-5.12 7.68v2.56l-5.12 5.12v2.56l-5.12 5.12-2.56 2.56v31.232l2.56 2.56 5.12 2.56 2.56 5.12 2.56 2.56 5.12 2.56 5.12 2.56 5.12 2.56 5.12 2.56 5.12 2.56 5.12 2.56 7.68 2.56 2.56 2.56 5.12 2.56 5.12 2.56 5.12 2.56 5.12 2.56 5.12 2.56 5.12 2.56 2.56 2.56c5.12-2.56 7.68 0 7.68 2.56l2.56 2.56c5.12-2.56 7.68 0 7.68 2.56l2.56 2.56c5.12-2.56 7.68 0 7.68 2.56l7.68 2.56 5.12 2.56 5.12 2.56h2.56c0 2.56 2.56 5.12 7.68 5.12h2.56c0 2.56 2.56 5.12 7.68 5.12h2.56c0 2.56 2.56 5.12 7.68 5.12h2.56c0 2.56 2.56 5.12 7.68 5.12h2.56c0 2.56 2.56 5.12 7.68 5.12l2.56 2.56 7.68 2.56 2.56 2.56 7.68 2.56 2.56 2.56 7.68 2.56c2.56 0 5.12 0 2.56 2.56h2.56v2.56h7.68v41.472h-542.72v-17.92l2.56-23.04c5.12 0 7.68-2.56 7.68-5.12h5.12l5.12-2.56 5.12-2.56 5.12-2.56 7.68-2.56 2.56-2.56 2.56-2.56c2.56 0 10.24 0 7.68-2.56h5.12l-2.56-2.56c0 2.56 0 0 0 0h7.68l5.12-5.12h2.56l7.68-2.56 2.56-2.56 7.68-2.56 5.12-2.56 5.12-2.56 5.12-2.56 5.12-2.56v-2.56h2.56l7.68-2.56 5.12-2.56 5.12-2.56 5.12-2.56 5.12-2.56 7.68-2.56 2.56-2.56h6.656l7.68-2.56 5.12-2.56c0-2.56 2.56-5.12 5.12-2.56l5.12-5.12h2.56l7.68-2.56 2.56-2.56 7.68-2.56 5.12-2.56 5.12-2.56 5.12-2.56 5.12-2.56v-2.56h5.12c2.56 0 7.68-2.56 5.12-5.12h2.56l7.68-10.24h2.56c5.12 0 5.12-31.232-2.56-36.352v-2.56l-2.56-2.56h-2.56v-5.12l-5.12-7.68-2.56-2.56-2.56-2.56-2.56-2.56-5.12-7.68v-2.56h-2.56c-1.024-1.536-1.536-3.584-2.56-5.12l-2.56-5.12-2.56-5.12h-2.56l-2.56-5.12-2.56-2.56-2.56-5.12-2.56-2.56-2.56-2.56-2.56-5.12-2.56-2.56h-2.56v-5.12l-2.56-2.56-2.56-2.56-2.56-5.12-2.56-2.56-2.56-2.56h-2.56c-3.584-60.928-2.048-121.344 3.072-181.248l2.56-7.68 2.56-2.56 2.56-2.56 2.56-7.68 2.56-2.56 2.56-2.56 2.56-2.56 2.56-2.56 2.56-2.56 7.68-7.68 2.56-2.56 2.56-2.56 2.56-2.56c0-2.56 2.56-5.12 5.12-2.56V373.76l7.68-2.56 2.56-2.56 5.12-2.56 5.12-2.56 10.24-2.56 7.68-2.56 49.152-3.072" fill="#FFFFFF" p-id="5823"></path></svg>