<svg t="1647941841312" class="icon" viewBox="0 0 1024 1024" version="1.1" xmlns="http://www.w3.org/2000/svg" p-id="7796" width="200" height="200"><path d="M648.704 655.36c111.104 19.456 221.184 67.072 221.184 165.888 0 111.104-131.584 177.152-351.744 177.152s-351.744-66.048-351.744-177.664c0-95.744 101.376-146.432 219.648-166.4v47.616c-96.768 17.408-174.08 57.344-174.08 119.808 0 97.28 165.376 132.096 306.688 132.096s306.688-36.864 306.688-132.096c0-64.512-84.48-101.376-175.616-118.784l-1.024-47.616z m73.216 162.816c0-10.24-25.088-25.6-72.704-37.888V732.16c67.584 15.36 118.272 43.008 118.272 84.992 0 67.584-129.024 98.304-248.832 98.304s-248.832-30.72-248.832-98.304c0-41.984 50.176-70.144 116.736-84.992v47.616c-46.592 11.776-71.168 22.528-71.168 37.376s71.168 52.736 203.776 52.736 202.752-36.864 202.752-51.712zM580.608 292.352c48.128 0.512 87.04 38.912 87.04 87.04v166.4c-0.512 38.912-26.112 72.704-64 83.456v186.368h-43.008v-225.792h19.456c24.064 0 44.032-19.456 44.032-44.032V379.392c-0.512-24.064-19.968-44.032-44.032-44.032H453.632c-24.064 0-44.032 19.456-44.032 44.032v166.4c0 24.064 19.456 44.032 44.032 44.032h19.456v225.792H430.08v-186.368c-37.376-10.24-63.488-44.544-63.488-83.456V379.392c0.512-47.616 38.912-86.528 86.528-87.04h127.488zM518.144 46.08c55.808 0 100.864 45.056 100.864 100.864 0.512 55.808-45.056 101.888-100.864 101.888-55.808 0.512-101.888-45.056-101.888-100.864S460.8 46.592 517.12 46.08h1.024z m0 156.672v2.56c30.72 0 55.808-25.088 55.808-55.808s-25.088-55.808-55.808-55.808c-30.208 6.144-49.152 35.84-43.008 66.048 4.096 21.504 20.992 38.4 43.008 43.008z" fill="#FFFFFF" p-id="7797"></path></svg>