<?xml version="1.0" standalone="no"?><!DOCTYPE svg PUBLIC "-//W3C//DTD SVG 1.1//EN" "http://www.w3.org/Graphics/SVG/1.1/DTD/svg11.dtd"><svg t="1650709210833" class="icon" viewBox="0 0 1024 1024" version="1.1" xmlns="http://www.w3.org/2000/svg" p-id="4737" xmlns:xlink="http://www.w3.org/1999/xlink" width="200" height="200"><defs><style type="text/css">@font-face { font-family: feedback-iconfont; src: url("//at.alicdn.com/t/font_1031158_u69w8yhxdu.woff2?t=1630033759944") format("woff2"), url("//at.alicdn.com/t/font_1031158_u69w8yhxdu.woff?t=1630033759944") format("woff"), url("//at.alicdn.com/t/font_1031158_u69w8yhxdu.ttf?t=1630033759944") format("truetype"); }
</style></defs><path d="M606.208 927.744c-28.672 6.656-57.856 9.728-87.552 9.728-226.304 0-409.6-183.296-409.6-409.6s183.296-409.6 409.6-409.6 409.6 183.296 409.6 409.6v35.328c-1.024 16.384 11.264 31.232 27.648 32.768 15.872 2.048 30.72-9.216 32.768-25.6v-42.496c0-260.096-210.944-471.04-471.04-471.04s-471.04 210.944-471.04 471.04 210.944 471.04 471.04 471.04h0.512c34.304 0 68.608-3.584 102.4-10.752 15.872-3.584 26.112-19.456 23.04-35.84-3.072-16.896-19.456-28.16-36.352-24.576h-1.024z" fill="#FFFFFF" p-id="4738"></path><path d="M803.328 582.144c-110.08 0-199.68 89.6-199.68 199.68s89.6 199.68 199.68 199.68 199.68-89.6 199.68-199.68c-0.512-110.08-89.6-199.168-199.68-199.68z m0 338.432c-76.8 0-139.264-62.464-139.264-139.264s62.464-139.264 139.264-139.264 139.264 62.464 139.264 139.264v0.512c0.512 76.8-60.928 139.264-137.728 139.776h-1.536v-1.024z" fill="#FFFFFF" p-id="4739"></path><path d="M838.656 747.008v-51.2c0-16.896-13.312-30.208-30.208-30.208-16.384 0.512-29.696 13.824-30.208 30.208v51.2h-51.2c-16.896 0-30.208 13.312-30.208 30.208-0.512 16.384 12.8 29.696 29.184 30.208H778.24v51.2c0 16.896 13.312 30.208 30.208 30.208 16.384 0.512 29.696-12.8 30.208-29.184v-52.224h51.2c16.384 0.512 29.696-12.8 30.208-29.184v-1.024c0-16.896-13.312-30.208-30.208-30.208h-51.2zM494.592 204.8v285.184H196.608c-16.896 0-30.208 13.312-30.208 30.208-0.512 16.384 12.8 29.696 29.184 30.208h329.216c16.896 0.512 30.208-12.8 30.72-29.696V204.8c-2.048-16.896-17.408-28.672-34.304-26.624-13.824 2.048-24.576 12.8-26.624 26.624z" fill="#FFFFFF" p-id="4740"></path></svg>