<svg t="1648023774633" class="icon" viewBox="0 0 1024 1024" version="1.1" xmlns="http://www.w3.org/2000/svg" p-id="5425" width="200" height="200"><path d="M76.8 849.408v3.584c0 86.528 232.96 109.568 356.864 109.568 105.984 0 298.496-16.384 346.112-79.36l1.536-1.536 2.048-0.512c27.136-3.584 52.224-8.704 75.264-14.336 26.624-6.656 49.152-15.872 65.024-25.6 26.624-16.384 32.256-34.304 32.256-46.08-0.512-2.048-0.512-3.584-0.512-5.12-0.512-69.12-18.944-135.168-53.76-192-27.136-43.008-62.464-78.848-102.4-103.936l-5.12-2.56 4.096-4.096c34.304-35.84 53.76-85.504 53.76-135.68 0-108.032-87.04-196.096-194.56-196.096-16.384 0-32.256 2.048-46.08 5.632l-2.56 1.024-1.536-2.56C562.688 110.592 500.224 81.92 434.176 81.92c-127.488 0-231.424 104.448-231.424 233.472 0 62.464 25.088 122.88 69.12 166.4l4.096 4.096-5.12 3.072c-52.224 30.72-95.232 73.728-129.024 128-41.984 68.096-65.024 148.48-65.024 232.448zM648.704 219.136c4.096-0.512 8.704-1.024 13.824-1.024 78.336 0 141.824 64.512 141.824 143.36 0 47.104-23.04 91.648-62.464 118.784l-31.744 22.016 35.328 15.36c93.696 39.936 156.672 144.384 156.672 259.584v3.584l-1.536 1.536c-4.096 4.096-21.504 16.896-71.68 28.16-10.24 2.048-21.504 4.096-36.864 6.656l-4.608 1.024v-4.608c-3.072-72.192-23.552-141.824-60.416-201.728-31.744-51.2-73.728-92.672-121.344-120.832l-4.608-3.072 4.096-4.096c41.984-41.984 65.024-98.304 65.024-157.184 0-35.84-8.704-70.144-25.088-101.888l-3.072-5.12 6.656-0.512zM327.68 510.976l36.352-15.872-33.28-22.528c-50.688-34.816-80.896-91.648-80.896-153.088 0-102.4 82.432-184.832 183.296-184.832 45.056 0 88.576 16.896 122.88 48.128 1.536 1.024 2.048 2.048 3.584 3.584l1.536 1.536 0.512 0.512c2.048 2.048 3.072 3.072 4.608 5.12 1.536 1.536 2.56 3.072 4.608 4.608l0.512 0.512c2.048 2.048 3.072 3.584 4.608 5.632 1.536 2.048 2.56 3.072 4.096 5.12l0.512 1.024 4.096 5.632c1.536 2.048 2.048 3.072 3.584 5.12l0.512 1.024c1.024 1.536 2.048 2.56 2.56 4.608l1.024 2.048c16.896 28.672 26.112 61.44 26.112 95.232 0 61.44-30.72 118.784-80.896 153.088l-33.28 23.04 36.352 15.872c114.688 48.64 195.072 176.64 199.168 317.44v16.896l-0.512 1.024c-1.536 2.048-13.312 22.016-88.576 39.936-1.536 0.512-3.072 1.024-5.12 1.536-1.536 0.512-3.072 0.512-4.608 1.024-56.32 12.288-129.536 19.456-206.848 19.456-80.896 0-157.184-8.192-216.576-22.016-62.464-14.848-84.992-32.256-89.088-40.448l-0.512-1.024v-4.096c0-150.016 80.384-283.648 199.68-334.848z" fill="#FFFFFF" p-id="5426"></path><path d="M464.896 511.488H397.312c-9.728 0-18.432 6.144-20.992 16.384l-67.584 226.816c-2.56 8.704 0.512 18.432 7.68 24.064l104.96 85.504c8.192 6.144 19.456 6.656 27.648 0.512l110.08-85.504c7.68-5.632 10.24-16.384 7.68-25.088L486.4 526.336c-3.584-9.216-11.776-14.848-21.504-14.848z m-29.184 301.056l-76.8-62.464L414.72 561.664h34.304l66.56 187.904-79.872 62.976z" fill="#FFFFFF" p-id="5427"></path></svg>