<?xml version="1.0" standalone="no"?><!DOCTYPE svg PUBLIC "-//W3C//DTD SVG 1.1//EN" "http://www.w3.org/Graphics/SVG/1.1/DTD/svg11.dtd"><svg t="1650707128990" class="icon" viewBox="0 0 1024 1024" version="1.1" xmlns="http://www.w3.org/2000/svg" p-id="5325" xmlns:xlink="http://www.w3.org/1999/xlink" width="200" height="200"><defs><style type="text/css">@font-face { font-family: feedback-iconfont; src: url("//at.alicdn.com/t/font_1031158_u69w8yhxdu.woff2?t=1630033759944") format("woff2"), url("//at.alicdn.com/t/font_1031158_u69w8yhxdu.woff?t=1630033759944") format("woff"), url("//at.alicdn.com/t/font_1031158_u69w8yhxdu.ttf?t=1630033759944") format("truetype"); }
</style></defs><path d="M729.088 374.784l-47.104-5.632v-11.264l23.552-35.328c11.776-17.408 11.776-35.328 0-52.736l-29.184-35.328c-11.776-5.632-17.408-5.632-29.184-5.632-5.632 0-17.408 0-23.552 5.632l-40.96 23.552h-5.632l-5.632-47.104c-5.632-17.408-23.552-35.328-40.96-35.328h-40.96c-23.552 0-40.96 17.408-47.104 35.328l-5.632 47.104H424.448L389.12 233.984c-5.632-5.632-11.776-11.776-23.552-11.776s-17.408 5.632-29.184 11.776L307.2 269.312c-11.776 11.776-11.776 35.328-5.632 52.736l29.184 35.328-5.632 11.776-40.96 5.632c-23.552 0-35.328 17.408-35.328 35.328v47.104c0 17.408 17.408 35.328 35.328 40.96l47.104 5.632v11.776l-29.184 35.328c-11.776 17.408-11.776 35.328 0 52.736l35.328 29.184c5.632 5.632 17.408 11.776 29.184 11.776 5.632 0 17.408 0 23.552-5.632l35.328-29.184 11.776 5.632 5.632 47.104c5.632 17.408 23.552 29.184 40.96 35.328h40.96c17.408 0 35.328-17.408 40.96-35.328l5.632-47.104h11.776l40.96 23.552c5.632 5.632 17.408 5.632 23.552 5.632 11.776 0 17.408-5.632 29.184-11.776l29.184-29.184c11.776-11.776 11.776-35.328 0-52.736l-23.552-35.328 5.632-11.776 47.104-5.632c17.408-5.632 35.328-17.408 35.328-40.96v-40.96c-6.656-24.064-17.92-41.472-41.472-41.472zM559.104 568.32s-6.144 0 0 0z m152.064-123.392l-40.96 5.632c-11.776 5.632-29.184 17.408-35.328 29.184l-5.632 17.408c-5.632 11.776 0 29.184 5.632 40.96l23.552 35.328-11.776 11.776-35.328-17.408c-5.632-5.632-17.408-11.776-29.184-11.776-5.632 0-11.776 0-17.408 5.632H552.96c-17.408 11.776-29.184 23.552-29.184 40.96l-5.632 40.96h-17.408l-11.776-40.96c0-17.408-17.408-29.184-29.184-35.328l-11.776-5.632c-5.632 0-11.776-5.632-17.408-5.632-11.776 0-17.408 5.632-29.184 5.632l-35.328 23.552-11.776-11.776 23.552-35.328c5.632-11.776 11.776-29.184 0-47.104v-10.24c-5.632-11.776-23.552-23.552-35.328-29.184l-40.96-5.632v-17.408l40.96-5.632c17.408 0 29.184-17.408 35.328-29.184l5.632-11.776c5.632-17.408 0-35.328-5.632-52.736l-23.552-29.184 11.776-17.408 35.328 23.552c5.632 5.632 17.408 5.632 29.184 5.632 5.632 0 11.776 0 17.408-5.632h11.776c17.408-5.632 29.184-17.408 29.184-35.328l5.632-40.96h17.408l5.632 40.96c0 17.408 17.408 29.184 29.184 35.328l17.408 5.632c5.632 0 11.776 5.632 17.408 5.632 11.776 0 17.408-5.632 29.184-5.632l35.328-29.184 11.776 11.776-23.552 35.328c-5.632 17.408-11.776 35.328 0 47.104v11.776c5.632 17.408 17.408 29.184 35.328 29.184l40.96 5.632v21.504h0.512z m-333.824 47.104s5.632 5.632 0 0c5.632 5.632 5.632 5.632 0 0z m258.048-99.84s0-5.632 0 0c0-5.632 0-5.632 0 0 0-5.632 0-5.632 0 0zM887.296 931.84c-29.184 0-52.736-23.552-52.736-52.736v-52.736c5.632 0 17.408-5.632 35.328-17.408 17.408-17.408 17.408-29.184 17.408-35.328V116.736c0-23.552-11.776-40.96-23.552-47.104-5.632-11.776-23.552-23.552-47.104-23.552H201.728C143.36 46.08 96.256 93.184 96.256 151.552v720.896c0 58.368 47.104 105.472 105.472 105.472h685.568c17.408 0 29.184-11.776 29.184-29.184s-11.776-16.896-29.184-16.896z m-685.568 0c-29.184 0-52.736-23.552-52.736-52.736v-5.632c0-47.104 17.408-47.104 29.184-47.104h603.648v52.736c0 17.408 5.632 35.328 11.776 52.736H201.728zM834.56 761.856l-11.776 11.776H178.176c-11.776 0-23.552 0-29.184 5.632V152.064c0-29.184 23.552-52.736 52.736-52.736h615.424c5.632 0 17.408 11.776 17.408 17.408v645.12zM506.368 322.048C441.856 322.048 389.12 374.784 389.12 439.296s52.736 117.248 117.248 117.248 117.248-52.736 117.248-117.248-52.736-117.248-117.248-117.248z m0 175.616c-35.328 0-64.512-29.184-64.512-64.512S471.04 369.152 506.368 369.152s64.512 29.184 64.512 64.512-29.184 64-64.512 64z" fill="#FFFFFF" p-id="5326"></path></svg>