<svg t="1646903763788" class="icon" viewBox="0 0 1024 1024" version="1.1" xmlns="http://www.w3.org/2000/svg" p-id="3933" width="200" height="200"><path d="M51.2 539.392c-0.3584 8.7552 3.584 17.0496 10.5984 22.4768l100.8128 75.5712c4.608 3.4816 10.1376 5.3248 15.9232 5.3248 6.0928 0 12.1344-2.0992 16.8448-5.9904 0.4608-0.4608 52.8384-43.1616 143.4112-96.2048 30.208-17.7664 61.696-18.7904 93.696-3.328 16.128 7.936 30.8224 18.7904 43.1616 31.9488a26.20416 26.20416 0 0 0 33.8944 5.3248L802.56 394.24l18.5856 29.184-411.392 271.36-66.6624-101.0688c-8.0896-12.2368-24.4736-15.5648-36.7104-7.4752s-15.5648 24.4736-7.4752 36.7104l38.0928 57.7024-31.3856 19.5072-31.3856-54.6816c-7.3728-12.544-23.5008-16.8448-36.096-9.5744a26.53184 26.53184 0 0 0-9.8304 35.9936l45.1072 78.08c4.7104 8.192 13.5168 13.2608 22.9376 13.2608 4.9664 0 9.8304-1.28 13.9776-3.9424l55.8592-34.7136 13.9776 21.248a26.78784 26.78784 0 0 0 22.1696 11.8784c5.1712 0 10.2912-1.4848 14.5408-4.4032l149.8624-98.7648c0.8192 9.3696 3.1232 18.688 6.8096 27.6992 7.7312 18.5344 21.1968 34.1504 38.4 44.544 5.7856 47.4112 46.1312 84.224 95.0784 84.224h192.3072v65.28c0 14.6432 11.8784 26.5216 26.5216 26.5216S952.32 890.88 952.32 876.2368v-314.9312a26.52672 26.52672 0 0 0-53.0432 0v58.1632h-149.0432c-7.168-23.9104-23.552-44.032-45.568-55.8592l167.3728-110.2848a26.56768 26.56768 0 0 0 7.7312-36.352l-32.0512-50.6368 16.0256-9.9328c6.144-3.7376 10.496-9.8304 11.9808-16.8448 1.4848-6.912 0.1024-14.2848-3.7888-20.3264l-95.744-144.5376c-0.256-0.256-0.4608-0.5632-0.7168-0.9216-26.5216-36.352-76.4928-46.3872-114.8928-22.9376l-0.1024 0.1024-596.6336 367.104a26.2656 26.2656 0 0 0-12.6464 21.3504z m655.616 218.8288c-14.08 0-27.0848-6.912-35.2768-18.4832 2.4064-0.3584 4.9664-0.8192 7.3728-1.28h0.1024c1.3824-0.3584 2.6624-0.5632 3.9424-0.9216 0.3584 0 0.7168-0.1024 1.024-0.256 1.1776-0.3584 2.2016-0.5632 3.2256-0.9216 0.256-0.1024 0.5632-0.256 0.9216-0.3584 1.28-0.3584 2.56-0.8192 3.7888-1.28 0.4608-0.1024 0.8192-0.3584 1.28-0.4608 0.8192-0.3584 1.7408-0.7168 2.56-1.024 0.5632-0.1024 1.024-0.3584 1.4848-0.5632 0.9216-0.3584 1.7408-0.7168 2.6624-1.1776 0.3584-0.1024 0.7168-0.256 1.024-0.4608 1.1776-0.5632 2.304-1.28 3.4816-1.8432 0.3584-0.256 0.7168-0.3584 1.024-0.5632 0.9216-0.4608 1.7408-0.9216 2.6624-1.4848 0.3584-0.1024 0.7168-0.3584 1.024-0.5632 1.024-0.5632 2.0992-1.28 3.1232-1.9456 0.1024-0.1024 0.256-0.1024 0.3584-0.256 1.28-0.8192 2.4064-1.7408 3.584-2.56 0.1024-0.1024 0.256-0.1024 0.3584-0.256l3.1232-2.4064 0.3584-0.3584c3.4816-2.7648 6.5536-5.888 9.5744-9.1136l0.1024-0.1024c3.0208-3.2256 5.632-6.7072 8.192-10.3936 0.1024-0.1024 0.1024-0.256 0.256-0.3584 1.7408-2.4064 3.2256-4.9664 4.608-7.4752 0-0.1024 0.1024-0.256 0.1024-0.3584l1.7408-3.4816c0.256-0.256 0.3584-0.5632 0.4608-0.8192 0.5632-1.1776 1.024-2.2016 1.4848-3.328 0.1024-0.256 0.1024-0.3584 0.256-0.5632 0.5632-1.3824 1.1776-2.6624 1.6384-4.0448 0.1024-0.1024 0.1024-0.3584 0.256-0.4608 0.4608-1.1776 0.9216-2.4064 1.28-3.584 0.1024-0.256 0.1024-0.5632 0.256-0.8192 0.1024-0.4608 0.3584-0.9216 0.4608-1.3824h148.6848v85.6064h-192.5632v0.1024z m-75.5712-82.7392c-11.6736-11.776-15.2064-29.2864-8.6528-45.0048a40.99584 40.99584 0 0 1 37.8368-25.2928c22.6304 0 40.96 18.3808 40.9088 40.96 0 0.9216 0 1.9456-0.1024 2.8672 0 0.3584-0.1024 0.5632-0.1024 0.9216-0.1024 0.7168-0.1024 1.28-0.256 1.8432-0.1024 0.4608-0.1024 0.8192-0.256 1.28 0 0.5632-0.1024 1.024-0.256 1.4848l-0.3584 1.3824-0.3584 1.28c-0.4608 1.8432-1.1776 3.584-1.8432 5.3248-0.1024 0.256-0.256 0.5632-0.3584 0.8192-0.256 0.5632-0.5632 1.024-0.8192 1.6384l-0.3584 0.7168c-0.3584 0.5632-0.5632 1.024-0.9216 1.6384-0.1024 0.256-0.256 0.3584-0.3584 0.5632-1.6384 2.6624-3.4816 5.0688-5.632 7.2704l-0.1024 0.1024c-1.7408 1.7408-3.584 3.328-5.632 4.7104a41.0624 41.0624 0 0 1-37.1712 5.0688c-0.1024 0-0.3584-0.1024-0.4608-0.1024a40.4224 40.4224 0 0 1-14.7456-9.472z m-453.0176-92.6208l-53.504-40.0384L688.128 196.4032a33.80224 33.80224 0 0 1 44.1856 8.3968l80.2816 121.1392-313.344 192.6656a205.5424 205.5424 0 0 0-41.7792-28.16c-48.7936-24.32-99.072-22.8352-145.6128 4.4032-65.2288 38.1952-110.8992 70.8096-133.632 88.0128z" fill="#FFFFFF" p-id="3934"></path><path d="M663.2448 628.1728c-9.9328 0-17.9712 8.0384-17.9712 17.9712 0 9.9328 8.0384 17.9712 17.9712 17.9712 9.9328 0 17.9712-8.0384 17.9712-17.9712s-8.0384-17.9712-17.9712-17.9712z" fill="#FFFFFF" p-id="3935"></path></svg>