<?xml version="1.0" encoding="utf-8"?>
<!-- Generator: Adobe Illustrator 23.0.2, SVG Export Plug-In . SVG Version: 6.00 Build 0)  -->
<svg version="1.1" id="图层_1" xmlns="http://www.w3.org/2000/svg" xmlns:xlink="http://www.w3.org/1999/xlink" x="0px" y="0px"
	 viewBox="0 0 200 200" style="enable-background:new 0 0 200 200;" xml:space="preserve">
<style type="text/css">
	.st0{fill:#FFFFFF;}
</style>
<path class="st0" d="M112.1,168.5c-6.7,0-13.2-2.6-17.9-7.4l-68-68.1c-9.9-9.9-9.9-25.9,0-35.8l33.5-33.5c9.9-9.8,25.9-9.8,35.8,0
	l68.1,68.1c9.9,9.9,9.9,25.9,0,35.8L130,161.2C125.3,165.9,118.8,168.6,112.1,168.5L112.1,168.5z M77.6,32c-2.6,0-5,1-6.9,2.8
	L37.2,68.4c-3.8,3.8-3.8,9.9,0,13.7l68.1,68.1c3.8,3.8,9.9,3.8,13.7,0l33.5-33.5c3.8-3.8,3.8-9.9,0-13.7c0,0,0,0,0,0l-68.1-68
	C82.6,33,80.1,32,77.6,32z"/>
<path class="st0" d="M143.9,182c-4.9,0-9.6-1.9-13.1-5.4l-13.6-13.6c-3.1-3.1-3.1-8,0-11.1c0,0,0,0,0,0l39.6-39.5
	c3.1-3.1,8-3.1,11.1,0l13.6,13.6c6.6,6.8,7.3,17.4,1.8,25c-0.2,0.3-0.5,0.6-0.7,0.9l-24.7,24.7c-0.2,0.2-0.4,0.4-0.6,0.6
	C153.4,180.3,148.8,182,143.9,182L143.9,182z M133.9,157.5l8.1,8.1c1.1,1.1,3.3,1,5.1-0.4l23.8-23.8c0.7-1.4,0.5-3.1-0.5-4.3
	l-8.1-8.1L133.9,157.5z M79.9,99.7c-2.1,0-4.1-0.8-5.5-2.3L40,63.1C37,60,37,55.1,40,52c3.1-3.1,8-3.1,11.1,0l34.3,34.3
	c3.1,3.1,3.1,8,0,11.1C84,98.9,82,99.7,79.9,99.7z M19,179.9c-4.3,0-7.8-3.5-7.8-7.8l0,0L11,122.3c0-4.3,3.5-7.8,7.8-7.8
	c0,0,0,0,0,0c4.3,0,7.8,3.5,7.8,7.8l0,0l0.1,49.8C26.8,176.4,23.3,179.9,19,179.9C19,179.9,19,179.9,19,179.9L19,179.9z"/>
<path class="st0" d="M74.4,145.4h-55c-4.3,0-7.8-3.5-7.8-7.8c0-4.3,3.5-7.8,7.8-7.8c0,0,0,0,0,0h55c4.3,0,7.8,3.5,7.8,7.8
	C82.3,141.9,78.8,145.4,74.4,145.4C74.4,145.4,74.4,145.4,74.4,145.4z"/>
</svg>
