<?xml version="1.0" standalone="no"?><!DOCTYPE svg PUBLIC "-//W3C//DTD SVG 1.1//EN" "http://www.w3.org/Graphics/SVG/1.1/DTD/svg11.dtd"><svg t="1650707089490" class="icon" viewBox="0 0 1024 1024" version="1.1" xmlns="http://www.w3.org/2000/svg" p-id="4543" xmlns:xlink="http://www.w3.org/1999/xlink" width="200" height="200"><defs><style type="text/css">@font-face { font-family: feedback-iconfont; src: url("//at.alicdn.com/t/font_1031158_u69w8yhxdu.woff2?t=1630033759944") format("woff2"), url("//at.alicdn.com/t/font_1031158_u69w8yhxdu.woff?t=1630033759944") format("woff"), url("//at.alicdn.com/t/font_1031158_u69w8yhxdu.ttf?t=1630033759944") format("truetype"); }
</style></defs><path d="M507.392 718.336c117.76 0 212.992-94.208 212.992-209.408 0-115.712-95.744-209.408-212.992-209.408-117.248 0-212.992 94.208-212.992 209.408s95.232 209.408 212.992 209.408z m0-347.648c77.824 0 140.288 61.952 140.288 138.24s-62.976 138.24-140.288 138.24c-77.824 0-140.288-61.952-140.288-138.24-0.512-76.288 62.464-138.24 140.288-138.24z m4.096-91.648c25.6 0 47.616-17.92 52.224-42.496 5.12-24.576-8.192-49.152-31.744-58.88-23.552-9.728-50.688-1.536-65.024 19.456-14.336 20.992-11.264 48.64 6.656 66.56 10.24 9.728 23.552 15.36 37.888 15.36z" fill="#FFFFFF" p-id="4544"></path><path d="M507.392 46.592c-223.744 0-406.016 179.2-406.016 399.36 0 80.896 25.088 160.256 72.192 226.816 45.568 65.024 110.08 115.2 184.832 144.384l2.048 1.024c8.704 4.096 39.936 17.408 89.6 23.04 16.384 2.048 33.28 3.072 50.176 3.072 47.616 0 97.28-7.68 147.456-23.552 7.68-3.072 15.36-5.632 23.04-9.216 147.456-64 243.2-207.36 243.2-365.056-0.512-220.672-182.784-399.872-406.528-399.872z m0 71.168c183.808 0 333.312 146.944 333.312 327.68s-149.504 328.192-333.312 328.192c-183.808 0-333.312-146.944-333.312-327.68C173.568 264.704 323.584 117.76 507.392 117.76z m222.72 870.912H284.16c-22.528 0-40.448-17.92-40.448-39.936s17.92-39.936 40.448-39.936h445.952c22.528 0 40.448 17.92 40.448 39.936 0.512 22.016-17.92 39.936-40.448 39.936z" fill="#FFFFFF" p-id="4545"></path></svg>