<?xml version="1.0" standalone="no"?><!DOCTYPE svg PUBLIC "-//W3C//DTD SVG 1.1//EN" "http://www.w3.org/Graphics/SVG/1.1/DTD/svg11.dtd"><svg t="1650707132100" class="icon" viewBox="0 0 1024 1024" version="1.1" xmlns="http://www.w3.org/2000/svg" p-id="5455" xmlns:xlink="http://www.w3.org/1999/xlink" width="200" height="200"><defs><style type="text/css">@font-face { font-family: feedback-iconfont; src: url("//at.alicdn.com/t/font_1031158_u69w8yhxdu.woff2?t=1630033759944") format("woff2"), url("//at.alicdn.com/t/font_1031158_u69w8yhxdu.woff?t=1630033759944") format("woff"), url("//at.alicdn.com/t/font_1031158_u69w8yhxdu.ttf?t=1630033759944") format("truetype"); }
</style></defs><path d="M136.192 376.832c18.944 0 34.304 15.36 34.304 33.792V624.64a34.304 34.304 0 0 1-68.608 0V410.624c0.512-18.944 15.36-33.792 34.304-33.792z m691.712-314.88H226.304C157.696 61.952 102.4 117.248 102.4 185.344V250.88a34.304 34.304 0 0 0 68.608 0V185.344c0-30.72 25.088-55.296 55.808-55.296h601.6c30.72 0 55.808 24.576 55.808 55.296v658.944c0 30.72-25.088 55.808-55.808 55.808H226.304c-30.72 0-55.808-24.576-55.808-55.296v-71.168c0-16.896-12.8-31.232-29.696-32.768h81.92c18.944 0 33.792-15.36 33.792-33.792 0-18.944-15.36-33.792-33.792-33.792H79.872c-18.944 0-33.792 15.36-33.792 33.792 0 18.944 15.36 33.792 33.792 33.792h51.712c-16.896 2.048-29.696 15.872-29.696 32.768v70.656c0 68.608 55.808 123.904 123.904 123.392h601.6c68.608 0 123.904-55.296 123.904-123.392V185.344c0.512-68.608-55.296-123.904-123.392-123.392zM371.712 654.848l86.016-249.344-40.96-109.568c-3.584-10.24-2.048-22.016 4.096-31.232 6.656-9.216 16.896-14.336 28.16-14.336h174.08c11.264 0 21.504 5.632 28.16 14.336 6.656 9.216 8.192 20.48 4.096 31.232l-40.96 109.568 86.016 249.344c5.12 14.848-0.512 30.72-13.824 39.424l-136.704 89.6c-11.776 7.68-27.136 7.168-38.4-0.512L384 693.76c-12.288-8.704-16.896-24.576-12.288-38.912z m126.464-336.896l19.968 53.248h36.864l19.968-53.248h-76.8z m-53.248 334.848l87.552 61.44 95.232-62.464-73.216-212.992h-35.328l-74.24 214.016zM79.872 370.176h142.336c18.944 0 33.792-15.36 33.792-33.792 0-18.944-15.36-33.792-33.792-33.792H79.872C61.44 302.08 46.08 317.44 46.08 336.384c0 18.432 15.36 33.792 33.792 33.792z" fill="#FFFFFF" p-id="5456"></path></svg>