<svg t="1646903927848" class="icon" viewBox="0 0 1024 1024" version="1.1" xmlns="http://www.w3.org/2000/svg" p-id="4859" width="200" height="200"><path d="M756.0704 240.3328h29.3888c5.888 0 11.776-5.888 11.776-11.776V81.5616c0-5.888-5.888-11.776-11.776-11.776h-29.3888c-5.888 0-11.776 5.888-11.776 11.776v147.0464c-5.888 5.888 5.888 11.7248 11.776 11.7248z" fill="#FFFFFF" p-id="4860"></path><path d="M973.6704 187.4432c0-29.3888-23.5008-58.8288-58.8288-58.8288H844.288c-11.776 0-17.664 5.888-17.664 17.664v23.5008c0 11.776 5.888 17.664 17.664 17.664h11.776c29.3888 0 58.8288 23.5008 58.8288 58.8288v41.1648c0 11.776-5.888 17.664-17.664 17.664H126.8224c-11.776-5.888-17.664-11.776-17.664-23.5008v-41.1648c0-29.3888 23.5008-58.8288 58.8288-58.8288h11.776c11.776 0 17.664-5.888 17.664-17.664v-23.5008c0-11.776-5.888-17.664-17.664-17.664H109.1584c-29.3888 0-58.8288 23.5008-58.8288 58.8288V875.52c0 29.3888 23.5008 58.8288 58.8288 58.8288h805.6832c29.3888 0 58.8288-23.5008 58.8288-58.8288V187.4432z m-58.8288 629.248c0 29.3888-23.5008 58.8288-58.8288 58.8288H167.9872c-29.3888 0-58.8288-23.5008-58.8288-58.8288V375.6032c0-11.776 5.888-17.664 17.664-17.664h788.0704v458.752z" fill="#FFFFFF" p-id="4861"></path><path d="M238.5408 240.3328h29.3888c5.888 0 11.776-5.888 11.776-11.776V81.5616c0-5.888-5.888-11.776-11.776-11.776h-29.3888c-5.888 0-11.776 5.888-11.776 11.776v147.0464c-5.888 5.888 0 11.7248 11.776 11.7248zM326.7584 187.4432h370.4832c11.776 0 17.664-5.888 17.664-17.664v-23.5008c0-11.776-5.888-17.664-17.664-17.664H309.0944v41.1648c0 5.888 5.888 17.664 17.664 17.664zM404.3264 791.6544c-4.864 0-9.5744-1.4848-13.6704-4.4544a23.33696 23.33696 0 0 1-9.5744-20.7872l8.5504-106.496-69.5296-81.152a23.17312 23.17312 0 0 1-4.4544-22.4256c2.56-7.8336 8.8064-13.6192 16.7936-15.5136l103.9872-24.7808 55.6544-91.1872c4.3008-7.0144 11.7248-11.2128 19.968-11.2128s15.6672 4.1984 19.968 11.2128l55.6544 91.2384 103.9872 24.7808c7.9872 1.8944 14.2336 7.7312 16.7936 15.5136 2.56 7.8336 0.8704 16.1792-4.4544 22.4256l-69.5296 81.152 8.5504 106.496c0.6656 8.192-2.9184 15.9744-9.5744 20.7872-6.656 4.864-15.104 5.8368-22.7328 2.6112L512 748.8l-98.6624 41.0624c-2.9184 1.1776-5.9904 1.792-9.0112 1.792zM512 701.6448c2.56 0 5.0688 0.512 7.4752 1.4848l78.592 32.7168-6.8096-84.8384c-0.4096-5.12 1.28-10.3424 4.6592-14.2848l55.3984-64.6144-82.7904-19.712c-5.0176-1.2288-9.472-4.4032-12.1856-8.8064L512 470.8864l-44.3392 72.6528c-2.7136 4.4032-7.1168 7.6288-12.1856 8.8064l-82.7904 19.712 55.3984 64.6144c3.328 3.8912 5.0688 9.1136 4.6592 14.2848l-6.8096 84.8384 78.592-32.7168c2.4064-0.9216 4.9152-1.4336 7.4752-1.4336z m76.544-184.1152h0.1024-0.1024z m-2.6624-1.9456c0.0512 0 0 0 0 0z" fill="#FFFFFF" p-id="4862"></path></svg>