<svg t="1648028412585" class="icon" viewBox="0 0 1024 1024" version="1.1" xmlns="http://www.w3.org/2000/svg" p-id="9101" width="200" height="200"><path d="M901.632 122.368h-111.616v-28.16c0-15.36-12.288-28.16-28.16-28.16s-28.16 12.288-28.16 28.16v28.16h-195.584v-28.16c0-15.36-12.288-28.16-28.16-28.16s-28.16 12.288-28.16 28.16v28.16h-194.56v-28.16c0-15.36-12.288-28.16-28.16-28.16s-28.16 12.288-28.16 28.16v28.16H119.808c-30.72 0-55.808 25.088-55.808 55.808v726.016c0 30.72 25.088 55.808 55.808 55.808h781.824c30.72 0 55.808-25.088 55.808-55.808V178.176c0-30.72-25.088-55.808-55.808-55.808z m0 781.824H119.808V345.6h781.824v558.592zM119.808 289.792V178.176h111.616v28.16c0 15.36 12.288 28.16 28.16 28.16s28.16-12.288 28.16-28.16v-28.16h195.584v28.16c0 15.36 12.288 28.16 28.16 28.16 15.36 0 28.16-12.288 28.16-28.16v-28.16h195.584v28.16c0 15.36 12.288 28.16 28.16 28.16s28.16-12.288 28.16-28.16v-28.16h111.616v111.616h-783.36z" fill="#FFFFFF" p-id="9102"></path><path d="M451.584 743.424c10.752 10.752 28.672 10.752 39.424 0l197.632-197.12c10.752-10.752 10.752-28.672 0-39.424s-28.672-10.752-39.424 0L471.04 684.032l-98.816-98.816c-10.752-10.752-28.672-10.752-39.424 0-10.752 10.752-10.752 28.672 0 39.424l118.784 118.784z" fill="#FFFFFF" p-id="9103"></path></svg>