<svg t="1648028444086" class="icon" viewBox="0 0 1024 1024" version="1.1" xmlns="http://www.w3.org/2000/svg" p-id="9232" width="200" height="200"><path d="M530.432 128H224.256c-2.048 0-4.096 0-6.656 0.512l-6.144 1.536c-2.048 0.512-3.584 1.536-5.632 3.072-1.536 1.024-3.072 2.56-4.608 4.096-1.536 1.536-2.56 3.072-4.096 4.608-1.024 1.536-2.048 3.584-3.072 5.632-0.512 2.048-1.536 4.096-1.536 6.144-0.512 2.048-0.512 4.096-0.512 6.656v704c0 2.048 0 4.096 0.512 6.656l1.536 6.144c0.512 2.048 1.536 3.584 3.072 5.632 1.024 1.536 2.56 3.072 3.584 4.608 1.536 1.536 3.072 2.56 5.12 4.096 1.536 1.024 3.584 2.048 5.632 3.072 2.048 0.512 4.096 1.536 6.144 1.536 2.048 0.512 4.096 0.512 6.656 0.512h576c2.048 0 4.096 0 6.656-0.512l6.144-1.536c2.048-0.512 3.584-1.536 5.632-3.072 1.536-1.024 3.072-2.56 4.608-4.096 1.536-1.536 2.56-3.072 4.096-5.12 1.024-1.536 2.048-3.584 3.072-5.632 0.512-2.048 1.536-4.096 1.536-6.144 0.512-2.048 0.512-4.096 0.512-6.656V128h-45.568v269.312c0 7.168-5.632 12.8-12.8 12.8-1.024 0-2.56 0-3.584-0.512l-107.52-33.28c-2.56-0.512-5.12-0.512-7.68 0L547.84 409.6c-6.656 2.048-13.824-1.536-15.872-8.192-0.512-1.024-0.512-2.56-0.512-4.096l-1.024-269.312z m52.736 0v210.432c0 3.584 3.072 6.656 6.144 6.656 0.512 0 1.536 0 2.048-0.512l64.512-21.504c1.536-0.512 2.56-0.512 4.096 0l64.512 21.504c3.584 1.024 7.168-0.512 8.192-4.096 0-0.512 0.512-1.536 0.512-2.048V128h-150.016zM192 64h640c4.608 0 8.704 0.512 12.8 1.024s8.192 2.048 12.288 3.584c4.096 1.536 7.68 3.584 11.264 5.632 3.584 2.048 6.656 4.608 9.728 7.68 3.072 3.072 5.632 6.144 7.68 9.728 2.048 3.584 4.096 7.168 5.632 10.752 1.536 4.096 2.56 8.192 3.584 12.288 1.024 4.096 1.024 8.704 1.024 12.8v768c0 4.608-0.512 8.704-1.024 12.8s-2.048 8.192-3.584 12.288c-1.536 4.096-3.584 7.68-5.632 11.264-2.048 3.584-5.12 6.656-7.68 9.728-3.072 3.072-6.144 5.632-9.728 7.68-3.584 2.048-7.168 4.096-10.752 5.632-4.096 1.536-8.192 2.56-12.288 3.584-4.096 1.024-8.704 1.024-12.8 1.024h-640c-4.608 0-8.704-0.512-12.8-1.024s-8.192-2.048-12.288-3.584c-4.096-1.536-7.68-3.584-11.264-5.632-3.584-2.048-6.656-5.12-9.728-7.68-3.072-3.072-5.632-6.144-7.68-9.728-2.048-3.584-4.096-7.168-5.632-10.752-1.536-4.096-2.56-8.192-3.584-12.288-1.024-4.096-1.024-8.704-1.024-12.8V128c0-4.608 0.512-8.704 1.024-12.8s2.048-8.192 3.584-12.288c1.536-4.096 3.584-7.68 5.632-11.264 2.048-3.584 4.608-6.656 7.68-9.728 3.072-3.072 6.144-5.632 9.728-7.68 3.584-2.048 7.168-4.096 11.264-5.632 4.096-1.536 8.192-2.56 12.288-3.584 3.584-0.512 8.192-1.024 12.288-1.024z m96.256 512h256c17.92 0 32.256 14.336 32.256 32.256s-14.336 32.256-32.256 32.256h-256c-17.92 0-32.256-14.336-32.256-32.256s14.336-32.256 32.256-32.256z m0 128h384c17.92 0 32.256 14.336 32.256 32.256s-14.336 32.256-32.256 32.256h-384c-17.92 0-32.256-14.336-32.256-32.256s14.336-32.256 32.256-32.256z" fill="#FFFFFF" p-id="9233"></path></svg>