<svg t="1646903882504" class="icon" viewBox="0 0 1024 1024" version="1.1" xmlns="http://www.w3.org/2000/svg" p-id="4594" width="200" height="200"><path d="M286.8224 581.9392c-14.0288 0-25.4464 11.4176-25.4464 25.4464v178.0224c0 14.0288 11.4176 25.4464 25.4464 25.4464 14.0288 0 25.4464-11.4176 25.4464-25.4464v-178.0224c-0.0512-14.08-11.4176-25.4464-25.4464-25.4464zM845.824 352.768c13.9264-1.9968 23.552-14.848 21.5552-28.7744l-20.4288-142.592c-1.9968-13.9264-14.9504-23.5008-28.7744-21.5552l-142.592 20.4288c-13.9264 1.9968-23.552 14.8992-21.5552 28.7744a25.43616 25.43616 0 0 0 28.7744 21.6064l86.8352-12.4416L650.24 380.8768l-182.8864-137.216a25.51808 25.51808 0 0 0-32 1.1776L231.8848 422.912a25.48736 25.48736 0 0 0-2.4064 35.8912 25.30304 25.30304 0 0 0 19.1488 8.6528c5.9392 0 11.8784-2.048 16.7424-6.2976l187.9552-164.4544 186.9824 140.2368c5.4272 4.096 12.2368 5.7856 18.9952 4.8128 6.7072-0.9728 12.7488-4.608 16.7424-10.1376l129.9456-177.2032 11.008 76.7488a25.43616 25.43616 0 0 0 28.8256 21.6064z m-177.5104 178.2784c-14.0288 0-25.4464 11.4176-25.4464 25.4464v228.9152c0 14.0288 11.4176 25.4464 25.4464 25.4464s25.4464-11.4176 25.4464-25.4464v-228.9152c0-14.0288-11.4176-25.4464-25.4464-25.4464z" fill="#FFFFFF" p-id="4595"></path><path d="M477.5424 416.6144c-14.0288 0-25.4464 11.4176-25.4464 25.4464v343.3472c0 14.0288 11.4176 25.4464 25.4464 25.4464s25.4464-11.4176 25.4464-25.4464V442.0608c0-14.0288-11.4176-25.4464-25.4464-25.4464z m381.4912 25.4464c-14.0288 0-25.4464 11.4176-25.4464 25.4464v317.9008c0 14.0288 11.4176 25.4464 25.4464 25.4464s25.4464-11.4176 25.4464-25.4464V467.456c0-14.0288-11.3664-25.3952-25.4464-25.3952z" fill="#FFFFFF" p-id="4596"></path><path d="M145.4592 96.512v796.8768h743.168c16.2816 0 29.4912 13.2096 29.4912 29.4912s-13.2096 29.4912-29.4912 29.4912H145.4592c-32.5632 0-58.9824-26.4192-58.9824-58.9824V96.4608c0-16.2816 13.2096-29.4912 29.4912-29.4912s29.4912 13.2096 29.4912 29.5424z" fill="#FFFFFF" p-id="4597"></path></svg>