<svg t="1646903561505" class="icon" viewBox="0 0 1024 1024" version="1.1" xmlns="http://www.w3.org/2000/svg" p-id="3536" width="200" height="200"><path d="M557.3632 389.9904l20.8384 45.056c10.6496 22.784 32.4608 39.2704 57.6512 43.1104l52.8384 7.7312-40.2432 41.216c-17.4592 17.4592-24.7296 42.1888-20.8384 65.8944l8.704 54.784-41.216-22.784c-11.6224-6.8096-23.7568-9.6768-37.3248-9.6768-13.568 0-25.7024 2.9184-37.3248 9.6768l-42.1888 22.784 8.704-54.784c3.8912-23.7568-3.8912-48.9472-20.8384-65.8944l-40.2432-41.216 52.8384-7.7312c24.7296-3.8912 47.0016-19.8656 57.6512-43.1104l20.992-45.056m0-109.056c-6.8096 0-13.568 3.8912-17.4592 10.6496L484.6592 410.3168c-2.9184 5.8368-7.7312 9.6768-14.5408 10.6496l-126.5152 19.4048c-15.5136 2.9184-20.8384 21.8112-10.6496 32.4608L425.984 567.808c3.8912 4.864 5.8368 10.6496 4.864 16.4864l-21.8112 133.2736c-1.9456 12.5952 7.7312 21.8112 19.4048 21.8112 2.9184 0 5.8368-0.9728 9.6768-2.9184l111.0016-61.0816c2.9184-1.9456 5.8368-1.9456 9.6768-1.9456 2.9184 0 6.8096 0.9728 9.6768 1.9456l111.0016 61.0816a16.384 16.384 0 0 0 9.6768 2.9184c11.6224 0 20.8384-9.6768 19.4048-21.8112l-21.8112-133.2736c-0.9728-5.8368 0.9728-12.5952 4.864-16.4864l93.0304-94.976c10.6496-11.6224 4.864-29.5424-10.6496-32.4608l-126.5152-19.4048c-6.8096-0.9728-11.6224-4.864-14.5408-10.6496l-56.6784-118.7328c-4.352-6.7584-12.0832-10.6496-18.8928-10.6496z" fill="#FFFFFF" p-id="3537"></path><path d="M969.7792 416.6144c-24.7296-205.9776-199.168-366.8992-411.4432-366.8992-227.7888 0-413.3888 185.6-413.3888 413.3888v4.864c-28.5696 29.5424-90.1632 97.4336-90.1632 144.4352 0 52.8384 49.92 72.704 85.2992 73.6768l40.2432 8.704 7.7312 199.168c0 40.2432 33.4336 73.6768 74.6496 73.6768h152.1664c16.4864 0 29.5424-13.568 29.5424-29.5424 0-16.4864-13.568-29.5424-29.5424-29.5424H263.168c-7.7312 0-15.5136-6.8096-15.5136-15.5136l-9.6768-246.2208-88.2176-19.4048-2.9184-0.9728h-2.9184c-2.9184 0-12.5952-0.9728-19.8656-3.8912-9.6768-3.8912-9.6768-7.7312-9.6768-10.6496 0-17.4592 37.3248-68.8128 80.4352-111.0016 7.7312-7.7312 10.6496-19.8656 7.7312-29.5424 0.9728-2.9184 0.9728-5.8368 0.9728-8.704 0-195.328 158.976-354.2528 354.2528-354.2528 144.4352 0 268.9536 87.2448 323.7376 211.8144 30.5152 76.5952 80.4352 268.9536-98.4064 455.5776 0 0-11.6224 51.8656 47.9744 36.352 0.1024 0.9216 165.8368-134.7584 138.7008-395.52z" fill="#FFFFFF" p-id="3538"></path></svg>