<svg t="1646903838235" class="icon" viewBox="0 0 1024 1024" version="1.1" xmlns="http://www.w3.org/2000/svg" p-id="4330" width="200" height="200"><path d="M719.4112 274.432a27.8272 27.8272 0 0 0-0.256 39.3728l0.256 0.256a28.6976 28.6976 0 0 0 39.7312 0 27.8272 27.8272 0 0 0 0.256-39.3728l-0.256-0.256a25.57952 25.57952 0 0 0-35.8912-3.8912c-1.4336 1.1776-2.7136 2.4576-3.84 3.8912zM178.5856 451.584c-0.1536 15.5648 12.3904 28.3136 27.9552 28.4672h0.8704c15.7184 0.2048 28.6208-12.3904 28.8256-28.1088v-0.3584c0.1536-15.5648-12.3904-28.3136-27.9552-28.4672h-0.8704a28.47232 28.47232 0 0 0-28.8256 28.1088v0.3584z" fill="#FFFFFF" p-id="4331"></path><path d="M519.68 61.8496c-250.4192 0-453.2224 199.9872-453.2224 447.0784 0 207.5648 149.2992 426.8032 409.2928 438.4768v-52.2752c-239.0016-18.2784-352.7168-181.1968-353.2288-386.2016 0-216.6784 177.664-391.7312 397.1584-391.7312s386.816 158.2592 386.2016 356.7616h56.1664c1.024-228.096-191.8464-412.1088-442.368-412.1088z" fill="#FFFFFF" p-id="4332"></path><path d="M233.0624 681.984a28.89216 28.89216 0 0 0 39.8848 0 28.08832 28.08832 0 0 0 0-39.6288 28.89216 28.89216 0 0 0-39.8848 0 28.08832 28.08832 0 0 0 0 39.6288z m346.9824-174.5408a52.07552 52.07552 0 0 0-32.512-32.512V223.7952c0-10.4448-8.448-18.8928-18.8928-18.8928s-18.8928 8.448-18.8928 18.8928v250.1632c-3.4304 0.9216-6.6048 2.4576-9.472 4.5568-3.5328 2.56-115.2-98.1504-145.6128-126.8736a21.46304 21.46304 0 0 0-28.3648-0.9728 29.77792 29.77792 0 0 0-4.6592 27.8528c3.6864 5.632 154.112 133.4784 154.112 133.4784-1.3312 3.9424-2.048 8.0896-2.0992 12.288 0.3584 30.3616 25.2928 54.6816 55.6544 54.272 22.6304-0.256 42.752-14.3872 50.7392-35.5328 2.6624-5.4272 4.2496-11.264 4.6592-17.3056a47.9488 47.9488 0 0 0-4.6592-18.7904v0.512z m-178.7904 259.84a28.47232 28.47232 0 0 0 0.7168 56.9344c15.616-0.2048 28.16-12.9536 28.1088-28.5696 0-15.6672-12.6976-28.3648-28.3136-28.3648h-0.512zM795.3408 957.44l8.3456-19.2512-28.2112-46.2336 21.9648-20.3776a13.37856 13.37856 0 0 0 0-20.3776h-65.536a14.14144 14.14144 0 0 0-0.4096 19.968l0.4096 0.4096 21.6064 20.48-27.7504 46.2336 13.9776 19.1488c-94.208-5.0176-167.1168-34.9696-167.1168-71.5264 0-52.736 51.3024-66.9696 124.16-71.0144 12.288-15.0528 17.6128-34.56 14.7456-53.76a134.8608 134.8608 0 0 1-43.0592-69.0688c-1.28 0.6656-2.7136 1.024-4.1472 1.1264a15.11424 15.11424 0 0 1-15.2064-14.7456v-29.44a14.81728 14.81728 0 0 1 14.7456-14.2336c6.2464-65.9968 50.7904-116.6848 105.8816-116.6848s100.096 51.7632 105.8816 117.6576c7.9872-2.9696 16.896 1.0752 19.9168 9.0624 0.5632 1.4848 0.8704 3.072 0.9728 4.6592v28.9792a15.104 15.104 0 0 1-15.4624 14.7456h-0.256c-3.2256 0-6.3488-1.0752-8.8576-3.072a128.96256 128.96256 0 0 1-55.552 78.6432 74.7008 74.7008 0 0 0 16.1792 46.2336c75.4688 2.9696 130.048 15.7184 130.048 71.5264-0.5632 36.0448-72.9088 65.9968-167.2704 70.912z" fill="#FFFFFF" p-id="4333"></path></svg>