<svg t="1648195854725" class="icon" viewBox="0 0 1024 1024" version="1.1" xmlns="http://www.w3.org/2000/svg" p-id="5414" width="200" height="200"><path d="M485.888 873.984H170.496c-29.696 0-53.248-23.552-53.248-53.248V200.704c0-29.184 24.064-53.248 53.248-53.248h600.576c29.696 0 53.248 23.552 53.248 53.248v315.904c0 19.456 15.872 35.328 35.328 35.328s35.328-15.872 35.328-35.328V200.704c0-68.096-55.808-123.392-124.416-123.392H170.496C101.888 77.312 46.08 132.608 46.08 200.704v620.544c0 68.096 55.808 123.392 124.416 123.392h315.392c19.456 0 35.328-15.872 35.328-35.328 0-19.456-15.872-35.328-35.328-35.328z m426.496-171.52c-35.328-37.888-81.408-63.488-132.096-73.728v-54.784c0-18.944-11.264-36.352-28.672-43.52s-37.888-4.096-51.712 8.704L527.36 698.368c-9.728 9.216-15.36 21.504-15.36 34.816 0 13.312 5.632 26.112 15.36 34.816l172.544 159.232c13.824 12.8 34.304 16.384 52.224 8.704 17.408-7.68 28.672-25.088 28.672-44.032v-44.032c43.52 11.264 81.408 37.888 107.008 76.288 9.216 13.312 24.064 20.992 39.936 20.992 3.584 0 6.656-0.512 10.24-1.024 18.944-4.096 34.304-19.968 36.864-39.424 2.048-12.288 3.072-24.576 3.072-37.376 0-60.928-23.552-119.808-65.536-164.864z m-54.784 113.664c-31.744-18.432-67.584-30.208-104.448-32.768l-32.256-2.56V865.28l-142.848-132.096 143.36-132.096v80.896l27.648 2.048c94.72 7.68 168.96 87.552 169.984 181.76-18.432-19.456-38.912-36.352-61.44-49.664z m-145.408-494.592c0-19.456-15.872-35.328-35.328-35.328H265.216c-19.456 0-35.328 15.872-35.328 35.328 0 19.456 15.872 35.328 35.328 35.328h411.648c19.456 0.512 35.328-15.36 35.328-35.328zM471.04 506.88c0-19.456-15.872-35.328-35.328-35.328H265.216c-19.456 0-35.328 15.872-35.328 35.328 0 19.456 15.872 35.328 35.328 35.328H435.2c19.456-0.512 35.84-15.872 35.84-35.328z m-205.824 163.84c-19.456 0-35.328 15.872-35.328 35.328 0 19.456 15.872 35.328 35.328 35.328h115.712c19.456 0 35.328-15.872 35.328-35.328 0-19.456-15.872-35.328-35.328-35.328H265.216z" fill="#FFFFFF" p-id="5415"></path></svg>