<?xml version="1.0" standalone="no"?><!DOCTYPE svg PUBLIC "-//W3C//DTD SVG 1.1//EN" "http://www.w3.org/Graphics/SVG/1.1/DTD/svg11.dtd"><svg t="1650708955111" class="icon" viewBox="0 0 1024 1024" version="1.1" xmlns="http://www.w3.org/2000/svg" p-id="5003" xmlns:xlink="http://www.w3.org/1999/xlink" width="200" height="200"><defs><style type="text/css">@font-face { font-family: feedback-iconfont; src: url("//at.alicdn.com/t/font_1031158_u69w8yhxdu.woff2?t=1630033759944") format("woff2"), url("//at.alicdn.com/t/font_1031158_u69w8yhxdu.woff?t=1630033759944") format("woff"), url("//at.alicdn.com/t/font_1031158_u69w8yhxdu.ttf?t=1630033759944") format("truetype"); }
</style></defs><path d="M878.08 380.928L721.92 198.656H311.808L154.112 380.928H358.4c0 30.208 7.168 59.392 20.992 87.04 13.824 28.16 33.28 50.688 57.856 68.608s50.688 26.624 78.848 26.624 54.784-8.704 79.36-26.624c24.576-17.408 44.032-40.448 57.856-68.608 13.824-28.16 20.992-56.832 20.992-87.04h203.776z m32.768 409.6V471.552H737.28c-17.408 52.736-46.592 96.256-87.552 130.56-40.96 34.304-85.504 51.712-134.144 51.712-32.256 0-63.488-7.68-94.208-24.064-30.208-15.872-56.832-37.888-79.36-65.024-22.528-27.648-39.424-58.368-50.688-93.184H121.344v318.464c0 12.288 3.584 23.04 11.264 32.256 7.68 8.704 16.896 13.312 28.16 13.312h710.656c10.752 0 19.968-4.608 28.16-13.312 7.168-8.704 11.264-19.456 11.264-31.744zM279.04 107.52H752.64l237.056 273.408v409.6c0 37.888-11.776 69.632-34.816 96.768-23.04 26.624-51.2 39.936-83.968 39.936H160.768c-32.768 0-60.416-13.312-83.968-39.936-23.04-26.624-34.816-58.88-34.816-96.768v-409.6L279.04 107.52z" fill="#FFFFFF" p-id="5004"></path></svg>