<?xml version="1.0" standalone="no"?><!DOCTYPE svg PUBLIC "-//W3C//DTD SVG 1.1//EN" "http://www.w3.org/Graphics/SVG/1.1/DTD/svg11.dtd"><svg t="1650700648902" class="icon" viewBox="0 0 1024 1024" version="1.1" xmlns="http://www.w3.org/2000/svg" p-id="6683" xmlns:xlink="http://www.w3.org/1999/xlink" width="200" height="200"><defs><style type="text/css">@font-face { font-family: feedback-iconfont; src: url("//at.alicdn.com/t/font_1031158_u69w8yhxdu.woff2?t=1630033759944") format("woff2"), url("//at.alicdn.com/t/font_1031158_u69w8yhxdu.woff?t=1630033759944") format("woff"), url("//at.alicdn.com/t/font_1031158_u69w8yhxdu.ttf?t=1630033759944") format("truetype"); }
</style></defs><path d="M971.264 96.256H223.232c-12.288 0-22.016 10.24-22.016 22.016v92.16c0 12.288 10.24 22.016 22.016 22.016h24.576c12.288 0 22.016-10.24 22.016-22.016v-45.056h631.808c12.288 0 22.016 10.24 22.016 22.016v363.008c0 12.288-10.24 22.016-22.016 22.016h-24.064c-12.288 0-22.016 10.24-22.016 22.016v23.552c0 12.288 10.24 22.016 22.016 22.016h93.696c12.288 0 22.016-10.24 22.016-22.016V118.784c0.512-12.288-9.728-22.528-22.016-22.528z" fill="#FFFFFF" p-id="6684"></path><path d="M752.64 266.24H48.128c-11.264 0-19.968 9.216-19.968 19.968v505.856c0 11.264 9.216 20.48 20.48 19.968l97.28-0.512c11.264 0 20.48 9.216 20.48 19.968v101.888c0 17.92 21.504 27.136 34.304 14.336l132.608-130.56c3.584-3.584 8.704-6.144 13.824-6.144l454.656-3.072c11.264 0 19.968-9.216 19.968-19.968v-501.76c0-11.264-9.216-19.968-19.968-19.968H752.64zM239.104 820.736v-68.608H108.032c-11.264 0-19.968-9.216-19.968-19.968V345.6c0-11.264 9.216-19.968 19.968-19.968h633.856c11.264 0 19.968 9.216 19.968 19.968v386.048c0 11.264-9.216 19.968-19.968 19.968H316.416c-5.632 0-10.24 2.048-13.824 6.144l-63.488 62.976z" fill="#FFFFFF" p-id="6685"></path><path d="M527.36 673.792c-9.216-9.216-19.456-17.92-29.184-28.16-26.112 17.408-54.272 23.04-84.48 20.992-29.696-2.048-58.368-12.288-86.528-27.648-1.536 5.632-3.584 10.24-4.608 14.848-3.584 16.384-19.968 21.504-32.768 10.752-6.656-4.608-10.24-11.264-7.168-19.456 2.56-8.704 8.192-14.848 17.408-16.896 2.56-0.512 5.632-2.048 10.24-3.072l-22.016-26.624 26.112-22.528c14.336 10.752 28.16 23.04 43.52 32.256 31.744 19.456 65.024 22.016 99.328 3.072 2.048-1.024 3.584-2.56 7.68-4.096l-92.672-90.624-27.136 25.6-43.008-37.888c13.312-13.312 26.624-27.136 38.912-39.936 9.216-9.216 17.408-18.944 27.136-27.136 2.56-2.048 7.168-3.584 10.24-4.096 7.168-0.512 13.824 0.512 20.992 0 4.096-0.512 8.704-1.536 11.776-3.584 4.608-3.072 9.216-8.192 13.824-12.288 7.68 7.68 14.848 13.824 23.04 21.504l-34.304 37.888c29.696 31.232 59.904 61.44 90.112 93.184 17.408-34.304 21.504-68.608 5.632-102.912-11.776-26.624-31.744-46.08-55.808-61.44-10.24-7.168-20.992-12.8-31.232-20.48 7.68 1.024 14.848 1.024 23.04 2.048 60.928 10.752 107.52 55.808 119.296 117.248 5.632 28.16-1.024 54.272-12.8 80.384-1.024 2.56-2.56 5.632-4.096 9.216-5.632 11.264-5.632 11.264 2.56 20.992 5.632 6.656 11.776 12.8 17.408 19.456l-40.448 39.424z" fill="#FFFFFF" p-id="6686"></path></svg>