<?xml version="1.0" standalone="no"?><!DOCTYPE svg PUBLIC "-//W3C//DTD SVG 1.1//EN" "http://www.w3.org/Graphics/SVG/1.1/DTD/svg11.dtd"><svg t="1650700580591" class="icon" viewBox="0 0 1024 1024" version="1.1" xmlns="http://www.w3.org/2000/svg" p-id="6293" xmlns:xlink="http://www.w3.org/1999/xlink" width="200" height="200"><defs><style type="text/css">@font-face { font-family: feedback-iconfont; src: url("//at.alicdn.com/t/font_1031158_u69w8yhxdu.woff2?t=1630033759944") format("woff2"), url("//at.alicdn.com/t/font_1031158_u69w8yhxdu.woff?t=1630033759944") format("woff"), url("//at.alicdn.com/t/font_1031158_u69w8yhxdu.ttf?t=1630033759944") format("truetype"); }
</style></defs><path d="M862.208 350.208c37.376-7.68 65.024-22.016 82.944-34.816 25.088-17.92 38.4-35.84 43.008-43.008l0.512-1.024c4.608-7.168 5.632-15.872 3.584-24.064-2.048-8.192-7.168-15.36-14.848-19.968-14.848-9.216-34.816-4.096-44.032 10.752-2.048 3.072-35.84 53.248-125.952 53.248-43.52 0-77.824-25.088-117.248-54.272-40.96-30.208-86.528-63.488-148.48-71.68V100.352c0-17.92-14.336-32.256-32.256-32.256s-32.256 14.336-32.256 32.256v65.024c-59.392 9.728-103.424 41.984-143.36 71.68-39.424 29.184-73.728 54.272-117.248 54.272-49.152 0-81.408-15.36-99.84-28.16-16.384-11.264-24.576-23.04-26.112-25.6-4.096-7.168-11.264-11.776-18.944-13.824-8.192-2.048-17.408-1.024-24.576 3.072-7.68 4.096-12.8 11.264-14.848 19.456s-1.024 17.408 3.584 24.576c3.584 5.632 16.384 24.576 43.52 44.032 17.92 12.8 45.568 27.648 83.456 34.816L34.304 673.792c-7.168 17.92 0 38.912 16.896 48.64 25.6 14.848 91.648 48.64 155.648 48.64 64.512 0 126.976-34.304 150.528-49.152 16.384-10.24 22.528-30.208 15.872-47.616L246.272 352.768c49.664-8.192 88.576-36.864 125.952-64.512 33.792-24.576 66.048-48.64 105.984-57.344v662.016H183.296c-17.92 0-32.256 14.336-32.256 32.256s14.336 32.256 32.256 32.256h659.968c17.92 0 32.256-14.336 32.256-32.256s-14.336-32.256-32.256-32.256h-301.056V229.888c41.984 8.192 75.264 32.768 110.592 58.368 37.376 27.648 76.288 55.808 125.952 64l-127.488 321.024c-7.168 17.92 0 38.912 16.896 48.64 25.6 14.848 91.648 48.64 155.648 48.64 64.512 0 126.976-34.304 150.528-49.152 16.384-10.24 22.528-30.208 15.872-47.616l-128-323.584z m71.68-112.64s0 0.512 0 0c-0.512 0.512-0.512 0.512 0 0zM206.336 706.56c-32.768 0-72.192-13.824-103.936-29.696l101.376-255.488 101.376 256.512c-29.696 14.848-66.56 28.672-98.816 28.672z m617.472 0c-32.768 0-72.192-13.824-103.936-29.696l101.376-255.488 101.376 256.512c-29.696 14.848-67.072 28.672-98.816 28.672z" fill="#FFFFFF" p-id="6294"></path></svg>