<?xml version="1.0" standalone="no"?><!DOCTYPE svg PUBLIC "-//W3C//DTD SVG 1.1//EN" "http://www.w3.org/Graphics/SVG/1.1/DTD/svg11.dtd"><svg t="1650703439379" class="icon" viewBox="0 0 1024 1024" version="1.1" xmlns="http://www.w3.org/2000/svg" p-id="4110" xmlns:xlink="http://www.w3.org/1999/xlink" width="200" height="200"><defs><style type="text/css">@font-face { font-family: feedback-iconfont; src: url("//at.alicdn.com/t/font_1031158_u69w8yhxdu.woff2?t=1630033759944") format("woff2"), url("//at.alicdn.com/t/font_1031158_u69w8yhxdu.woff?t=1630033759944") format("woff"), url("//at.alicdn.com/t/font_1031158_u69w8yhxdu.ttf?t=1630033759944") format("truetype"); }
</style></defs><path d="M838.656 256H274.432c-61.44 0-111.616-52.224-111.616-116.224S212.992 23.04 274.432 23.04h470.016c12.8 0 22.528 10.752 22.528 23.552s-10.24 23.552-22.528 23.552H274.432c-36.352 0-66.56 31.232-66.56 69.12 0 38.4 29.696 69.12 66.56 69.12h563.712c12.288 0 22.528 10.752 22.528 23.552s-9.728 24.064-22.016 24.064z" fill="#FFFFFF" p-id="4111"></path><path d="M185.344 905.216c-6.144 0-11.776-2.56-15.872-6.656-4.096-4.096-6.656-9.728-6.656-15.872V156.16c0-8.192 4.096-15.36 11.264-19.456 7.168-4.096 15.872-4.096 22.528 0 7.168 4.096 11.264 11.264 11.264 19.456v726.528c0 6.144-2.56 11.776-6.656 15.872-4.096 4.608-9.728 6.656-15.872 6.656z m653.312 95.744c-12.288 0-22.528-9.728-22.528-22.016V243.712c0-12.288 10.24-22.528 22.528-22.528s22.528 9.728 22.528 22.528v734.72c0 12.288-10.24 22.528-22.528 22.528zM744.448 242.688c-12.288 0-22.528-9.728-22.528-22.016V45.568c0-12.288 10.24-22.016 22.528-22.016 12.8 0 22.528 9.728 22.528 22.016v175.104c0 12.288-10.24 22.016-22.528 22.016zM274.432 896c-6.144 0-11.776-2.56-15.872-6.656-4.096-4.096-6.656-9.728-6.656-15.872V354.816c0-12.288 10.24-22.016 22.528-22.016 12.8 0 22.528 9.728 22.528 22.016v518.656c0 6.144-2.56 11.776-6.656 15.872-4.096 4.096-9.728 6.656-15.872 6.656z" fill="#FFFFFF" p-id="4112"></path><path d="M274.432 1000.96c-61.44 0-111.616-49.664-111.616-111.104 0-12.288 10.24-22.528 22.528-22.528 12.8 0 22.528 10.24 22.528 22.528 0 36.352 29.696 66.048 66.56 66.048h563.712c12.288 0 22.528 10.24 22.528 22.528 0 12.288-10.24 22.528-22.528 22.528H274.432z m353.792-307.2c-12.288 0-22.528-10.24-22.528-22.528V326.144c0-12.288 10.24-22.528 22.528-22.528h114.688c12.288 0 22.528 10.24 22.528 22.528v345.6c0 12.288-10.24 22.528-22.528 22.528h-114.688z m23.04-45.056h69.12V348.672h-69.12v300.032z" fill="#FFFFFF" p-id="4113"></path></svg>