<?xml version="1.0" standalone="no"?><!DOCTYPE svg PUBLIC "-//W3C//DTD SVG 1.1//EN" "http://www.w3.org/Graphics/SVG/1.1/DTD/svg11.dtd"><svg t="1650700644305" class="icon" viewBox="0 0 1024 1024" version="1.1" xmlns="http://www.w3.org/2000/svg" p-id="6553" xmlns:xlink="http://www.w3.org/1999/xlink" width="200" height="200"><defs><style type="text/css">@font-face { font-family: feedback-iconfont; src: url("//at.alicdn.com/t/font_1031158_u69w8yhxdu.woff2?t=1630033759944") format("woff2"), url("//at.alicdn.com/t/font_1031158_u69w8yhxdu.woff?t=1630033759944") format("woff"), url("//at.alicdn.com/t/font_1031158_u69w8yhxdu.ttf?t=1630033759944") format("truetype"); }
</style></defs><path d="M263.68 79.36H139.264C104.96 79.36 76.8 107.52 76.8 141.824v757.248c0 34.304 28.16 62.464 62.464 62.464h124.416c34.304 0 62.464-28.16 62.464-62.464v-757.76c0-34.304-28.16-61.952-62.464-61.952z m-5.632 67.584v101.888H144.896V146.944h113.152zM144.896 893.44V316.928H258.048v577.024H144.896v-0.512z m817.664-18.432L844.288 126.464c-5.632-33.792-37.376-57.344-71.168-51.712l-122.88 19.456c-16.384 2.56-30.72 11.776-40.448 25.088-2.048 2.56-3.584 5.12-5.12 8.192-6.656-28.16-31.744-48.128-60.416-48.128H419.84c-34.304 0-62.464 28.16-62.464 62.464v757.248c0 34.304 28.16 62.464 62.464 62.464h124.416c34.304 0 62.464-28.16 62.464-62.464V216.064l110.592 697.856c4.608 30.208 30.72 52.224 61.44 52.736 3.072 0 6.656-0.512 9.728-0.512l122.88-19.456c33.28-6.144 56.832-37.888 51.2-71.68zM538.624 146.944v101.888H425.472V146.944h113.152zM425.472 893.44V316.928h113.152v577.024H425.472v-0.512z m352.256-750.592l15.872 100.864h-1.024L681.984 261.12l-15.872-100.352 111.616-17.92z m5.12 754.688L692.736 328.192l110.592-17.408c0.512 0 0.512 0 1.024-0.512l90.624 569.856-112.128 17.408z" fill="#FFFFFF" p-id="6554"></path></svg>