<?xml version="1.0" standalone="no"?><!DOCTYPE svg PUBLIC "-//W3C//DTD SVG 1.1//EN" "http://www.w3.org/Graphics/SVG/1.1/DTD/svg11.dtd"><svg t="1650703459438" class="icon" viewBox="0 0 1024 1024" version="1.1" xmlns="http://www.w3.org/2000/svg" p-id="4372" xmlns:xlink="http://www.w3.org/1999/xlink" width="200" height="200"><defs><style type="text/css">@font-face { font-family: feedback-iconfont; src: url("//at.alicdn.com/t/font_1031158_u69w8yhxdu.woff2?t=1630033759944") format("woff2"), url("//at.alicdn.com/t/font_1031158_u69w8yhxdu.woff?t=1630033759944") format("woff"), url("//at.alicdn.com/t/font_1031158_u69w8yhxdu.ttf?t=1630033759944") format("truetype"); }
</style></defs><path d="M69.12 139.776c0-20.48 16.384-36.864 36.864-36.864h809.472c20.48 0 36.864 16.384 36.864 36.864s-16.384 36.864-36.864 36.864h-18.432v533.504c0 20.48-16.384 36.864-36.864 36.864h-260.608l121.344 121.344c14.336 14.848 13.824 37.888-1.024 52.224-14.336 13.824-36.864 13.824-51.2 0l-158.208-158.208-158.208 158.208c-14.848 14.336-37.888 13.824-52.224-1.024-13.824-14.336-13.824-36.864 0-51.2l121.344-121.344H161.28c-20.48 0-36.864-16.384-36.864-36.864V176.128h-18.432c-20.48 0-36.864-16.384-36.864-36.352z m441.344 533.504h312.832v-496.64H198.144v496.64h312.32zM345.088 305.152c-20.48 0-36.864 16.384-36.864 36.864s16.384 36.864 36.864 36.864h331.264c20.48 0 36.864-16.384 36.864-36.864s-16.384-36.864-36.864-36.864H345.088z m-36.864 220.672c0-20.48 16.384-36.864 36.864-36.864h257.536c20.48 0 36.864 16.384 36.864 36.864s-16.384 36.864-36.864 36.864H345.088c-20.48 0-36.864-16.384-36.864-36.864z" fill="#FFFFFF" p-id="4373"></path></svg>