<?xml version="1.0" standalone="no"?><!DOCTYPE svg PUBLIC "-//W3C//DTD SVG 1.1//EN" "http://www.w3.org/Graphics/SVG/1.1/DTD/svg11.dtd"><svg t="1650700653045" class="icon" viewBox="0 0 1024 1024" version="1.1" xmlns="http://www.w3.org/2000/svg" p-id="6815" xmlns:xlink="http://www.w3.org/1999/xlink" width="200" height="200"><defs><style type="text/css">@font-face { font-family: feedback-iconfont; src: url("//at.alicdn.com/t/font_1031158_u69w8yhxdu.woff2?t=1630033759944") format("woff2"), url("//at.alicdn.com/t/font_1031158_u69w8yhxdu.woff?t=1630033759944") format("woff"), url("//at.alicdn.com/t/font_1031158_u69w8yhxdu.ttf?t=1630033759944") format("truetype"); }
</style></defs><path d="M960 427.52c20.992-11.776 33.28-30.72 33.28-51.712s-12.288-39.936-33.28-51.712L568.32 104.448c-28.672-16.384-74.24-15.872-102.912 0L74.24 324.096c-20.992 11.776-33.28 30.72-33.28 51.712s12.288 39.936 33.28 51.712l109.568 61.44c0 1.024-0.512 2.048-0.512 2.56v291.84c0 2.048 0 4.096 0.512 6.144 7.168 98.816 171.52 150.528 333.312 150.528 163.84 0 329.728-52.736 333.824-154.112V491.008c0-1.024 0-2.048-0.512-2.56l109.568-60.928z m-456.704-256c1.536-1.024 6.656-2.56 13.824-2.56 6.144 0 11.264 1.536 13.824 2.56l364.544 204.288-364.544 204.8c-1.536 1.024-6.656 2.56-13.824 2.56-6.144 0-11.264-1.536-13.824-2.56l-364.544-204.8 364.544-204.288z m270.848 610.304v1.536c-0.512 28.16-98.304 80.384-257.024 80.384S260.608 812.032 260.096 783.36c0-1.536 0-2.56-0.512-4.096v-247.296L465.92 647.68c14.336 8.192 32.768 12.288 51.2 12.288 18.944 0 36.864-4.608 51.2-12.288l205.824-115.2v249.344z" fill="#FFFFFF" p-id="6816"></path><path d="M949.248 459.264c-20.992 0-38.4 17.408-38.4 38.4v304.64c0 20.992 17.408 38.4 38.4 38.4s38.4-17.408 38.4-38.4V497.664c0-20.992-16.896-38.4-38.4-38.4z" fill="#FFFFFF" p-id="6817"></path></svg>