<?xml version="1.0" standalone="no"?><!DOCTYPE svg PUBLIC "-//W3C//DTD SVG 1.1//EN" "http://www.w3.org/Graphics/SVG/1.1/DTD/svg11.dtd"><svg t="1650700656809" class="icon" viewBox="0 0 1024 1024" version="1.1" xmlns="http://www.w3.org/2000/svg" p-id="6946" xmlns:xlink="http://www.w3.org/1999/xlink" width="200" height="200"><defs><style type="text/css">@font-face { font-family: feedback-iconfont; src: url("//at.alicdn.com/t/font_1031158_u69w8yhxdu.woff2?t=1630033759944") format("woff2"), url("//at.alicdn.com/t/font_1031158_u69w8yhxdu.woff?t=1630033759944") format("woff"), url("//at.alicdn.com/t/font_1031158_u69w8yhxdu.ttf?t=1630033759944") format("truetype"); }
</style></defs><path d="M891.392 51.2c40.96 0 75.264 30.72 80.896 72.192l0.512 5.12v710.656c0 43.52-33.792 79.872-76.8 82.432H784.384l-0.512 3.584c-5.12 24.064-24.576 43.008-49.664 47.104l-4.608 0.512h-51.2c-26.624 0-50.176-17.408-57.344-43.008l-1.024-4.608-0.512-3.584H405.504l-0.512 3.584c-5.12 24.064-24.576 43.008-49.664 47.104l-4.608 0.512h-51.2c-26.624 0-50.176-17.408-57.344-43.008l-1.024-4.608-0.512-3.584H132.608c-41.472 0-76.288-31.232-80.896-72.704l-0.512-4.608V133.632c0-43.52 33.792-79.872 76.8-82.432h763.392zM478.208 117.248H132.608c-7.168 0-13.312 5.632-14.336 13.312v708.096c0 8.192 5.632 14.848 12.288 15.872l2.56 0.512h173.056v51.2h33.28v-51.2h138.752V117.248z m413.184 0h-345.6V855.04h138.752v51.2h33.28v-51.2H890.88c7.168 0 13.312-5.632 14.336-13.312V132.096c-0.512-7.168-5.632-12.8-12.288-14.336l-1.536-0.512zM390.656 409.6c14.336 0 25.6 11.264 25.6 25.6v153.6c0 14.336-11.264 25.6-25.6 25.6s-25.6-11.264-25.6-25.6V435.2c0-14.336 11.264-25.6 25.6-25.6z m249.344 0c14.336 0 25.6 11.264 25.6 25.6v153.6c0 14.336-11.264 25.6-25.6 25.6s-25.6-11.264-25.6-25.6V435.2c0-14.336 11.264-25.6 25.6-25.6z" fill="#FFFFFF" p-id="6947"></path></svg>