<svg t="1646903812832" class="icon" viewBox="0 0 1024 1024" version="1.1" xmlns="http://www.w3.org/2000/svg" p-id="4197" width="200" height="200"><path d="M475.2896 529.0496c119.1936 0 215.7568-96.6144 215.7568-215.7568S594.432 97.4848 475.2896 97.4848 259.5328 194.1504 259.5328 313.2928s96.5632 215.7568 215.7568 215.7568z m0 53.9136c-148.9408 0-269.7728-120.7296-269.7728-269.7728S326.3488 43.52 475.2896 43.52s269.7728 120.7296 269.7728 269.7728-120.832 269.6704-269.7728 269.6704z" fill="#FFFFFF" p-id="4198"></path><path d="M611.4304 550.9632a433.3312 433.3312 0 0 0-136.1408-21.9648c-238.3872 0-431.5648 193.1776-431.5648 431.5648a26.9824 26.9824 0 0 0 53.9648 0c0-208.5888 169.0624-377.6512 377.6512-377.6512 40.4992 0 80.6912 6.4512 119.1424 19.1488 14.2848 4.1984 29.2864-3.9424 33.4848-18.2272 3.9936-13.5168-3.2256-27.9552-16.5376-32.8704zM756.4288 930.6112c-98.4064 0-178.4832-80.0768-178.4832-178.4832s80.0768-178.4832 178.4832-178.4832 178.4832 80.0768 178.4832 178.4832-80.0768 178.4832-178.4832 178.4832z m0-313.0368c-74.1888 0-134.5536 60.3648-134.5536 134.5536s60.3648 134.5536 134.5536 134.5536 134.5536-60.3648 134.5536-134.5536-60.3648-134.5536-134.5536-134.5536z" fill="#FFFFFF" p-id="4199"></path><path d="M964.864 987.5968c-6.9632 0-13.824-2.6112-19.1488-7.936l-93.2352-93.2352c-10.5472-10.5472-10.5472-27.6992 0-38.1952 10.5472-10.5472 27.6992-10.5472 38.1952 0l93.2352 93.2352c10.5472 10.5472 10.5472 27.6992 0 38.1952a26.74688 26.74688 0 0 1-19.0464 7.936" fill="#FFFFFF" p-id="4200"></path></svg>