<?xml version="1.0" standalone="no"?><!DOCTYPE svg PUBLIC "-//W3C//DTD SVG 1.1//EN" "http://www.w3.org/Graphics/SVG/1.1/DTD/svg11.dtd"><svg t="1650704125962" class="icon" viewBox="0 0 1024 1024" version="1.1" xmlns="http://www.w3.org/2000/svg" p-id="4306" xmlns:xlink="http://www.w3.org/1999/xlink" width="200" height="200"><defs><style type="text/css">@font-face { font-family: feedback-iconfont; src: url("//at.alicdn.com/t/font_1031158_u69w8yhxdu.woff2?t=1630033759944") format("woff2"), url("//at.alicdn.com/t/font_1031158_u69w8yhxdu.woff?t=1630033759944") format("woff"), url("//at.alicdn.com/t/font_1031158_u69w8yhxdu.ttf?t=1630033759944") format("truetype"); }
</style></defs><path d="M832.512 192.512c-147.456 0-285.184-122.368-285.184-122.368-13.312-9.728-29.696-16.384-42.496-16.384-16.384 0-32.768 6.656-42.496 16.384-3.072 3.072-137.728 122.368-285.184 122.368-36.352 0-65.536 29.696-65.536 66.048v201.216c0 181.76 108.032 333.312 357.376 508.416 9.728 6.656 23.04 13.312 35.84 13.312 13.312 0 26.112-3.072 35.84-13.312 249.344-175.104 357.376-326.656 357.376-508.416V258.56c3.584-36.352-26.112-66.048-65.536-66.048z m16.384 264.704c0 140.288-68.608 280.576-344.064 472.064-274.944-191.488-344.064-331.776-344.064-472.064V248.832c185.856 0 344.064-143.872 344.064-143.872s161.792 143.872 344.064 143.872v208.384z" fill="#FFFFFF" p-id="4307"></path><path d="M644.096 702.464H366.08c-15.872 0-28.672-10.24-28.672-28.672V472.064c0-15.872 13.312-28.672 28.672-28.672h277.504c15.872 0 28.672 13.312 28.672 28.672v201.728c3.072 18.432-10.24 28.672-28.16 28.672zM380.928 480.256c-2.56 0-2.56 2.56 0 0l-2.56 182.784c0 2.56 0 2.56 2.56 2.56h248.32c2.56 0 2.56 0 2.56-2.56V482.816c0-2.56 0-2.56-2.56-2.56H380.928z" fill="#FFFFFF" p-id="4308"></path><path d="M539.136 540.16c0-18.432-18.432-34.304-34.304-34.304-18.432 0-31.232 18.432-31.232 34.304 0 13.312 7.68 26.112 20.992 28.672v47.104c0 5.12 2.56 7.68 7.68 7.68h10.24c5.12 0 7.68-2.56 7.68-7.68v-47.104c10.752-2.56 18.944-15.36 18.944-28.672z m75.776-86.528H578.56V414.72c0-44.544-26.112-68.096-68.096-68.096-44.544 0-68.096 26.112-68.096 68.096v39.424h-36.864V414.72c0-57.856 47.104-104.96 104.96-104.96s104.96 47.104 104.96 104.96c-0.512 0-0.512 38.912-0.512 38.912z" fill="#FFFFFF" p-id="4309"></path></svg>