<svg t="1648028789599" class="icon" viewBox="0 0 1024 1024" version="1.1" xmlns="http://www.w3.org/2000/svg" p-id="9623" width="200" height="200"><path d="M939.008 913.408c-15.872 0-28.16-7.68-36.352-23.04-27.136-43.52-58.368-65.536-99.328-70.144v40.96c0 24.576-18.432 43.008-43.008 43.008-17.408 0-27.136-9.728-31.744-14.336l-1.024-1.024-97.28-108.032c-8.192-8.192-20.992-21.504-20.992-41.984-0.512-16.384 6.144-31.744 17.92-43.008l96.768-105.984 0.512-0.512c4.096-4.608 14.336-14.848 32.256-14.848 11.776 0 23.552 5.12 32.256 13.824 8.704 9.216 14.336 20.992 14.336 32.768v33.28c32.256 4.608 60.416 13.312 84.48 27.648 25.6 14.848 46.592 35.328 61.952 60.928 26.624 44.032 30.208 92.672 31.744 115.712 0 3.584 0.512 6.656 0.512 8.192v3.072c0 26.112-22.528 43.52-43.008 43.52z m-162.816-209.92c-13.312-1.024-24.064-11.776-24.064-25.6v-43.52l-88.576 96.768-1.536 1.536c-1.536 1.536-2.56 3.072-2.048 5.12 1.024 1.536 4.608 5.12 6.656 7.168l1.024 1.024 84.992 94.208V793.6c0-13.312 10.752-24.576 24.064-25.6 37.376-2.048 71.168 5.632 99.84 22.528 18.944 11.264 35.84 26.112 51.2 46.08-9.216-62.464-39.424-126.464-151.552-133.12zM538.624 983.04H483.328c-21.504 0-26.112-4.608-26.112-26.112v-56.832c0-21.504 4.608-26.112 26.112-26.112h55.296c19.968 0 24.576 4.608 26.112 26.112v56.832c0.512 21.504-4.096 26.112-26.112 26.112z m0-198.656H483.328c-21.504 0-26.112-4.608-26.112-26.112v-55.296c0-21.504 4.608-26.112 26.112-26.112h55.296c19.968 0 24.576 4.608 26.112 24.576v56.832c0.512 21.504-4.096 26.112-26.112 26.112z m0-184.832H483.328c-21.504 0-26.112-4.608-26.112-26.112v-56.832c0-21.504 4.608-26.112 26.112-26.112h55.296c19.968 0 24.576 4.608 26.112 26.112V573.44c0.512 21.504-4.608 26.112-26.112 26.112z m-184.32 383.488H299.008c-21.504 0-26.112-4.608-26.112-26.112v-56.832c0-21.504 4.608-26.112 26.112-26.112h55.296c19.968 0 24.576 4.608 26.112 26.112v56.832c0 21.504-4.608 26.112-26.112 26.112z m0-198.656H299.008c-21.504 0-26.112-4.608-26.112-26.112v-55.296c0-21.504 4.608-26.112 26.112-26.112h55.296c19.968 0 24.576 4.608 26.112 24.576v56.832c0 21.504-4.608 26.112-26.112 26.112z m0-184.832H299.008c-21.504 0-26.112-4.608-26.112-26.112v-56.832c0-21.504 4.608-26.112 26.112-26.112h55.296c19.968 0 24.576 3.072 26.112 26.112V573.44c0 21.504-4.608 26.112-26.112 26.112z m609.792-171.008c-10.24 4.096-22.016 2.56-30.208-4.096L512 108.544 192 347.648v605.184c0 16.384-13.312 30.208-30.208 30.208-16.384 0-30.208-13.312-30.208-30.208V392.704l-42.496 31.744c-8.704 6.656-19.968 7.68-30.208 3.584-9.728-4.096-16.384-13.312-17.92-24.064-1.024-10.752 3.072-21.504 11.776-27.648L494.08 46.592c10.752-8.192 25.6-8.192 35.84 0l440.32 329.728c8.704 6.144 13.824 16.896 12.8 28.16-1.536 10.752-8.704 19.968-18.944 24.064z" fill="#FFFFFF" p-id="9624"></path></svg>