<svg t="1648028822557" class="icon" viewBox="0 0 1024 1024" version="1.1" xmlns="http://www.w3.org/2000/svg" p-id="9753" width="200" height="200"><path d="M887.808 38.4H141.312c-35.84 0-64.512 28.672-64.512 64.512v816.64c0 35.328 28.672 64.512 64.512 64.512h746.496c35.328 0 64.512-28.672 64.512-64.512V102.912c0-35.84-29.184-64.512-64.512-64.512z m-3.072 877.568H144.384V105.984h740.352v809.984z" fill="#FFFFFF" p-id="9754"></path><path d="M587.776 226.816c0 18.432 14.848 33.792 33.792 33.792 18.432 0 33.792-14.848 33.792-33.792 0-18.432-14.848-33.792-33.792-33.792-18.944 0-33.792 15.36-33.792 33.792zM715.776 226.816c0 18.432 14.848 33.792 33.792 33.792s33.792-14.848 33.792-33.792c0-18.432-14.848-33.792-33.792-33.792s-33.792 15.36-33.792 33.792zM309.76 495.104H732.16c18.432 0 33.792-14.848 33.792-33.792 0-18.432-14.848-33.792-33.792-33.792H339.968l25.088-70.144c6.144-17.408-3.072-36.864-20.48-43.008s-36.864 3.072-43.008 20.48L266.24 433.664c-5.12 13.824-3.072 29.696 5.632 41.984 8.704 12.288 23.04 19.456 37.888 19.456zM297.472 680.96h391.68l-25.088 70.144c-6.144 17.408 3.072 36.864 20.48 43.008 3.584 1.536 7.68 2.048 11.264 2.048 13.824 0 26.624-8.704 31.744-22.528l35.328-98.816c5.12-13.824 3.072-29.696-5.632-41.984-8.704-12.288-22.528-19.456-37.376-19.456H297.472c-18.432 0-33.792 14.848-33.792 33.792 0 18.944 14.848 33.792 33.792 33.792z" fill="#FFFFFF" p-id="9755"></path></svg>