<svg t="1648028748992" class="icon" viewBox="0 0 1024 1024" version="1.1" xmlns="http://www.w3.org/2000/svg" p-id="9493" width="200" height="200"><path d="M651.776 913.408c-20.48 0-43.008-17.92-43.008-43.008v-3.072c0-2.048 0.512-5.12 0.512-8.192 1.536-23.04 5.12-71.68 31.744-115.712 14.848-25.088 36.352-46.08 61.952-60.928 24.064-13.824 52.224-23.04 84.48-27.648v-33.28c0-11.776 5.12-23.552 14.336-32.768 8.704-8.704 20.48-13.824 32.256-13.824 17.92 0 28.16 10.24 32.256 14.848l0.512 0.512 96.768 105.984c11.776 11.264 18.432 26.624 17.92 43.008 0 20.48-12.8 33.792-20.992 41.984l-97.28 108.032c-0.512 0.512-0.512 1.024-1.024 1.024-4.608 4.608-14.336 14.336-31.744 14.336-24.576 0-43.008-18.432-43.008-43.008v-40.96c-40.96 4.096-72.192 26.624-99.328 70.144-8.704 14.848-20.48 22.528-36.352 22.528z m162.816-209.92c-111.616 6.656-142.336 70.656-151.04 133.632 15.36-19.456 32.768-34.816 51.2-46.08 28.672-16.896 62.464-24.576 99.84-22.528 13.312 0.512 24.064 11.776 24.064 25.6v46.592l84.992-94.208 1.024-1.024c1.536-2.048 5.12-5.632 6.656-7.168 0-2.048-0.512-3.584-2.048-5.12l-1.536-1.536-88.576-96.768v43.52c-1.024 13.312-11.264 24.064-24.576 25.088zM538.624 983.04H483.328c-21.504 0-26.112-4.608-26.112-26.112v-56.832c0-21.504 4.608-26.112 26.112-26.112h55.296c19.968 0 24.576 4.608 26.112 26.112v56.832c0.512 21.504-4.096 26.112-26.112 26.112z m0-198.656H483.328c-21.504 0-26.112-4.608-26.112-26.112v-55.296c0-21.504 4.608-26.112 26.112-26.112h55.296c19.968 0 24.576 4.608 26.112 24.576v56.832c0.512 21.504-4.096 26.112-26.112 26.112z m0-184.832H483.328c-21.504 0-26.112-4.608-26.112-26.112v-56.832c0-21.504 4.608-26.112 26.112-26.112h55.296c19.968 0 24.576 4.608 26.112 26.112V573.44c0.512 21.504-4.608 26.112-26.112 26.112z m-184.32 383.488H299.008c-21.504 0-26.112-4.608-26.112-26.112v-56.832c0-21.504 4.608-26.112 26.112-26.112h55.296c19.968 0 24.576 4.608 26.112 26.112v56.832c0 21.504-4.608 26.112-26.112 26.112z m0-198.656H299.008c-21.504 0-26.112-4.608-26.112-26.112v-55.296c0-21.504 4.608-26.112 26.112-26.112h55.296c19.968 0 24.576 4.608 26.112 24.576v56.832c0 21.504-4.608 26.112-26.112 26.112z m0-184.832H299.008c-21.504 0-26.112-4.608-26.112-26.112v-56.832c0-21.504 4.608-26.112 26.112-26.112h55.296c19.968 0 24.576 3.072 26.112 26.112V573.44c0 21.504-4.608 26.112-26.112 26.112z m609.792-171.008c-10.24 4.096-22.016 2.56-30.208-4.096L512 108.544 192 347.648v605.184c0 16.384-13.312 30.208-30.208 30.208-16.384 0-30.208-13.312-30.208-30.208V392.704l-42.496 31.744c-8.704 6.656-19.968 7.68-30.208 3.584-9.728-4.096-16.384-13.312-17.92-24.064-1.024-10.752 3.072-21.504 11.776-27.648L494.08 46.592c10.752-8.192 25.6-8.192 35.84 0l440.32 329.728c8.704 6.144 13.824 16.896 12.8 28.16-1.536 10.752-8.704 19.968-18.944 24.064z" fill="#FFFFFF" p-id="9494"></path></svg>