<svg t="1648028695549" class="icon" viewBox="0 0 1024 1024" version="1.1" xmlns="http://www.w3.org/2000/svg" p-id="9362" width="200" height="200"><path d="M886.272 46.08H136.704C84.992 46.08 43.008 88.064 43.008 139.776v749.568c0 51.712 41.984 93.696 93.696 93.696h749.568c51.712 0 93.696-41.984 93.696-93.696V139.776c0-51.712-41.984-93.696-93.696-93.696zM136.704 257.024c-13.824 0-23.552-9.216-23.552-23.552V139.776c0-13.824 9.216-23.552 23.552-23.552h749.568c13.824 0 23.552 9.216 23.552 23.552v93.696c0 13.824-9.216 23.552-23.552 23.552H136.704z m0 70.144h749.568c7.168 0 16.384-2.56 23.552-2.56v564.736c0 13.824-9.216 23.552-23.552 23.552H136.704c-13.824 0-23.552-9.216-23.552-23.552V324.608c7.168 0 16.384 2.56 23.552 2.56z" fill="#FFFFFF" p-id="9363"></path><path d="M511.488 151.552c-18.944 0-35.328 16.384-35.328 35.328s16.384 35.328 35.328 35.328 35.328-16.384 35.328-35.328-16.384-35.328-35.328-35.328z m0 233.984L307.712 502.784V737.28l203.776 117.248 203.776-117.248V502.784L511.488 385.536z m0 202.24l-109.056-63.488L511.488 460.8l109.056 63.488-109.056 63.488z m29.696 175.104v-125.44l109.568-62.464v125.44L541.184 762.88z m-59.392 0l-109.568-62.464v-125.44l109.568 62.464V762.88z" fill="#FFFFFF" p-id="9364"></path></svg>