<?xml version="1.0" standalone="no"?><!DOCTYPE svg PUBLIC "-//W3C//DTD SVG 1.1//EN" "http://www.w3.org/Graphics/SVG/1.1/DTD/svg11.dtd"><svg t="1650707157732" class="icon" viewBox="0 0 1024 1024" version="1.1" xmlns="http://www.w3.org/2000/svg" p-id="5981" xmlns:xlink="http://www.w3.org/1999/xlink" width="200" height="200"><defs><style type="text/css">@font-face { font-family: feedback-iconfont; src: url("//at.alicdn.com/t/font_1031158_u69w8yhxdu.woff2?t=1630033759944") format("woff2"), url("//at.alicdn.com/t/font_1031158_u69w8yhxdu.woff?t=1630033759944") format("woff"), url("//at.alicdn.com/t/font_1031158_u69w8yhxdu.ttf?t=1630033759944") format("truetype"); }
</style></defs><path d="M534.016 557.056c55.296-40.96 91.136-106.496 91.136-180.224 0-123.392-100.352-223.744-224.256-223.744-123.392 0-223.744 100.352-223.744 224.256 0 73.728 35.84 139.776 91.136 180.224C128 611.328 28.16 747.008 28.16 906.24H102.4c0-164.864 133.632-298.496 298.496-298.496s298.496 133.632 298.496 298.496h74.24c1.024-159.744-98.816-295.424-239.616-349.184z m-120.32-24.064h-25.6c-80.384-6.656-143.872-73.728-143.872-156.16 0-87.04 70.144-156.672 156.672-156.672s156.672 70.144 156.672 156.672c0 81.92-62.976 149.504-143.872 156.16z" fill="#FFFFFF" p-id="5982"></path><path d="M747.52 528.896c55.296-40.96 91.136-106.496 91.136-180.224 0-123.392-100.352-223.744-224.256-223.744v67.072c86.528 0 156.672 70.144 156.672 156.672 0 82.432-63.488 150.016-143.872 156.16H614.4v74.24c164.864 0 298.496 133.632 298.496 298.496H988.16c0-159.232-99.84-294.912-240.64-348.672z" fill="#FFFFFF" p-id="5983"></path></svg>