<svg t="1648027400599" class="icon" viewBox="0 0 1024 1024" version="1.1" xmlns="http://www.w3.org/2000/svg" p-id="8182" width="200" height="200"><path d="M209.408 603.136c-47.104 0-85.504 38.4-85.504 85.504s38.4 85.504 85.504 85.504 85.504-38.4 85.504-85.504-38.4-85.504-85.504-85.504z m4.096 128.512c-24.064 2.048-45.056-15.36-47.104-39.424s15.36-45.056 39.424-47.104c24.064-2.048 45.056 15.36 47.104 39.424 2.048 24.064-15.36 45.056-39.424 47.104z" fill="#FFFFFF" p-id="8183"></path><path d="M577.536 445.952c-16.384-13.312-28.672-26.624-37.888-42.496l-8.192-13.312h-296.96c8.704-66.56 66.048-118.272 135.168-118.272h139.264l5.632-21.504c6.144-23.552 15.36-42.496 28.672-60.416l34.304-45.568H369.664c-145.408 0-263.68 118.272-263.68 263.68v18.432C61.952 459.776 35.84 510.464 35.84 565.76v280.576c0 40.448 33.792 74.24 74.24 74.24h103.424c38.912 0 72.192-31.744 74.24-70.144h310.272v-404.48h-20.48zM230.4 846.336c0 9.216-7.68 16.896-16.896 16.896H110.08c-9.216 0-16.896-7.68-16.896-16.896v-280.576c0-39.424 16.384-77.824 52.224-100.864 1.536-1.024 3.584-2.048 5.12-3.584l6.144-4.608v-49.152c0-118.784 97.28-216.064 216.064-216.064h98.816c-1.536 4.096-3.584 24.576-5.12 29.184H382.976c-51.712 0-100.352 13.312-136.704 49.664C209.92 307.712 189.44 355.84 189.44 408.064v38.912h310.272c11.264 15.36 24.576 29.696 40.96 42.496v303.616H230.4v53.248z" fill="#FFFFFF" p-id="8184"></path><path d="M820.736 920.576h-61.44c-23.552 0-46.08-9.216-62.464-25.6s-25.6-38.912-25.6-62.464V497.152c-55.296-37.888-89.6-101.888-89.6-169.984 0-45.056 14.336-88.064 41.984-124.928 26.112-34.816 63.488-61.44 104.448-74.24l37.376-11.776v172.032h49.664V116.736l36.864 11.264c42.496 13.312 78.848 38.912 105.472 74.24 27.136 36.352 40.96 79.36 40.96 124.928 0 36.352-9.728 72.704-28.16 103.936-15.36 26.112-36.352 48.64-61.44 66.048v334.848c0 23.552-9.216 46.08-25.6 62.464-16.384 16.896-38.4 26.112-62.464 26.112z m-112.64-720.384c-41.984 27.648-69.12 75.776-69.12 126.976 0 53.76 28.672 103.424 75.264 129.536l14.336 8.192v367.616c0 17.408 13.824 31.232 31.232 31.232h61.44c17.408 0 31.232-13.824 31.232-31.232V464.896l14.336-8.192c46.592-27.136 75.264-76.8 75.264-129.536s-26.624-100.352-69.12-127.488v145.408h-164.352V200.192h-0.512z" fill="#FFFFFF" p-id="8185"></path></svg>