<svg t="1647941814568" class="icon" viewBox="0 0 1024 1024" version="1.1" xmlns="http://www.w3.org/2000/svg" p-id="7663" width="200" height="200"><path d="M509.952 568.832l-9.216 0.512c3.072 0 6.144 0 9.216-0.512M254.976 314.368c-0.512 3.072-0.512 6.144-0.512 9.216l0.512-9.216z" fill="#FFFFFF" p-id="7664"></path><path d="M407.04 139.264l-6.144-4.608c-92.672-70.656-222.208-61.44-304.64 24.576-90.624 95.232-90.624 248.832 0 343.552l271.36 284.16c9.728 10.24 22.528 15.872 36.352 16.896h4.608l6.656-0.512c12.8-2.56 23.552-7.68 31.232-16.384l271.36-284.16 5.12-5.632c85.504-96.256 83.456-245.248-5.12-337.92-84.48-88.576-217.088-95.744-309.248-20.992l-1.536 1.024z m-30.208 51.712l5.12 4.608 4.608 4.608c11.264 11.776 30.208 11.776 41.984 0l0.512-0.512c68.096-71.68 178.688-71.68 246.784 0 67.584 70.656 69.12 184.832 4.096 257.536l-4.608 5.12L407.04 742.4 139.264 461.824c-69.12-72.192-69.12-189.952 0-262.144 65.024-68.096 168.448-71.68 237.568-8.704z" fill="#FFFFFF" p-id="7665"></path><path d="M797.696 496.64c108.032 0 195.072 87.552 195.072 195.072 0 104.448-81.92 189.952-186.368 195.072H633.344v-61.44h164.352c73.728 0 133.632-59.904 133.632-133.632 0-71.168-55.296-129.536-125.952-133.632h-151.552V496.64h143.872z" fill="#FFFFFF" p-id="7666"></path><path d="M569.344 751.616c-51.2 0-92.672 41.472-92.672 92.672s41.472 92.672 92.672 92.672 92.672-41.472 92.672-92.672c0-51.2-41.472-92.672-92.672-92.672z m0 61.44c16.896 0 31.232 13.824 31.232 30.72s-13.824 30.72-31.232 30.72c-16.896 0-30.72-13.824-30.72-30.72-0.512-16.896 13.312-30.72 30.72-30.72z" fill="#FFFFFF" p-id="7667"></path></svg>