<svg t="1647941630407" class="icon" viewBox="0 0 1024 1024" version="1.1" xmlns="http://www.w3.org/2000/svg" p-id="7269" width="200" height="200"><path d="M752.128 532.992h-170.496c-12.288 0-24.064 1.024-30.208 11.264l-21.504 31.744L497.664 460.8c-3.584-13.824-15.872-22.016-29.696-23.552-13.824-1.536-27.648 8.704-34.304 21.504l-36.864 74.752H265.728c-19.456 0-34.816 17.92-34.816 37.376s15.36 37.376 34.816 37.376h152.064c12.8 0 24.576-15.872 30.72-27.136l5.632-18.944 31.232 112.128c3.584 13.312 15.36 23.552 29.184 25.088 1.536 0 3.072 0.512 4.608 0.512 12.288 0 24.064 2.048 30.208-8.704l53.248-82.944h150.528c19.456 0 34.816-17.92 34.816-37.376-1.024-19.968-16.384-37.888-35.84-37.888z" fill="#FFFFFF" p-id="7270"></path><path d="M865.28 411.648c-32.768-150.016-167.424-259.584-322.048-259.584-114.688 0-220.16 61.44-280.064 156.672C136.192 322.048 35.84 439.296 35.84 572.416c0 140.8 116.224 270.848 253.44 270.848h487.936c114.176 0 210.432-109.568 210.432-227.328 0.512-82.944-49.152-169.984-122.368-204.288zM777.728 768H289.28c-95.744 0-177.152-95.232-177.152-195.072 0-97.792 79.872-193.024 174.592-194.56 13.824 0 26.112-7.68 32.768-19.968 44.032-81.92 130.048-132.608 223.744-132.608 124.416 0 232.448 96.768 250.88 220.672 2.048 14.336 12.288 28.672 25.6 33.28 54.272 17.92 92.16 77.312 92.16 135.68 0 76.288-61.44 152.576-134.144 152.576z" fill="#FFFFFF" p-id="7271"></path></svg>