<svg t="1649143214356" class="icon" viewBox="0 0 1024 1024" version="1.1" xmlns="http://www.w3.org/2000/svg" p-id="5707" width="200" height="200"><path d="M189.44 103.936c-35.84 0-65.024 29.184-65.024 65.024v747.008c0 35.84 29.184 65.024 65.024 65.024h649.216c17.408 0 33.792-6.656 46.08-18.944s18.944-28.672 18.944-46.08v-747.52c0-35.84-29.184-65.024-65.024-65.024H727.04l32.256 32.256V87.04c0-26.624-22.016-48.64-48.64-48.64h-394.24c-26.624 0-48.64 21.504-48.64 48.64v48.64l32.256-32.256-110.592 0.512z m143.872 64.512V87.552c0 9.216-7.168 16.384-16.384 16.384h394.24c-6.656 0-12.8-4.096-14.848-10.24-1.024-2.048-1.024-4.096-1.024-6.144V168.96h143.872v747.008H189.952V168.96h111.616l31.744-0.512z m361.472 16.384c0-9.216 7.168-16.384 16.384-16.384h-394.24c9.216 0 16.384 7.168 16.384 16.384v-48.64c-0.512-17.92-15.872-31.744-33.792-31.232-16.896 0.512-30.72 14.336-31.232 31.232v48.64c0 26.624 22.016 48.64 48.64 48.64h394.24c26.624 0 48.64-21.504 48.64-48.64v-48.64c-0.512-17.92-15.872-31.744-33.792-31.232-16.896 0.512-30.72 14.336-31.232 31.232v48.64z" fill="#FFFFFF" p-id="5708"></path><path d="M716.288 471.04l-108.032-107.008c-4.608-2.56-9.216-4.096-14.336-4.608s-10.752 1.024-14.336 4.608l-268.288 268.8c-2.56 4.096-4.096 9.216-4.608 14.336v107.008c0 5.12 2.048 10.24 5.632 13.824 3.584 3.584 8.704 5.632 13.824 5.632h108.032c5.12 0.512 10.752-1.024 14.336-4.608l160.256-161.28c7.168-8.192 7.168-20.48 0-28.672-8.192-7.168-20.48-7.168-28.672 0l-155.648 154.624H345.088v-78.848L593.92 407.04l78.848 78.336-21.504 26.112-40.448-40.448c-8.192-7.168-20.48-7.168-28.672 0-7.168 8.192-7.168 20.48 0 28.672l52.736 54.784c4.608 2.56 9.216 4.096 14.336 4.608s10.752-1.024 14.336-4.608l52.736-54.784c2.56-4.608 4.096-9.216 4.608-14.336 1.024-5.12-1.024-10.752-4.608-14.336z" fill="#FFFFFF" p-id="5709"></path></svg>