<svg t="1648027200832" class="icon" viewBox="0 0 1024 1024" version="1.1" xmlns="http://www.w3.org/2000/svg" p-id="7788" width="200" height="200"><path d="M726.016 876.544H303.104V936.96c0 16.896-13.312 30.208-30.208 30.208-16.896 0-30.208-13.312-30.208-30.208v-60.416H151.552c-66.56 0-120.832-54.272-120.832-120.832v-242.176c0-60.928 45.056-112.128 105.472-119.808l54.784-219.136C207.872 107.008 268.288 59.904 337.92 59.904h353.28c69.12 0 130.048 47.104 146.432 114.688l54.784 219.136c60.416 7.68 105.472 58.88 105.472 119.808v242.176c0 66.56-54.272 120.832-120.832 120.832h-90.624V936.96c0 16.896-13.312 30.208-30.208 30.208s-30.208-13.312-30.208-30.208v-60.416zM151.552 453.12c-33.28 0-60.416 27.136-60.416 60.416v242.176c0 33.28 27.136 60.416 60.416 60.416h726.016c33.28 0 60.416-27.136 60.416-60.416v-242.176c0-33.28-27.136-60.416-60.416-60.416H151.552z m60.416 241.664c-33.28 0-60.416-27.136-60.416-60.416s27.136-60.416 60.416-60.416c33.28 0 60.416 27.136 60.416 60.416s-26.624 60.416-60.416 60.416z m605.184 0c-33.28 0-60.416-27.136-60.416-60.416s27.136-60.416 60.416-60.416c33.28 0 60.416 27.136 60.416 60.416 0 33.28-27.136 60.416-60.416 60.416z m12.8-302.08L779.264 189.44c-10.24-40.448-46.592-68.608-88.064-68.608H337.92c-41.472 0-77.824 28.16-88.064 68.608l-50.688 203.264h630.784z" fill="#FFFFFF" p-id="7789"></path></svg>