<svg t="1648027249846" class="icon" viewBox="0 0 1024 1024" version="1.1" xmlns="http://www.w3.org/2000/svg" p-id="7918" width="200" height="200"><path d="M566.784 762.368H127.488c-4.608 1.024-9.728 1.024-14.336 0l-71.68-31.232c-13.312-5.632-21.504-18.432-21.504-32.768V522.24c0-9.216 3.584-17.92 10.24-24.064l71.68-75.776c6.656-7.168 15.872-11.264 25.6-11.264h714.752c19.968 0 35.84 15.872 35.84 35.84s-15.872 35.84-35.84 35.84H142.848l-51.712 54.272v135.68l43.52 18.432h429.056c19.968 0 35.84 15.872 35.84 35.84s-15.872 35.84-35.84 35.84h3.072v-0.512z" fill="#FFFFFF" p-id="7919"></path><path d="M830.464 478.72H135.68c-19.968 0-35.84-15.872-35.84-35.84 0-3.584 0.512-6.656 1.536-10.24l71.68-250.368c3.072-32.768 30.208-57.856 62.976-57.856h492.544c33.28 0 60.416 25.088 63.488 57.856l71.68 250.368c5.632 18.944-5.12 38.912-24.064 44.544-3.072 1.024-6.656 1.536-10.24 1.536h1.024z m-647.68-71.68H783.36l-58.88-207.872H242.176L182.784 407.04z m-14.848 438.272c-19.968 0-35.84-15.872-35.84-35.84v-72.704c0-19.968 15.872-35.84 35.84-35.84s35.84 15.872 35.84 35.84v71.68c1.024 19.968-14.336 36.352-34.304 37.376-0.512-0.512-1.024-0.512-1.536-0.512zM258.048 619.52c-11.264 0.512-22.016-3.072-30.208-10.752-13.824-16.384-13.824-40.448 0-57.344 16.384-13.824 40.448-13.824 57.344 0 13.824 16.896 13.824 40.96 0 57.856-7.68 6.656-17.408 10.24-27.136 10.24z m715.264 50.176h-324.096c-19.968 0-35.84-15.872-35.84-35.84s15.872-35.84 35.84-35.84h324.096c19.968 0 35.84 15.872 35.84 35.84s-15.872 35.84-35.84 35.84z" fill="#FFFFFF" p-id="7920"></path><path d="M649.728 669.696c-19.968 0-35.84-16.384-35.328-35.84 0-8.192 3.072-16.384 8.192-22.528l93.696-110.592c10.752-16.384 33.28-20.992 49.664-10.24s20.992 33.28 10.24 49.664c-1.536 2.048-3.072 4.096-5.12 6.144l-93.696 111.616c-7.68 7.168-17.408 11.776-27.648 11.776z m323.584 125.952h-324.096c-19.968 0-35.84-15.872-35.84-35.84s15.872-35.84 35.84-35.84h324.096c19.968 0 35.84 15.872 35.84 35.84s-15.872 35.84-35.84 35.84z" fill="#FFFFFF" p-id="7921"></path><path d="M879.616 906.24c-19.968 0-35.84-16.384-35.328-35.84 0-8.192 3.072-16.384 8.192-22.528l90.112-110.592c10.752-16.384 33.28-20.992 49.664-10.24s20.992 33.28 10.24 49.664c-1.536 2.048-3.072 4.096-5.12 6.144l-90.112 111.616c-7.168 7.68-16.896 11.776-27.648 11.776z" fill="#FFFFFF" p-id="7922"></path></svg>