<?xml version="1.0" standalone="no"?><!DOCTYPE svg PUBLIC "-//W3C//DTD SVG 1.1//EN" "http://www.w3.org/Graphics/SVG/1.1/DTD/svg11.dtd"><svg t="1650707694955" class="icon" viewBox="0 0 1024 1024" version="1.1" xmlns="http://www.w3.org/2000/svg" p-id="6112" xmlns:xlink="http://www.w3.org/1999/xlink" width="200" height="200"><defs><style type="text/css">@font-face { font-family: feedback-iconfont; src: url("//at.alicdn.com/t/font_1031158_u69w8yhxdu.woff2?t=1630033759944") format("woff2"), url("//at.alicdn.com/t/font_1031158_u69w8yhxdu.woff?t=1630033759944") format("woff"), url("//at.alicdn.com/t/font_1031158_u69w8yhxdu.ttf?t=1630033759944") format("truetype"); }
</style></defs><path d="M824.7296 383.744c10.5984 5.5296 15.36 18.0736 11.1104 29.2352l-23.6032 61.5936c15.872 18.0736 28.8256 38.4512 38.5024 60.4672l65.8432 4.608c11.9296 0.8192 21.2992 10.496 21.8112 22.3744l4.7616 108.3392a23.5008 23.5008 0 0 1-19.7632 24.2176l-65.1776 10.3424a237.2864 237.2864 0 0 1-33.0752 63.5904l28.928 59.3408c5.2224 10.752 1.5872 23.6544-8.4992 30.1056l-91.4432 58.3168a23.52128 23.52128 0 0 1-30.8736-5.0176l-41.5744-51.3024c-23.552 4.7104-47.7184 5.7856-71.6288 3.1744l-36.9152 54.6816a23.41376 23.41376 0 0 1-27.8016 8.8064l-2.4576-1.1264L446.5664 875.52a23.49056 23.49056 0 0 1-11.9296-26.6752l0.8192-2.6112 23.6032-61.5936a234.46016 234.46016 0 0 1-38.4512-60.4672l-65.8432-4.6592a23.52128 23.52128 0 0 1-21.5552-19.6608l-0.3072-2.7136L328.192 588.8a23.4752 23.4752 0 0 1 16.896-23.552l2.8672-0.6656 65.1776-10.3936c7.7312-22.7328 18.8928-44.1856 33.0752-63.5904L417.28 431.2576c-4.7616-9.728-2.2016-21.4528 6.0928-28.3648l2.4064-1.7408 91.4432-58.2656c9.216-5.8368 21.1968-4.608 29.0304 3.0208l1.8432 1.9968 41.5744 51.3024c23.552-4.7104 47.7184-5.8368 71.5776-3.2256l36.9152-54.6816a23.48032 23.48032 0 0 1 30.3104-7.6288l96.256 50.0736z m-40.3456 32l-59.0336-30.72-41.0624 60.8256-28.16-3.072c-16.384-1.792-32.8704-1.4336-49.152 1.1264l-8.0896 1.4336-27.8528 5.5808-46.2336-57.088-56.1152 35.7376 32.1536 65.9968-16.7424 22.8864a189.0816 189.0816 0 0 0-24.064 44.2368l-2.4576 6.7072-9.1136 26.8288-72.448 11.52 2.9184 66.4576 73.2672 5.1712 11.4176 26.0096c6.6048 15.104 15.2064 29.2352 25.4976 42.0864l5.2736 6.2976 18.688 21.2992-26.2656 68.5056 59.0336 30.72 41.0624-60.8256 28.16 3.072c16.384 1.792 32.9216 1.4336 49.152-1.1264l8.0896-1.4336 27.8528-5.5808 46.2336 57.0368 56.1152-35.7376-32.1536-65.9456 16.7424-22.8352a189.0816 189.0816 0 0 0 24.064-44.2368l2.4576-6.7072 9.1136-26.8288 72.448-11.5712-2.9184-66.4576-73.2672-5.12-11.4176-26.0096a187.63776 187.63776 0 0 0-25.4976-42.0864l-5.2736-6.2976-18.688-21.2992 26.2656-68.5568z m-94.5152 109.6704c57.5488 29.952 79.9232 100.864 49.9712 158.4128-29.952 57.5488-100.864 79.9232-158.4128 49.9712s-79.9232-100.864-49.9712-158.4128c29.952-57.5488 100.864-79.9232 158.4128-49.9712z m-27.136 52.1216c-28.7744-14.9504-64.256-3.7888-79.2064 24.9856s-3.7888 64.256 24.9856 79.2064 64.256 3.7888 79.2064-24.9856c15.0016-28.7744 3.7888-64.256-24.9856-79.2064zM355.2768 188.9792c6.0928 3.1744 8.8576 10.4448 6.4 16.896l-13.6192 35.584c9.1648 10.4448 16.64 22.2208 22.2208 34.9696l38.0416 2.6624c6.8608 0.4608 12.288 6.0416 12.5952 12.9536l2.7648 62.6176c0.3072 6.912-4.608 12.9024-11.4176 13.9776l-37.6832 5.9904a136.5504 136.5504 0 0 1-19.0976 36.7616l16.6912 34.2528c3.0208 6.1952 0.9216 13.6704-4.9152 17.408L314.4192 496.64c-5.8368 3.6864-13.4656 2.4576-17.8176-2.9184l-24.0128-29.6448c-13.6192 2.7136-27.5968 3.328-41.3696 1.8432l-21.3504 31.5904a13.6448 13.6448 0 0 1-16.0768 5.12l-1.4336-0.6656-55.552-28.8768a13.63456 13.63456 0 0 1-6.912-15.4112l0.4608-1.4848 13.6192-35.584a135.68512 135.68512 0 0 1-22.2208-34.9184l-38.0416-2.7136a13.61408 13.61408 0 0 1-12.4416-11.3664l-0.1536-1.5872-2.7136-62.6176c-0.256-6.2464 3.7376-11.8784 9.7792-13.6192l1.6384-0.3584 37.632-5.9904a136.5504 136.5504 0 0 1 19.0976-36.7616l-16.6912-34.2528c-2.7648-5.632-1.28-12.3904 3.5328-16.384l1.3824-0.9728 52.8384-33.6896a13.6192 13.6192 0 0 1 16.7936 1.7408l1.0752 1.1776 24.0128 29.6448c13.6192-2.7136 27.5456-3.3792 41.3696-1.8432l21.3504-31.5904a13.50656 13.50656 0 0 1 17.5104-4.4032l55.552 28.8768z m-23.296 18.4832l-34.0992-17.7664-23.7056 35.1232-16.2816-1.792c-9.472-1.024-18.9952-0.8192-28.416 0.6656l-4.7104 0.8192-16.0768 3.2256-26.7264-32.9728-32.4096 20.6336 18.5856 38.144-9.6768 13.2096a111.51872 111.51872 0 0 0-13.9264 25.5488l-1.4336 3.8912-5.2736 15.5136-41.8816 6.656 1.6896 38.4 42.3424 2.9696 6.6048 15.0016c3.84 8.704 8.7552 16.896 14.7456 24.32l3.072 3.6352 10.8032 12.288-15.1552 39.5776 34.0992 17.7664 23.7056-35.1232 16.2816 1.792c9.472 1.024 18.9952 0.8192 28.416-0.6144l4.7104-0.8192 16.0768-3.2256 26.7264 32.9728 32.4096-20.6336-18.5856-38.0928 9.6768-13.2096c5.7344-7.8848 10.4448-16.4864 13.9264-25.5488l1.4336-3.8912 5.2736-15.5136 41.8816-6.656-1.6896-38.4-42.3424-2.9696-6.6048-15.0016c-3.84-8.704-8.7552-16.896-14.7456-24.32l-3.072-3.6352-10.8032-12.288 15.1552-39.68zM277.3504 270.7968c33.2288 17.3056 46.1824 58.2656 28.8768 91.5456s-58.2656 46.1824-91.5456 28.8768c-33.2288-17.3056-46.1824-58.2656-28.8768-91.5456s58.3168-46.1312 91.5456-28.8768z m-15.6672 30.1056a33.92512 33.92512 0 0 0-45.7728 14.4384c-8.6528 16.64-2.2016 37.12 14.4384 45.7728s37.12 2.2016 45.7728-14.4384c8.6528-16.64 2.2016-37.12-14.4384-45.7728z" fill="#FFFFFF" fill-opacity=".65" p-id="6113"></path></svg>