<?xml version="1.0" standalone="no"?><!DOCTYPE svg PUBLIC "-//W3C//DTD SVG 1.1//EN" "http://www.w3.org/Graphics/SVG/1.1/DTD/svg11.dtd"><svg t="1650707092798" class="icon" viewBox="0 0 1024 1024" version="1.1" xmlns="http://www.w3.org/2000/svg" p-id="4674" xmlns:xlink="http://www.w3.org/1999/xlink" width="200" height="200"><defs><style type="text/css">@font-face { font-family: feedback-iconfont; src: url("//at.alicdn.com/t/font_1031158_u69w8yhxdu.woff2?t=1630033759944") format("woff2"), url("//at.alicdn.com/t/font_1031158_u69w8yhxdu.woff?t=1630033759944") format("woff"), url("//at.alicdn.com/t/font_1031158_u69w8yhxdu.ttf?t=1630033759944") format("truetype"); }
</style></defs><path d="M980.48 92.672L931.84 44.032c-3.584-3.584-9.216-3.584-13.312 0l-87.04 87.04c-37.888-25.6-82.432-39.424-128.512-39.424-60.928 0-119.296 24.064-162.304 67.072L424.448 275.456c-3.584 3.584-3.584 9.216 0 12.8l311.296 311.296c1.536 1.536 4.096 2.56 6.656 2.56s4.608-1.024 6.656-2.56L865.28 482.816c77.312-77.824 89.088-199.168 27.648-290.304l87.04-87.04c4.096-3.584 4.096-9.216 0.512-12.8z m-170.496 335.36l-68.096 68.096-214.016-214.016 68.096-68.096c28.672-28.672 66.56-44.544 107.008-44.544 40.448 0 78.336 15.872 107.008 44.544 28.672 28.672 44.544 66.56 44.544 107.008 0 39.936-15.872 78.336-44.544 107.008z m-217.6 120.32c-3.584-3.584-9.216-3.584-12.8 0l-76.8 76.288L399.36 521.216l76.8-76.8c3.584-3.584 3.584-9.216 0-12.8l-41.472-41.472c-3.584-3.584-9.216-3.584-12.8 0l-76.8 76.288-49.152-49.152c-2.048-2.048-4.096-2.56-6.656-2.56s-4.608 1.024-6.656 2.56l-116.736 116.736C88.576 611.328 76.8 733.184 138.24 824.32l-87.04 87.04c-3.584 3.584-3.584 9.216 0 12.8l48.64 48.64c3.584 3.584 9.216 3.584 13.312 0l87.04-87.04c37.888 25.6 82.432 39.424 128.512 39.424 60.928 0 119.296-24.064 162.304-67.072l116.736-116.736c3.584-3.584 3.584-9.216 0-12.8l-49.152-49.152 76.288-76.288c3.584-3.584 3.584-9.216 0-12.8l-42.496-41.984zM435.2 802.816c-28.16 28.672-67.072 44.544-107.008 44.544-39.936 0-78.848-15.872-107.008-44.544-28.672-28.16-44.544-67.072-44.544-107.008 0-40.448 15.872-78.336 44.544-107.008l68.096-68.096 214.016 214.016L435.2 802.816z" fill="#FFFFFF" p-id="4675"></path></svg>