<?xml version="1.0" standalone="no"?><!DOCTYPE svg PUBLIC "-//W3C//DTD SVG 1.1//EN" "http://www.w3.org/Graphics/SVG/1.1/DTD/svg11.dtd"><svg t="1650707106286" class="icon" viewBox="0 0 1024 1024" version="1.1" xmlns="http://www.w3.org/2000/svg" p-id="5065" xmlns:xlink="http://www.w3.org/1999/xlink" width="200" height="200"><defs><style type="text/css">@font-face { font-family: feedback-iconfont; src: url("//at.alicdn.com/t/font_1031158_u69w8yhxdu.woff2?t=1630033759944") format("woff2"), url("//at.alicdn.com/t/font_1031158_u69w8yhxdu.woff?t=1630033759944") format("woff"), url("//at.alicdn.com/t/font_1031158_u69w8yhxdu.ttf?t=1630033759944") format("truetype"); }
</style></defs><path d="M424.96 858.112H89.088c-18.944-0.512-35.328 14.336-35.84 33.28-0.512 18.944 14.336 35.328 33.28 35.84H424.96c18.944 0.512 35.328-14.336 35.84-33.28 0.512-18.944-14.336-35.328-33.28-35.84H424.96z m401.92-765.44h-670.72c-55.808 0-101.888 45.056-101.888 101.376v465.92c0.512 55.808 46.08 101.376 101.888 101.376h167.424c18.944 0 34.816-15.36 34.816-34.816 0-18.944-15.36-34.816-34.816-34.816H156.16c-17.92 0-32.256-14.336-32.256-31.744v-465.92c0-17.92 14.336-32.256 32.256-31.744h670.72c17.92 0 32.256 14.336 32.256 31.744v199.68c0.512 19.456 16.896 34.304 36.352 33.28 18.432-0.512 32.768-15.36 33.28-33.28v-199.68c0-56.32-45.568-101.888-101.888-101.376z m-129.536 488.448c-55.296 0.512-99.328 45.568-98.816 100.352 0.512 55.296 45.568 99.328 100.352 98.816 54.784-0.512 98.816-45.056 98.816-99.84s-45.056-99.328-100.352-99.328z m0 133.12c-18.432 0-33.28-15.36-33.28-33.28 0-18.432 15.36-33.28 33.28-33.28 18.432 0 33.28 14.848 33.28 33.28s-14.848 33.28-33.28 33.28z m111.104 211.456h-221.696c-19.456 0-37.376-10.24-47.104-27.136l-110.592-190.464c-9.728-16.896-9.728-37.376 0-54.272l110.592-190.464c9.728-16.896 27.648-27.136 47.104-27.648h221.696c19.456 0 37.376 10.24 47.616 27.648l110.592 190.464c9.728 16.896 9.728 37.376 0 54.272l-110.592 190.464c-10.24 16.896-28.16 27.136-47.616 27.136z m-213.504-69.12h204.288l102.4-175.616-102.4-175.616h-204.288l-102.4 175.616 102.4 175.616z" fill="#FFFFFF" p-id="5066"></path></svg>