<svg t="1648027940920" class="icon" viewBox="0 0 1024 1024" version="1.1" xmlns="http://www.w3.org/2000/svg" p-id="8840" width="200" height="200"><path d="M915.456 526.848c-5.632 34.304-17.408 74.24-34.304 108.544-11.264 17.408-23.04 23.04-39.936 17.408-17.408-11.264-23.04-23.04-17.408-39.936 17.408-34.304 28.672-68.608 34.304-102.912 23.04-91.648 17.408-177.664 11.264-228.864l-355.328-165.888-354.816 165.376c-5.632 51.712-11.264 131.584 11.264 228.864 39.936 188.928 160.256 320.512 343.552 400.896 57.344-23.04 102.912-51.712 148.992-86.016 11.264-11.264 28.672-5.632 39.936 5.632s5.632 28.672-5.632 39.936c-51.712 39.936-109.056 68.608-172.032 97.28h-23.04C290.304 881.152 158.72 732.672 112.64 520.704c-17.408-86.528-20.992-175.616-11.264-263.168 5.632-11.264 11.264-17.408 17.408-23.04l384-183.296h23.04l384 183.296c11.264 5.632 17.408 11.264 17.408 23.04 5.12 51.712 10.752 148.992-11.776 269.312z m-389.632 171.52c-45.568 0-97.28-23.04-131.584-57.344-74.24-74.24-74.24-188.928 0-263.168s188.928-74.24 263.68 0c62.976 62.976 68.608 165.888 17.408 240.64l120.32 120.32c11.264 11.264 11.264 28.672 0 39.936-5.632 5.632-11.264 5.632-23.04 5.632-11.264 0-17.408 0-23.04-5.632L634.88 664.064c-34.816 23.04-69.12 34.304-109.056 34.304z m91.648-280.064c-23.04-28.672-57.344-39.936-91.648-39.936-34.304 0-68.608 17.408-91.648 39.936-51.712 51.712-51.712 131.584 0 183.296 51.712 45.568 131.584 45.568 183.296 0 51.712-51.712 51.712-132.096 0-183.296z" fill="#FFFFFF" p-id="8841"></path></svg>