<svg t="1648027975273" class="icon" viewBox="0 0 1024 1024" version="1.1" xmlns="http://www.w3.org/2000/svg" p-id="8970" width="200" height="200"><path d="M972.8 875.008V410.624c0-16.384-8.192-30.208-22.528-36.352-14.336-6.144-30.208-3.584-42.496 3.584l-327.68 237.056-187.904-132.096c-14.336-9.728-34.304-9.728-48.64 2.048l-273.408 229.888c-8.192 6.144-14.336 17.92-14.336 30.208v128.512c0 22.528 17.92 40.448 40.448 40.448h838.656c21.504-1.024 39.936-18.944 37.888-38.912z m-78.336-42.496H136.192v-70.144l235.52-199.168 189.44 130.56c14.336 9.728 32.256 9.728 46.592 0L894.976 486.4v346.624h-0.512z" fill="#FFFFFF" p-id="8971"></path><path d="M95.232 520.192c9.216 1.024 19.456 0 25.088-3.072l261.12-219.136 184.32 137.216c9.728 8.192 26.112 8.192 36.352 0l265.728-205.824-6.656 32.768c-2.048 16.384 8.192 32.256 24.064 36.352h6.144c14.336 0 28.16-9.728 30.208-24.064l26.112-120.32c2.048-9.728-2.048-17.92-8.192-26.112-6.144-8.192-16.384-11.776-26.112-9.728l-120.32 17.92c-16.384 2.048-28.16 17.92-26.112 34.304 2.048 16.384 17.92 28.16 34.304 26.112l13.824-2.048-227.84 172.544-186.368-137.216c-11.776-8.192-28.16-6.144-38.4 2.048l-278.528 225.28c-11.776 9.728-20.48 36.864-10.752 49.152 11.776 12.8 22.016 13.824 22.016 13.824z" fill="#FFFFFF" p-id="8972"></path></svg>