<svg t="1647941668664" class="icon" viewBox="0 0 1024 1024" version="1.1" xmlns="http://www.w3.org/2000/svg" p-id="7400" width="200" height="200"><path d="M677.888 306.688H212.48c-15.872 0-28.672-12.8-28.672-28.672 0-15.872 12.8-28.672 28.672-28.672h465.408c15.872 0 28.672 12.8 28.672 28.672s-13.312 28.672-28.672 28.672z m-54.784 175.616H209.408c-15.872 0-28.672-12.8-28.672-28.672s12.8-28.672 28.672-28.672h413.696c15.872 0 28.672 12.8 28.672 28.672s-13.312 28.672-28.672 28.672z m-82.432 171.52H209.408c-15.872 0-28.672-12.8-28.672-28.672s12.8-28.672 28.672-28.672h331.776c15.872 0 28.672 12.8 28.672 28.672s-13.312 28.672-29.184 28.672z m342.528 30.208h-54.784c-12.8 0-22.528-10.24-22.528-22.528 0-12.8 10.24-22.528 22.528-22.528h54.784c12.8 0 22.528 10.24 22.528 22.528 0 12.288-10.24 22.528-22.528 22.528z m0 81.92h-54.784c-12.8 0-22.528-10.24-22.528-22.528 0-12.8 10.24-22.528 22.528-22.528h54.784c12.8 0 22.528 10.24 22.528 22.528 0 12.288-10.24 22.528-22.528 22.528z m54.784-178.688H691.2c-12.8 0-22.528-10.24-22.528-22.528s10.24-22.528 22.528-22.528h246.272c12.8 0 22.528 10.24 22.528 22.528s-9.728 22.528-22.016 22.528z" fill="#FFFFFF" p-id="7401"></path><path d="M814.592 958.464c-50.176 0-91.136-40.96-91.136-91.136v-302.08c0-12.8 10.24-22.528 22.528-22.528h136.704c12.8 0 22.528 10.24 22.528 22.528v302.08c0.512 50.176-40.448 91.136-90.624 91.136z m-45.568-370.688v279.552c0 25.088 20.48 45.568 45.568 45.568s45.568-20.48 45.568-45.568v-279.552h-91.136z" fill="#FFFFFF" p-id="7402"></path><path d="M304.128 964.096h-1.024c-7.68-0.512-15.36-4.096-20.48-9.728l-80.896-93.696-90.624 93.184c-8.192 8.192-20.48 10.752-31.232 6.656-10.752-4.608-17.92-14.848-17.92-26.112l0.512-798.72c0-41.984 33.792-75.776 75.776-75.776h629.76c41.984 0 75.776 33.792 75.776 75.776v251.904c0 15.872-12.8 28.672-28.672 28.672-15.872 0-28.672-12.8-28.672-28.672V135.68c0-10.24-8.704-18.944-18.944-18.944H138.24c-10.24 0-18.944 8.704-18.944 18.944l-0.512 728.576L182.784 798.72c5.632-5.632 13.312-8.704 20.992-8.704 8.192 0.512 15.36 3.584 20.48 9.728l81.408 94.208 94.208-94.208c5.12-5.12 12.8-8.192 19.968-8.192s14.848 3.072 19.968 8.192l116.224 116.224c11.264 11.264 11.264 29.184 0 40.448s-29.184 11.264-40.448 0L419.84 860.16l-95.744 96.256c-5.12 4.608-12.288 7.68-19.968 7.68z" fill="#FFFFFF" p-id="7403"></path></svg>