<svg t="1647941302423" class="icon" viewBox="0 0 1024 1024" version="1.1" xmlns="http://www.w3.org/2000/svg" p-id="6213" width="200" height="200"><path d="M657.408 306.688H192c-15.872 0-28.672-12.8-28.672-28.672s12.8-28.672 28.672-28.672h465.408c15.872 0 28.672 12.8 28.672 28.672s-13.312 28.672-28.672 28.672zM602.624 482.304H188.928c-15.872 0-28.672-12.8-28.672-28.672s12.8-28.672 28.672-28.672h413.696c15.872 0 28.672 12.8 28.672 28.672s-13.312 28.672-28.672 28.672zM520.192 653.824H188.928c-15.872 0-28.672-12.8-28.672-28.672s12.8-28.672 28.672-28.672h331.776c15.872 0 28.672 12.8 28.672 28.672s-13.312 28.672-29.184 28.672z" fill="#FFFFFF" p-id="6214"></path><path d="M283.648 964.096h-1.024c-7.68-0.512-15.36-4.096-20.48-9.728l-80.896-93.696-90.624 93.184c-8.192 8.192-20.48 10.752-31.232 6.656-10.752-4.608-17.92-14.848-17.92-26.112l0.512-798.72c0-41.984 33.792-75.776 75.776-75.776h629.76c41.984 0 75.776 33.792 75.776 75.776v251.904c0 15.872-12.8 28.672-28.672 28.672s-28.672-12.8-28.672-28.672V135.68c0-10.24-8.704-18.944-18.944-18.944H117.76c-10.24 0-18.944 8.704-18.944 18.944l-0.512 728.576L162.304 798.72c5.632-5.632 13.312-8.704 20.992-8.704 8.192 0.512 15.36 3.584 20.48 9.728l81.408 94.208 94.208-94.208c5.12-5.12 12.8-8.192 19.968-8.192s14.848 3.072 19.968 8.192l116.224 116.224c11.264 11.264 11.264 29.184 0 40.448s-29.184 11.264-40.448 0L399.36 860.16l-95.744 96.256c-5.12 4.608-12.288 7.68-19.968 7.68z" fill="#FFFFFF" p-id="6215"></path><path d="M990.72 879.104c-0.512-2.56-0.512-6.144-1.024-10.24-2.048-27.648-6.656-84.992-37.888-137.728-17.408-29.696-43.008-54.272-73.216-71.68-28.672-16.384-61.952-27.136-100.352-32.256v-39.424c0-13.824-6.144-28.16-16.896-38.4-10.24-10.24-24.576-16.384-38.4-16.384-20.992 0-33.28 11.776-38.4 17.408l-1.024 1.024-114.176 124.928c-13.824 13.312-21.504 31.744-20.992 50.688 0 24.576 15.872 39.936 25.088 49.664l115.2 128 1.024 1.024c5.632 5.12 17.408 16.896 37.888 16.896 28.672 0 50.688-22.016 50.688-50.688v-48.64c48.64 5.12 85.504 31.744 117.76 82.944 10.24 18.432 24.576 27.648 43.008 27.648 24.064 0 50.688-20.992 50.688-50.688 1.536-2.048 1.024-3.072 1.024-4.096zM865.792 788.48c-34.304-19.968-73.728-29.184-118.272-26.624-15.872 1.024-28.672 13.824-28.672 30.208v55.296l-100.864-111.616-1.024-1.024c-2.048-2.56-6.656-6.656-7.68-8.192 0-2.56 1.024-4.608 2.56-6.144l2.048-2.048 104.96-114.688v51.2c0 15.872 12.288 29.184 28.672 30.208 132.096 8.192 168.96 83.456 179.2 158.208-18.432-23.552-38.912-41.472-60.928-54.784z" fill="#FFFFFF" p-id="6216"></path></svg>