<svg t="1648193595166" class="icon" viewBox="0 0 1024 1024" version="1.1" xmlns="http://www.w3.org/2000/svg" p-id="5693" width="200" height="200"><path d="M652.288 306.688H186.88c-15.872 0-28.672-12.8-28.672-28.672s12.8-28.672 28.672-28.672h465.408c15.872 0 28.672 12.8 28.672 28.672s-13.312 28.672-28.672 28.672zM597.504 482.304H183.808c-15.872 0-28.672-12.8-28.672-28.672s12.8-28.672 28.672-28.672h413.696c15.872 0 28.672 12.8 28.672 28.672s-13.312 28.672-28.672 28.672zM515.072 653.824H183.808c-15.872 0-28.672-12.8-28.672-28.672s12.8-28.672 28.672-28.672h331.776c15.872 0 28.672 12.8 28.672 28.672s-13.312 28.672-29.184 28.672z" fill="#FFFFFF" p-id="5694"></path><path d="M278.528 964.096h-1.024c-7.68-0.512-15.36-4.096-20.48-9.728l-80.896-93.696-90.624 93.184c-8.192 8.192-20.48 10.752-31.232 6.656-10.752-4.608-17.92-14.848-17.92-26.112l0.512-798.72c0-41.984 33.792-75.776 75.776-75.776h629.76c41.984 0 75.776 33.792 75.776 75.776v251.904c0 15.872-12.8 28.672-28.672 28.672s-28.672-12.8-28.672-28.672V135.68c0-10.24-8.704-18.944-18.944-18.944H112.64c-10.24 0-18.944 8.704-18.944 18.944l-0.512 728.576L157.184 798.72c5.632-5.632 13.312-8.704 20.992-8.704 8.192 0.512 15.36 3.584 20.48 9.728l81.408 94.208 94.208-94.208c5.12-5.12 12.8-8.192 19.968-8.192s14.848 3.072 19.968 8.192l116.224 116.224c11.264 11.264 11.264 29.184 0 40.448s-29.184 11.264-40.448 0L394.24 860.16l-95.744 96.256c-5.12 4.608-12.288 7.68-19.968 7.68z" fill="#FFFFFF" p-id="5695"></path><path d="M993.28 727.552c-3.072-4.608-7.68-8.704-13.824-9.728-4.608-1.024-9.728 0-13.824 2.56-14.336 9.216-75.776 27.136-123.392 38.912 0.512-2.048 0.512-3.072 0.512-5.12 1.024-16.384-8.704-30.72-26.624-36.352-20.48-6.656-57.856-27.136-88.064-43.008-16.896-9.216-31.232-16.896-39.936-20.992-28.16-12.288-56.32-6.656-57.344-6.656-1.536 0.512-3.072 1.024-4.608 2.048l-78.336 46.592c-7.168 4.096-9.216 13.312-5.12 20.48s13.312 9.216 20.48 5.12l75.776-45.568c5.632-0.512 22.016-2.048 37.376 4.608 7.68 3.584 22.016 11.264 38.4 20.48 31.232 16.896 70.144 37.376 92.672 45.568 6.656 2.048 6.656 5.12 6.144 6.656-0.512 5.632-7.168 14.336-22.016 16.896-7.68 0-42.496-10.24-70.144-20.48-7.68-2.56-15.872 1.024-18.944 8.704-2.56 7.68 1.024 15.872 8.704 18.944 28.16 10.24 64.512 21.504 80.896 21.504h2.56c29.696-2.56 134.656-28.672 175.616-47.104 0 2.048-0.512 5.632-2.048 9.216-17.408 41.984-129.536 96.768-169.472 105.984-31.232 7.168-75.264-8.704-110.08-21.504-14.848-5.632-29.184-10.24-40.96-13.824-42.496-10.24-91.136-0.512-93.184 0-7.68 1.536-12.8 9.216-11.264 17.408 1.536 7.68 9.216 12.8 17.408 11.264 0.512 0 44.544-9.216 80.384 0 10.24 2.56 23.552 7.168 37.888 12.288 31.232 11.264 69.12 25.088 102.912 25.088 8.192 0 15.872-0.512 23.552-2.56 39.424-9.216 166.4-65.536 189.952-122.88 7.168-16.896 6.656-31.232-2.048-44.544z" fill="#FFFFFF" p-id="5696"></path><path d="M880.128 641.536c-25.088 0-45.568 20.48-45.568 45.568s20.48 45.568 45.568 45.568 45.568-20.48 45.568-45.568c-0.512-25.088-20.992-45.568-45.568-45.568z m0 66.048c-11.264 0-20.48-9.216-20.48-20.48s9.216-20.48 20.48-20.48 20.48 9.216 20.48 20.48-9.216 20.48-20.48 20.48z m-112.64-30.208c27.136 0 49.152-22.016 49.152-49.152s-22.016-49.152-49.152-49.152-49.152 22.016-49.152 49.152 22.016 49.152 49.152 49.152z m0-74.24c13.824 0 24.576 11.264 24.576 24.576 0 13.824-11.264 24.576-24.576 24.576s-24.576-11.264-24.576-24.576c0-13.312 10.752-24.576 24.576-24.576z m103.936 6.656c31.744 0 57.344-25.6 57.344-57.344s-25.6-57.344-57.344-57.344-57.344 25.6-57.344 57.344 25.6 57.344 57.344 57.344z m0-90.624c17.92 0 32.768 14.848 32.768 32.768s-14.848 32.768-32.768 32.768-32.768-14.848-32.768-32.768 14.848-32.768 32.768-32.768z" fill="#FFFFFF" p-id="5697"></path></svg>