<svg t="1647941333774" class="icon" viewBox="0 0 1024 1024" version="1.1" xmlns="http://www.w3.org/2000/svg" p-id="6345" width="200" height="200"><path d="M862.208 994.304H156.672c-24.576 0-44.032-16.896-44.032-37.376V228.352c0-20.992 19.968-37.376 44.032-37.376h705.024c24.576 0 44.032 16.896 44.032 37.376v728.064c0.512 20.992-19.456 37.888-43.52 37.888zM201.216 919.04h616.96V266.24H201.216v652.8z" fill="#FFFFFF" p-id="6346"></path><path d="M402.944 726.528c-9.728 0-18.944-3.584-26.624-10.752-14.848-14.848-14.848-38.4 0-53.248l195.584-195.584c14.848-14.848 38.4-14.848 53.248 0s14.848 38.4 0 53.248l-195.584 195.584c-7.168 7.168-16.896 10.752-26.624 10.752z" fill="#FFFFFF" p-id="6347"></path><path d="M598.528 726.528c-9.728 0-18.944-3.584-26.624-10.752l-195.584-195.584c-14.848-14.848-14.848-38.4 0-53.248s38.4-14.848 53.248 0l195.584 195.584c14.848 14.848 14.848 38.4 0 53.248-7.168 7.168-16.896 10.752-26.624 10.752zM500.736 256.512c-59.392 0-108.032-48.128-108.032-108.032S441.344 40.96 500.736 40.96s108.032 48.128 108.032 108.032-48.128 107.52-108.032 107.52z m0-140.288c-17.92 0-32.768 14.848-32.768 32.768s14.848 32.768 32.768 32.768 32.768-14.848 32.768-32.768c0-18.432-14.336-32.768-32.768-32.768z" fill="#FFFFFF" p-id="6348"></path></svg>