<svg t="1647941987625" class="icon" viewBox="0 0 1024 1024" version="1.1" xmlns="http://www.w3.org/2000/svg" p-id="8192" width="200" height="200"><path d="M850.944 755.2h-187.904c-53.76 0-97.28 43.52-97.28 97.28s43.52 97.28 97.28 97.28h187.904c53.76 0 97.28-43.52 97.28-97.28s-44.032-97.28-97.28-97.28z m-121.344 140.288h-66.56c-23.552 0-43.008-19.456-43.008-43.008s19.456-43.008 43.008-43.008h66.56v86.016z m121.344 0h-66.56v-86.016h66.56c23.552 0 43.008 19.456 43.008 43.008s-19.456 43.008-43.008 43.008zM690.176 742.4l171.008-77.824c49.152-22.016 70.656-79.872 48.128-129.024-22.016-49.152-79.872-70.656-129.024-48.128L609.28 565.248c-49.152 22.016-70.656 79.872-48.128 129.024 22.016 48.64 80.384 70.656 129.024 48.128z m113.152-205.312c21.504-9.728 47.104 0 56.832 21.504 9.728 21.504 0 47.104-21.504 56.832l-60.928 27.648-35.84-78.336 61.44-27.648z m-171.008 77.824l60.928-27.648 35.84 78.336-60.928 27.648c-21.504 9.728-47.104 0-56.832-21.504-10.24-21.504-1.024-47.104 20.992-56.832z" fill="#FFFFFF" p-id="8193"></path><path d="M235.52 366.592l279.04-213.504 347.648 269.824 38.912 30.208c3.584 2.56 8.704 2.048 11.264-1.536l34.304-44.544c2.56-3.584 2.048-8.704-1.536-11.264l-411.136-318.464c-11.264-8.704-27.648-9.216-38.912 0L78.848 395.776c-3.584 2.56-4.096 7.68-1.536 11.264l33.792 44.544c2.56 3.584 7.68 4.096 11.264 1.536l44.032-33.28h0.512v525.824c0 4.608 3.584 8.192 8.192 8.192h52.736c4.608 0 8.192-3.584 8.192-8.192L235.52 366.592z" fill="#FFFFFF" p-id="8194"></path><path d="M263.68 750.08c-4.608 0-8.192 3.584-7.68 8.192v48.128c0 4.608 3.584 8.192 8.192 8.192h161.28v57.856c0 6.656 7.68 10.24 12.8 6.656l108.544-89.6c4.096-3.072 4.096-9.728 0-12.8L438.784 686.08c-5.12-4.096-12.8-0.512-12.8 6.144v57.856H263.68z" fill="#FFFFFF" p-id="8195"></path></svg>