<svg t="1647940484243" class="icon" viewBox="0 0 1024 1024" version="1.1" xmlns="http://www.w3.org/2000/svg" p-id="5163" width="200" height="200"><path d="M598.528 917.504H204.8V357.888l299.008-228.864 298.496 231.424v225.792c0 4.608 4.096 8.704 8.704 8.704h56.832c4.608 0 8.704-4.096 8.704-8.704V417.792l41.472 32.256c3.584 3.072 9.216 2.048 11.776-1.536l36.864-47.616c3.072-3.584 2.048-9.216-1.536-11.776l-440.32-340.992c-12.288-9.728-29.184-9.728-41.984 0L36.864 389.12c-3.584 3.072-4.608 8.192-1.536 11.776l36.352 47.616c3.072 3.584 8.192 4.608 11.776 1.536l47.104-35.84v537.088c0 18.944 15.36 34.304 34.304 34.304h433.152c4.608 0 8.704-4.096 8.704-8.704v-51.2c0-4.608-3.584-8.192-8.192-8.192z" fill="#FFFFFF" p-id="5164"></path><path d="M984.576 881.664h-51.2c-4.608 0-8.192-3.584-8.704-8.192-4.096-107.008-92.672-193.024-201.216-193.024s-196.608 86.016-201.216 193.024c0 4.608-4.096 8.192-8.704 8.192h-51.2c-4.608 0-8.704-4.096-8.704-8.704 2.048-68.608 30.208-133.12 78.848-181.76 51.2-51.2 118.784-78.848 190.976-78.848 72.192 0 139.776 28.16 190.976 78.848 49.152 49.152 76.8 113.152 78.848 181.76 0 4.608-4.096 8.704-8.704 8.704z" fill="#FFFFFF" p-id="5165"></path><path d="M749.568 889.856l110.08-101.888-143.36 39.936c-6.656 0-13.312 2.048-18.944 5.12-18.944 10.752-25.6 35.328-14.336 54.272 10.752 18.944 35.328 25.6 54.272 14.336 4.608-3.072 8.704-7.168 12.288-11.776zM382.976 348.672l-131.584 190.464c-44.544 64-28.16 152.576 35.84 196.608 64 44.544 152.064 28.672 196.608-35.84l131.584-190.464c44.544-64 28.16-152.576-35.84-196.608-64.512-44.544-152.576-28.672-196.608 35.84z m-56.832 330.752c-32.768-23.04-41.472-68.608-18.432-101.376l47.616-69.12 119.808 82.944-47.616 69.12c-23.04 33.28-68.608 41.472-101.376 18.432z m232.448-208.896l-45.056 65.024L394.24 452.608l45.056-65.024c23.04-33.28 68.096-41.472 101.376-18.432 32.768 23.04 40.96 68.608 17.92 101.376z" fill="#FFFFFF" p-id="5166"></path></svg>