<svg t="1648193292054" class="icon" viewBox="0 0 1024 1024" version="1.1" xmlns="http://www.w3.org/2000/svg" p-id="5163" width="200" height="200"><path d="M235.52 366.592l279.04-213.504 347.648 269.824 38.912 30.208c3.584 2.56 8.704 2.048 11.264-1.536l34.304-44.544c2.56-3.584 2.048-8.704-1.536-11.264l-411.136-318.464c-11.264-8.704-27.648-9.216-38.912 0L78.848 395.776c-3.584 2.56-4.096 7.68-1.536 11.264l33.792 44.544c2.56 3.584 7.68 4.096 11.264 1.536l44.032-33.28h0.512v525.824c0 4.608 3.584 8.192 8.192 8.192h52.736c4.608 0 8.192-3.584 8.192-8.192L235.52 366.592z" fill="#FFFFFF" p-id="5164"></path><path d="M879.104 742.4c-3.584-5.632-9.728-10.752-17.408-12.288-5.632-1.024-12.288 0-17.408 3.072-17.92 11.264-94.208 33.792-153.6 48.64 0.512-2.56 0.512-3.584 0.512-6.144 1.024-20.48-10.752-38.4-33.28-45.056-25.6-8.192-72.192-33.792-109.568-53.76-20.992-11.264-38.912-20.992-49.664-26.112-34.816-15.36-70.144-8.192-71.168-8.192-2.048 0.512-3.584 1.024-5.632 2.56l-97.28 57.856c-8.704 5.12-11.264 16.384-6.144 25.6s16.384 11.264 25.6 6.144l94.208-56.832c7.168-0.512 27.648-2.56 46.592 5.632 9.728 4.608 27.648 13.824 47.616 25.6 38.912 20.992 87.04 46.592 115.2 56.832 8.192 2.56 8.192 6.144 7.68 8.192-0.512 7.168-8.704 17.92-27.648 20.992-9.728 0-52.736-12.8-87.04-25.6-9.728-3.072-19.968 1.024-23.552 10.752-3.072 9.728 1.024 19.968 10.752 23.552 34.816 12.8 80.384 26.624 100.864 26.624h3.072c36.864-3.072 167.424-35.84 218.624-58.368 0 2.56-0.512 7.168-2.56 11.264-21.504 52.224-161.28 120.32-210.944 132.096-38.912 8.704-93.696-10.752-137.216-26.624-18.432-7.168-36.352-12.8-51.2-17.408-52.736-12.8-113.152-0.512-115.712 0-9.728 2.048-15.872 11.264-13.824 21.504 2.048 9.728 11.264 15.872 21.504 13.824 0.512 0 55.296-11.264 99.84 0 12.8 3.072 29.184 8.704 47.104 15.36 38.912 13.824 86.016 31.232 128 31.232 10.24 0 19.968-0.512 29.184-3.072 49.152-11.264 206.848-81.408 236.544-153.088 9.216-20.48 8.704-38.4-2.048-54.784z" fill="#FFFFFF" p-id="5165"></path><path d="M738.304 635.392c-31.232 0-56.832 25.6-56.832 56.832s25.6 56.832 56.832 56.832 56.832-25.6 56.832-56.832c-0.512-31.232-26.112-56.832-56.832-56.832z m0 81.92c-13.824 0-25.6-11.264-25.6-25.6 0-13.824 11.264-25.6 25.6-25.6s25.6 11.264 25.6 25.6-11.776 25.6-25.6 25.6z m-140.288-37.376c33.792 0 60.928-27.648 60.928-60.928s-27.648-60.928-60.928-60.928c-33.792 0-60.928 27.648-60.928 60.928s27.136 60.928 60.928 60.928z m0-92.16c17.408 0 30.72 13.824 30.72 30.72 0 17.408-13.824 30.72-30.72 30.72s-30.72-13.824-30.72-30.72c0.512-16.896 13.824-30.72 30.72-30.72z m129.536 8.192c39.424 0 71.168-31.744 71.168-71.168s-31.744-71.168-71.168-71.168-71.168 31.744-71.168 71.168 31.744 71.168 71.168 71.168z m0-113.152c22.528 0 40.96 18.432 40.96 40.96s-18.432 40.96-40.96 40.96-40.96-18.432-40.96-40.96c0-22.016 18.432-40.96 40.96-40.96z" fill="#FFFFFF" p-id="5166"></path></svg>