<?xml version="1.0" standalone="no"?><!DOCTYPE svg PUBLIC "-//W3C//DTD SVG 1.1//EN" "http://www.w3.org/Graphics/SVG/1.1/DTD/svg11.dtd"><svg t="1650707148020" class="icon" viewBox="0 0 1024 1024" version="1.1" xmlns="http://www.w3.org/2000/svg" p-id="5716" xmlns:xlink="http://www.w3.org/1999/xlink" width="200" height="200"><defs><style type="text/css">@font-face { font-family: feedback-iconfont; src: url("//at.alicdn.com/t/font_1031158_u69w8yhxdu.woff2?t=1630033759944") format("woff2"), url("//at.alicdn.com/t/font_1031158_u69w8yhxdu.woff?t=1630033759944") format("woff"), url("//at.alicdn.com/t/font_1031158_u69w8yhxdu.ttf?t=1630033759944") format("truetype"); }
</style></defs><path d="M141.824 115.2h633.344v303.104H834.56V109.568c0-29.696-24.064-53.76-53.76-53.76h-645.12c-29.696 0-53.76 24.064-53.76 53.76v752.64c0 29.696 24.064 53.76 53.76 53.76h295.936v-59.904H141.824V115.2z" fill="#FFFFFF" p-id="5717"></path><path d="M350.208 271.36h307.2v59.904h-307.2V271.36z m0 187.904h161.28v59.904H350.208V459.264z m0 188.928h80.896v59.904H350.208v-59.904zM245.76 300.544c0 17.408 13.824 31.232 31.232 31.232 17.408 0 31.232-13.824 31.232-31.232 0-17.408-13.824-31.232-31.232-31.232S245.76 283.648 245.76 300.544zM245.76 488.96c0 17.408 13.824 31.232 31.232 31.232 17.408 0 31.232-13.824 31.232-31.232 0-17.408-13.824-31.232-31.232-31.232-17.408 0-31.232 13.824-31.232 31.232zM245.76 677.888c0 17.408 13.824 31.232 31.232 31.232 17.408 0 31.232-13.824 31.232-31.232 0-17.408-13.824-31.232-31.232-31.232-17.408 0.512-31.232 14.336-31.232 31.232zM957.44 663.552c-2.56-10.752-12.288-18.944-23.04-18.944-28.672 0-51.2-23.552-51.2-51.712 0-8.704 2.56-17.92 6.656-25.6 5.632-9.728 3.584-22.016-4.608-29.696-26.112-24.064-56.832-41.984-90.624-52.736-10.752-3.584-22.016 1.024-27.648 10.752-14.336 24.576-46.08 32.768-70.656 18.432-7.68-4.608-14.336-10.752-18.432-18.944-5.632-9.728-16.896-14.336-27.648-10.752-33.792 10.752-65.024 28.672-91.136 52.224-8.192 7.68-10.24 19.968-4.608 29.696 14.336 24.576 5.632 56.32-19.456 70.144-7.68 4.608-16.384 6.656-25.6 6.656-11.264 0-20.992 7.68-23.04 18.432-7.68 34.816-7.68 70.144 0 104.96 2.56 10.752 12.288 18.944 23.04 18.944 28.672 0 51.2 23.552 51.2 51.712 0 8.704-2.56 17.92-6.656 25.6-5.632 9.728-3.584 22.016 4.608 29.696 26.112 24.064 56.832 41.984 90.624 52.736 10.752 3.584 22.016-1.024 27.648-10.752 14.336-24.576 46.08-32.768 70.656-18.432 7.68 4.608 14.336 10.752 18.432 18.944 5.632 9.728 16.896 14.336 27.648 10.752 33.792-10.752 65.024-28.672 91.136-52.224 8.192-7.68 10.24-19.968 4.608-29.696-14.336-24.576-5.632-56.32 19.456-70.144 7.68-4.608 16.384-6.656 25.6-6.656 11.264 0 20.992-7.68 23.04-18.432 7.168-34.304 7.168-70.144 0-104.96z m-44.032 78.336c-53.76 11.264-88.064 64-76.8 117.76 0.512 3.584 1.536 6.656 2.56 10.24-13.824 10.24-28.672 18.944-44.544 25.6-36.352-40.96-99.328-44.544-140.288-7.68l-7.68 7.68c-15.872-6.656-30.72-15.36-44.032-25.6 16.896-52.224-11.264-108.032-63.488-125.44-3.584-1.024-6.656-2.048-10.24-2.56-2.048-16.896-2.048-34.304 0-51.2 53.76-11.264 88.064-64 76.8-117.76-0.512-3.584-1.536-6.656-2.56-10.24 13.824-10.24 28.672-18.944 44.544-25.6 36.352 40.96 99.328 44.544 140.288 7.68 2.56-2.56 5.12-4.608 7.68-7.68 15.872 6.656 30.72 15.36 44.032 25.6-16.896 52.224 11.264 108.032 63.488 125.44 3.584 1.024 6.656 2.048 10.24 2.56 2.048 16.896 2.048 33.792 0 51.2z" fill="#FFFFFF" p-id="5718"></path><path d="M722.432 628.736c-47.616 0-86.016 38.4-86.016 86.016s38.4 86.016 86.016 86.016 86.016-38.4 86.016-86.016c0-47.104-38.4-86.016-86.016-86.016z m0 124.416c-20.992 0-38.4-16.896-38.4-38.4s16.896-38.4 38.4-38.4c20.992 0 38.4 16.896 38.4 38.4s-16.896 38.4-38.4 38.4z" fill="#FFFFFF" p-id="5719"></path></svg>