<svg t="1646903380826" class="icon" viewBox="0 0 1024 1024" version="1.1" xmlns="http://www.w3.org/2000/svg" p-id="3011" width="200" height="200"><path d="M399.4112 527.872c8.8576 0 17.6128-1.1776 25.9584-3.2768 0.4608 0.6144 0.6656 1.3312 1.28 1.8944l37.8368 37.8368a14.6944 14.6944 0 1 0 20.7872-20.7872l-30.7712-30.7712c7.7312-4.5568 15.0528-10.0864 21.6576-16.6912 2.9696-2.9696 5.6832-6.144 8.3456-9.4208l31.6928 31.6928a14.6944 14.6944 0 1 0 20.7872-20.7872l-37.0176-37.0176a108.0832 108.0832 0 0 0 8.0384-41.0624c0-28.928-11.3152-56.1664-31.7952-76.6976-22.3744-22.3744-53.1968-33.792-84.9408-31.3856-5.7344 0.4608-10.6496 4.1472-12.6464 9.5744a14.6432 14.6432 0 0 0 3.4304 15.5136l19.3024 19.3024a46.1312 46.1312 0 0 1 13.568 32.768c0 12.3392-4.8128 23.9616-13.568 32.768-17.5104 17.4592-47.9744 17.4592-65.4336 0l-19.3024-19.3024c-4.0448-4.096-10.1376-5.376-15.5136-3.4304a14.65856 14.65856 0 0 0-9.5744 12.6464 108.38528 108.38528 0 0 0 31.3856 84.992c20.2752 20.3776 47.5136 31.6416 76.4928 31.6416z m-30.976-63.744c20.224 0 39.2192-7.8848 53.504-22.1696 14.2848-14.2848 22.1696-33.28 22.1696-53.504 0-14.7456-4.1984-28.8768-12.032-41.0112 8.5504 3.84 16.4352 9.3184 23.2448 16.128 14.8992 14.8992 23.1424 34.816 23.1424 55.9104s-8.2432 40.96-23.1424 55.9104c-14.8992 14.8992-34.816 23.1424-55.9104 23.1424s-40.96-8.2432-55.9104-23.1424a78.11072 78.11072 0 0 1-16.0256-23.1936c12.0832 7.7312 26.2144 11.9296 40.96 11.9296z m414.72 184.2688c-20.48-20.48-47.7184-31.7952-76.6464-31.7952-14.6432 0-28.8768 2.9184-42.0352 8.4992l-70.2976-70.2464 118.272-121.7536c13.3632-8.3968 26.624-21.248 29.7984-29.2352 3.328-8.2432 4.608-16.384 2.8672-18.0736l-6.2976-6.2976c-1.7408-1.6896-9.8816-0.4608-18.1248 2.8672-8.0384 3.2768-21.1968 16.8448-29.5936 30.4128l-201.0112 206.9504-49.5104-4.9664c-4.4544-0.4096-8.6016 1.0752-11.7248 4.1472-10.7008 10.5472-103.424 104.8064-107.264 108.6976-24.576 24.576-25.8048 54.0672-3.328 78.7968 11.008 12.1344 25.2416 18.7392 41.1648 19.0976h1.4336c18.4832 0 35.2256-8.448 43.9808-17.2032 36.9152-38.4 95.1808-98.1504 104.192-105.472 6.2976-5.12 7.2704-14.3872 2.1504-20.6848s-14.4384-7.2704-20.6848-2.1504c-13.2608 10.752-97.28 97.9456-106.6496 107.6736-3.584 3.584-13.312 8.96-23.7056 8.3968-7.8336-0.2048-14.4384-3.2768-20.0704-9.5232-7.936-8.704-14.848-20.992 2.4576-38.2976 0.8704-0.8704 79.872-81.3056 102.0928-103.6288l49.664 5.0176c4.5568 0.4608 8.8576-1.1776 12.032-4.4032l19.3536-19.8656 75.3152 75.3152c-1.792 7.8848-2.816 16.0256-2.816 24.3712 0 28.928 11.3152 56.1664 31.7952 76.6976 20.4288 20.48 47.6672 31.744 76.6464 31.744 2.7648 0 5.5296-0.1024 8.2944-0.3072 5.7344-0.4608 10.6496-4.1472 12.6464-9.5744a14.6432 14.6432 0 0 0-3.4304-15.5136l-19.3024-19.3024c-18.0224-18.0224-18.0224-47.4112 0-65.4336 17.5104-17.4592 47.9744-17.4592 65.4336 0l19.3024 19.3024c4.0448 4.0448 10.0864 5.376 15.5136 3.4304a14.65856 14.65856 0 0 0 9.5744-12.6464c2.304-31.744-9.1648-62.6688-31.488-85.0432z m-237.056-44.032l27.648-28.416 64.768 64.7168a106.33216 106.33216 0 0 0-25.7536 30.208l-66.6624-66.5088z m191.3856 76.032c-20.224 0-39.2192 7.8336-53.504 22.1696-25.6512 25.6512-28.9792 65.2288-10.0864 94.5664a79.5648 79.5648 0 0 1-23.296-16.128c-14.8992-14.8992-23.1424-34.816-23.1424-55.9104s8.2432-40.96 23.1424-55.9104c14.8992-14.8992 34.816-23.1424 55.9104-23.1424s40.96 8.2432 55.9104 23.1424c6.7584 6.7584 12.1856 14.6432 16.0256 23.1936a75.55072 75.55072 0 0 0-40.96-11.9808z" fill="#FFFFFF" p-id="3012"></path><path d="M972.4928 384.7168l-403.456-341.4528a80.71168 80.71168 0 0 0-104.6016 0l-403.456 341.4528a80.3584 80.3584 0 0 0-28.5696 61.44v448.512c0.1024 44.544 36.2496 80.5888 80.7936 80.5888h806.912c44.544 0 80.6912-36.0448 80.7936-80.5888v-448.512c0.1536-23.6544-10.3424-46.1824-28.416-61.44z m-37.12 61.4912v448.512c0 8.3456-6.7584 15.104-15.1552 15.104H113.3056c-8.3456 0-15.1552-6.7584-15.1552-15.104v-448.512c0-4.4544 1.9456-8.6528 5.376-11.52l403.456-341.4528c5.632-4.8128 13.9776-4.8128 19.6608 0l403.456 341.4528a15.2064 15.2064 0 0 1 5.2736 11.52z" fill="#FFFFFF" p-id="3013"></path></svg>