<svg t="1646903452795" class="icon" viewBox="0 0 1042 1024" version="1.1" xmlns="http://www.w3.org/2000/svg" p-id="3143" width="200" height="200"><path d="M918.6304 982.5792H119.8592c-44.0832 0-79.872-35.6864-79.9744-79.8208V458.8032c0-23.4496 10.3424-45.7216 28.2624-60.8256l399.4112-338.0224a79.86176 79.86176 0 0 1 103.5264 0l399.36 337.9712c17.92 15.1552 28.2624 37.376 28.2624 60.8768v443.9552c-0.2048 44.1344-35.9936 79.8208-80.0768 79.8208z m15.0016-523.776c0-4.4032-1.9456-8.5504-5.2736-11.4176l-399.4112-338.0224c-5.5808-4.7616-13.824-4.7616-19.4048 0l-399.36 338.0224c-3.3792 2.816-5.3248 7.0144-5.3248 11.4176v443.9552c0 8.2432 6.7072 14.9504 15.0016 14.9504h798.7712c8.2944 0 15.0016-6.7072 15.0016-14.9504V458.8032z m-282.7776 52.992h-263.168a14.6432 14.6432 0 0 1-14.6432-14.6432v-30.464a14.592 14.592 0 0 1 14.6432-14.592h263.168c8.0896 0 14.6432 6.5536 14.6432 14.592v30.464a14.6432 14.6432 0 0 1-14.6432 14.6432z" fill="#FFFFFF" p-id="3144"></path></svg>