<svg t="1648026892228" class="icon" viewBox="0 0 1024 1024" version="1.1" xmlns="http://www.w3.org/2000/svg" p-id="7127" width="200" height="200"><path d="M879.104 56.32H154.112c-49.664 0-90.624 40.96-90.624 90.624v724.992c0 49.664 40.96 90.624 90.624 90.624h724.992c49.664 0 90.624-40.96 90.624-90.624V146.944c0-49.664-40.96-90.624-90.624-90.624zM154.112 260.096c-13.824 0-22.528-9.216-22.528-22.528V146.944c0-13.824 9.216-22.528 22.528-22.528h724.992c13.824 0 22.528 9.216 22.528 22.528v90.624c0 13.824-9.216 22.528-22.528 22.528H154.112z m0 68.096h724.992c6.656 0 15.872-2.048 22.528-2.048v545.792c0 13.824-9.216 22.528-22.528 22.528H154.112c-13.824 0-22.528-9.216-22.528-22.528V326.144c6.656 0 15.872 2.048 22.528 2.048z" fill="#FFFFFF" p-id="7128"></path><path d="M516.608 158.208c-17.92 0-33.792 15.872-33.792 33.792s15.872 33.792 33.792 33.792 33.792-15.872 33.792-33.792-15.872-33.792-33.792-33.792z m0 301.568l158.72 120.32v192.512h-317.44v-195.072l158.72-117.76m0-74.752c-9.216 0-20.48 2.048-27.136 9.216l-181.248 135.68c-11.264 9.216-17.92 22.528-17.92 36.352v226.304c0 25.088 20.48 45.568 45.056 45.568h362.496c25.088 0 45.568-20.48 45.568-45.568v-226.304c0-13.824-6.656-27.136-17.92-36.352l-181.248-136.192c-7.168-6.656-18.432-8.704-27.648-8.704z" fill="#FFFFFF" p-id="7129"></path></svg>