<?xml version="1.0" standalone="no"?><!DOCTYPE svg PUBLIC "-//W3C//DTD SVG 1.1//EN" "http://www.w3.org/Graphics/SVG/1.1/DTD/svg11.dtd"><svg t="1650707102847" class="icon" viewBox="0 0 1024 1024" version="1.1" xmlns="http://www.w3.org/2000/svg" p-id="4934" xmlns:xlink="http://www.w3.org/1999/xlink" width="200" height="200"><defs><style type="text/css">@font-face { font-family: feedback-iconfont; src: url("//at.alicdn.com/t/font_1031158_u69w8yhxdu.woff2?t=1630033759944") format("woff2"), url("//at.alicdn.com/t/font_1031158_u69w8yhxdu.woff?t=1630033759944") format("woff"), url("//at.alicdn.com/t/font_1031158_u69w8yhxdu.ttf?t=1630033759944") format("truetype"); }
</style></defs><path d="M69.12 488.448V199.168c0-84.992 50.688-134.656 135.68-134.656h529.92c79.872 0 132.096 50.176 133.12 130.048 1.024 95.744 0 190.976 0.512 286.72 0 17.408-2.56 33.792-24.576 34.304-24.064 0-26.112-17.408-26.112-35.328V201.216c0-55.808-29.184-86.016-84.992-86.016-175.616-0.512-351.232-0.512-527.36 0-56.832 0-86.016 30.208-86.016 87.552v578.56c0 56.832 29.184 86.528 86.528 87.04 87.04 0.512 174.08 0.512 261.12 0 18.432 0 36.352 1.536 35.84 25.088-0.512 23.04-18.944 24.576-37.376 24.576-89.6 0-179.2 0.512-268.8 0-74.752-0.512-127.488-52.224-128-126.976 0-101.376 0.512-202.24 0.512-302.592z" fill="#FFFFFF" p-id="4935"></path><path d="M470.016 488.448H250.368c-16.896 0-32.256-1.536-32.768-22.528 0-20.48 14.848-23.552 31.744-23.552h439.296c17.408 0 34.816 2.56 34.304 24.576-0.512 20.48-16.896 22.016-33.28 22.016-73.216-1.024-146.432-0.512-219.648-0.512zM471.04 288.256c75.776 0 152.064 0.512 227.84-0.512 14.336 0 23.552 3.584 24.576 18.432 1.024 14.336-6.656 22.528-19.968 25.6-6.656 1.536-13.312 1.536-20.48 1.536-139.776 0-280.064 0.512-419.84 0-18.432 0-45.568 5.12-45.056-23.552 0-30.72 27.648-20.992 45.568-20.992 69.12-1.024 138.24-0.512 207.36-0.512zM373.248 599.552h127.488c14.848 0 28.672 2.56 28.672 20.992 0 17.408-10.752 26.112-27.648 26.112H244.224c-15.872 0-26.624-8.192-26.624-24.576 0.512-16.896 12.288-22.528 28.16-22.528 42.496 0.512 84.992 0 127.488 0zM933.888 854.528l-61.44-61.44c-22.016-22.528-54.272-40.96-34.304-75.264-0.512-92.16-80.896-154.624-162.816-132.608-26.624 7.168-31.744 23.552-12.288 44.544 10.24 11.264 20.992 22.528 32.768 32.256 16.896 13.824 14.848 24.576 0 39.424-14.336 14.336-24.576 15.36-37.376 0-9.728-11.776-21.504-22.016-32.256-32.768-21.504-20.48-38.4-15.872-45.568 12.8-23.04 90.112 53.76 174.08 148.48 159.744 17.408-2.56 26.624 2.048 37.376 12.8 27.136 28.16 55.296 55.808 82.944 83.456 29.696 29.184 51.2 29.184 80.896 0 31.744-31.232 32.768-53.248 3.584-82.944z m-25.088 58.368c-12.288 11.776-22.016 16.896-36.352 2.56-32.768-33.792-66.56-66.048-99.328-99.84-11.776-12.288-20.992-14.336-37.376-9.216-67.072 20.992-131.584-31.232-125.952-103.936 25.6 15.36 37.376 47.104 71.168 44.032 19.456-2.048 29.696-14.848 41.984-27.136 28.16-28.672 26.112-37.376-23.552-101.888 58.368-15.872 121.856 50.688 103.424 113.664-8.192 28.16 1.024 41.472 18.432 58.368 30.208 28.672 58.88 59.392 89.088 88.064 15.36 13.824 11.264 23.552-1.536 35.328z" fill="#FFFFFF" p-id="4936"></path></svg>