<svg t="1648023721491" class="icon" viewBox="0 0 1024 1024" version="1.1" xmlns="http://www.w3.org/2000/svg" p-id="5163" width="200" height="200"><path d="M732.16 316.416H284.16c-17.92 0-32.256-14.336-32.256-32.256s14.336-32.256 32.256-32.256H732.16c17.92 0 32.256 14.336 32.256 32.256-0.512 17.92-14.848 32.256-32.256 32.256z m-190.464 193.536h-256c-17.92 0-32.256-14.336-32.256-32.256s14.336-32.256 32.256-32.256h256c17.92 0 32.256 14.336 32.256 32.256s-14.848 32.256-32.256 32.256z m-130.56 190.464h-128c-17.92 0-32.256-14.336-32.256-32.256s14.336-32.256 32.256-32.256h128c17.92 0 32.256 14.336 32.256 32.256s-14.336 32.256-32.256 32.256z" fill="#FFFFFF" p-id="5164"></path><path d="M860.672 61.952H156.672c-35.328 0-64 28.672-64 64v768c0 35.328 28.672 64 64 64h189.44c17.92 0 32.256-14.336 32.256-32.256s-14.336-32.256-32.256-32.256h-189.44v-768h704v223.744c0 17.92 14.336 32.256 32.256 32.256 8.704 0 16.896-3.584 22.528-9.216 5.632-5.632 9.216-13.824 9.216-22.528V125.952c0-35.328-28.672-64-64-64zM442.368 916.48v19.456c1.024-3.072 1.536-6.144 1.536-9.728s-0.512-6.656-1.536-9.728z" fill="#FFFFFF" p-id="5165"></path><path d="M736.768 479.744L438.272 778.24l-10.24 154.112c-1.024 13.312 10.24 24.576 23.552 23.552l154.112-10.24 298.496-298.496c25.088-25.088 25.088-65.536 0-90.624l-76.288-76.288c-25.6-25.6-66.56-25.6-91.136-0.512z m-160.256 402.944l-81.92 5.632 5.632-81.92 281.6-281.6 76.288 76.288-281.6 281.6z" fill="#FFFFFF" p-id="5166"></path></svg>