<svg t="1648217270385" class="icon" viewBox="0 0 1024 1024" version="1.1" xmlns="http://www.w3.org/2000/svg" p-id="3951" width="200" height="200"><path d="M294.912 693.76c-19.968 0-35.84 16.384-35.84 36.352 0 19.968 16.384 35.84 36.352 35.84 19.968 0 35.84-16.384 35.84-36.352 0-19.968-15.872-35.84-35.84-36.352l-0.512 0.512z m0-428.544c-19.968 0-35.84 16.384-35.84 36.352s16.384 35.84 36.352 35.84c19.968 0 35.84-16.384 35.84-36.352-0.512-19.968-16.384-35.84-36.352-35.84z m0 213.504c-19.968 0-36.352 16.384-35.84 36.352 0 19.968 16.384 36.352 36.352 35.84 19.968 0 35.84-16.384 35.84-36.352 0.512-19.968-15.36-36.352-35.328-36.352-0.512 0.512-1.024 0.512-1.024 0.512zM833.024 50.176h-645.12c-78.848 0-142.848 64-143.36 142.848v642.56c0 78.848 64 142.848 142.848 142.336h645.12c78.848 0 142.848-63.488 142.848-142.336V192.512c-0.512-78.336-64-141.824-142.336-142.336z m71.168 786.432c0 39.424-32.256 71.168-71.68 71.168h-645.12c-39.424 0-71.68-31.744-71.68-71.168V193.536c0-39.424 32.256-71.168 71.68-71.168h645.12c39.424 0 71.68 31.744 71.68 71.168v643.072z m-179.2-571.392H437.76c-19.968 0-36.352 16.384-36.352 36.352 0 19.968 16.384 36.352 36.352 36.352h287.232c19.968 0 36.352-15.872 36.352-35.328V302.08c0-20.992-15.872-37.376-36.352-36.864z m0 214.016H437.76c-19.968-0.512-36.864 15.36-37.376 35.328-0.512 19.968 15.36 36.864 35.328 37.376h289.28c19.968 0.512 36.864-15.36 37.376-35.328 0.512-19.968-15.36-36.864-35.328-37.376h-2.048z m0 214.528H437.76c-19.968 0-36.352 16.384-36.352 36.352 0 19.968 16.384 36.352 36.352 36.352h287.232c19.968 0 36.352-16.384 36.352-36.352 0-19.968-16.384-36.352-36.352-36.352z" fill="#FFFFFF" p-id="3952"></path></svg>