<svg t="1648217297645" class="icon" viewBox="0 0 1024 1024" version="1.1" xmlns="http://www.w3.org/2000/svg" p-id="4081" width="200" height="200"><path d="M857.088 36.864H146.944c-32.768 0-59.392 26.624-59.392 59.392v828.416c0 32.768 26.624 59.392 59.392 59.392h710.144c32.768 0 59.392-26.624 59.392-59.392V95.744c0-32.768-26.624-58.88-59.392-58.88zM650.24 95.744h88.576v208.384l-66.56-26.624-22.016-8.704-22.016 8.704-66.56 26.624V95.744H650.24z m206.848 828.416H146.944V95.744H501.76V348.16c0 16.384 13.312 29.696 29.696 29.696 3.584 0 7.68-0.512 11.264-2.048l107.52-43.008 107.52 43.008c15.36 6.144 32.256-1.536 38.4-16.384 1.536-3.584 2.048-7.168 2.048-10.752V95.744h59.392v828.416zM265.728 569.344h236.544c16.384 0 29.696-13.312 29.696-29.696 0-16.384-13.312-29.696-29.696-29.696H265.728c-16.384 0-29.696 13.312-29.696 29.696 0 16.384 13.312 29.696 29.696 29.696z m473.088 118.272H265.728c-16.384 0-29.696 13.312-29.696 29.696s13.312 29.696 29.696 29.696h473.6c16.384 0 29.696-13.312 29.696-29.696s-13.824-29.696-30.208-29.696z" fill="#FFFFFF" p-id="4082"></path></svg>