<svg t="1646903902349" class="icon" viewBox="0 0 1024 1024" version="1.1" xmlns="http://www.w3.org/2000/svg" p-id="4727" width="200" height="200"><path d="M972.8 216.5248s-305.8688-141.0048-468.48-35.584c0 0-101.2736-102.9632-468.48 35.584v665.6h936.96v-665.6zM144.64 832.2048c272.8448-80.2304 326.912 0 326.912 0H144.64z m392.448 0s54.016-80.2304 326.912 0H537.088z m385.792-34.1504s-274.5856-99.7888-393.5744-21.76v-45.0048h-49.92v45.0048c-119.04-78.0288-393.5744 21.76-393.5744 21.76V250.5728c330.24-110.5408 393.5744-25.7024 393.5744-25.7024v47.104h49.92v-47.104s63.3856-84.8384 393.5744 25.7024v547.4816z" fill="#FFFFFF" p-id="4728"></path><path d="M508.5184 312.1152c-1.3312 0-2.7136 0-4.0448 0.0512 92.3136 35.5328 148.2752 149.248 100.3008 241.3568L487.7312 432.64l44.6976-46.08-27.9552-28.5696c-10.3936 10.4448-24.9344 15.4112-38.2976 15.4112-6.5024 0-12.7488-1.1776-18.1248-3.3792L359.0144 461.5168l50.3808 51.6096 33.5872-34.4064 117.0432 120.6784c-20.8384 11.776-44.7488 17.9712-69.4272 17.9712-43.008 0-88.576-18.6368-125.7984-58.3168l-28.3648 29.0304c8.4992 12.1344 15.6672 23.0912 24.4736 32.256-0.768 0.9728-3.2256 3.0208-3.2768 3.0208-1.536-0.256-3.2768-0.8704-4.8128-0.8704-15.104 0-27.2896 13.5168-27.2896 29.0304s12.288 28.16 27.392 28.16 28.0064-12.7488 28.0064-28.2624c0-1.8432-0.4096-3.4816-0.6656-5.1712l4.352-4.4032c35.328 24.4736 72.448 37.7344 111.2064 37.7344 35.1232 0 71.6288-10.8544 109.312-34.0992l32.8192 33.8432 44.8512-45.5168-32.9728-34.2528c93.5936-144.9984-28.6208-287.4368-141.312-287.4368z" fill="#FFFFFF" p-id="4729"></path></svg>