<?xml version="1.0" standalone="no"?><!DOCTYPE svg PUBLIC "-//W3C//DTD SVG 1.1//EN" "http://www.w3.org/Graphics/SVG/1.1/DTD/svg11.dtd"><svg t="1650707150745" class="icon" viewBox="0 0 1024 1024" version="1.1" xmlns="http://www.w3.org/2000/svg" p-id="5848" xmlns:xlink="http://www.w3.org/1999/xlink" width="200" height="200"><defs><style type="text/css">@font-face { font-family: feedback-iconfont; src: url("//at.alicdn.com/t/font_1031158_u69w8yhxdu.woff2?t=1630033759944") format("woff2"), url("//at.alicdn.com/t/font_1031158_u69w8yhxdu.woff?t=1630033759944") format("woff"), url("//at.alicdn.com/t/font_1031158_u69w8yhxdu.ttf?t=1630033759944") format("truetype"); }
</style></defs><path d="M505.856 568.832c-115.712 0-209.92-94.208-209.92-209.92s94.208-209.92 209.92-209.92 209.92 94.208 209.92 209.92-93.696 209.92-209.92 209.92z m0-370.688c-88.576 0-160.768 72.192-160.768 160.768s72.192 160.768 160.768 160.768 160.768-72.192 160.768-160.768-71.68-160.768-160.768-160.768z" fill="#FFFFFF" p-id="5849"></path><path d="M836.096 894.976c-13.824 0-24.576-10.752-24.576-24.576 0-161.792-131.584-293.376-293.376-293.376S224.256 708.608 224.256 870.4c0 13.824-10.752 24.576-24.576 24.576s-24.576-10.752-24.576-24.576c0-188.928 154.112-343.04 343.04-343.04s343.04 154.112 343.04 343.04c-0.512 13.824-11.264 24.576-25.088 24.576zM299.008 477.184c-96.256 0-174.592-77.824-174.592-174.08s77.824-174.08 174.08-174.08c40.96 0 80.384 14.336 111.104 39.936l-31.744 37.376c-20.992-17.92-50.176-28.16-79.36-28.16-69.12 0-124.928 55.808-124.928 124.928s56.32 124.928 125.44 124.928v49.152z" fill="#FFFFFF" p-id="5850"></path><path d="M50.176 741.888c-13.824 0-24.576-10.752-24.576-24.576 0-155.648 126.976-282.624 282.624-282.624 13.824 0 24.576 10.752 24.576 24.576s-10.752 24.576-24.576 24.576c-128.512 0-233.472 104.448-233.472 233.472 0 13.824-10.752 24.576-24.576 24.576zM725.504 484.352V435.2c69.12 0 124.928-55.808 124.928-124.928s-55.808-124.928-124.928-124.928c-29.696 0-57.344 9.728-79.36 28.16l-31.744-37.888c31.232-26.112 69.632-39.936 111.104-39.936 96.256 0 174.08 77.824 174.08 174.08s-77.824 174.592-174.08 174.592z" fill="#FFFFFF" p-id="5851"></path><path d="M973.824 741.888c-13.824 0-24.576-10.752-24.576-24.576 0-128.512-104.448-233.472-233.472-233.472-13.824 0-24.576-10.752-24.576-24.576s10.752-24.576 24.576-24.576c155.648 0 282.624 126.976 282.624 282.624 0 13.824-10.752 24.576-24.576 24.576z" fill="#FFFFFF" p-id="5852"></path></svg>