<svg t="1649143251080" class="icon" viewBox="0 0 1024 1024" version="1.1" xmlns="http://www.w3.org/2000/svg" p-id="5838" width="200" height="200"><path d="M946.176 199.68c-1.024-1.536-13.824-9.728-20.992-13.312-8.704-4.096-17.92-6.144-27.136-6.656-16.896 0-33.28 8.192-43.52 21.504l-35.84 50.688-244.736 381.952c-1.024 1.536-1.536 4.096-2.56 5.632l-1.024 1.024-48.64 130.56c-1.536 7.68 1.536 15.872 8.704 19.968 6.656 4.096 15.36 4.096 22.016 0l102.912-92.16c1.536-1.024 1.536-2.56 3.584-3.584l2.56-2.56 257.536-380.928c8.704-12.288 29.184-41.472 35.84-53.248 15.36-25.088-2.56-53.76-8.704-58.88zM283.648 330.24H619.52c19.968-0.512 36.352-16.896 35.84-37.376v-0.512c0.512-19.968-15.36-36.864-35.328-37.376H283.648c-19.968 0.512-36.352 16.896-35.84 37.376v0.512c0 20.48 15.872 37.376 35.84 37.376z" fill="#FFFFFF" p-id="5839"></path><path d="M779.264 747.008v134.656H155.648V140.8h623.616v34.304h76.288V138.24c0-39.936-33.28-72.192-73.728-72.192H152.576c-40.96 0-73.728 32.256-73.728 72.192v746.496c0 39.936 33.28 72.192 73.728 72.192h629.248c40.96 0 73.728-32.256 73.728-72.192V747.52h-76.288v-0.512z" fill="#FFFFFF" p-id="5840"></path><path d="M542.208 455.168H283.136c-20.992 0-37.888 17.408-37.376 38.4v0.512c0 21.504 16.896 38.4 37.376 38.4h259.072c20.992 0 37.888-17.408 37.376-38.4v-0.512c1.024-20.992-15.872-37.888-37.376-38.4 0.512 0 0.512 0 0 0z m-259.072 278.528h117.248c20.992 0 37.888-17.408 37.376-38.4v-0.512c0.512-20.992-16.384-38.4-37.376-38.4H283.136c-20.992 0-37.888 17.408-37.376 38.4v0.512c0 21.504 16.384 38.4 37.376 38.4z" fill="#FFFFFF" p-id="5841"></path></svg>