<svg t="1648026186151" class="icon" viewBox="0 0 1024 1024" version="1.1" xmlns="http://www.w3.org/2000/svg" p-id="6473" width="200" height="200"><path d="M71.68 962.56c-15.872 0-28.672-12.8-29.184-28.672 3.584-181.76 122.88-340.992 296.448-395.264C259.072 494.08 209.408 409.6 208.896 317.952 211.456 175.616 328.192 61.44 471.04 62.976c142.848-2.56 260.608 110.592 263.168 253.44v1.536c-0.512 91.136-50.176 175.104-129.536 219.648 68.096 20.992 129.536 58.88 178.688 110.08 5.632 5.632 8.704 12.8 8.192 20.992-0.512 7.68-4.096 14.336-9.216 19.968-5.632 5.12-12.8 7.68-20.48 7.68-8.192 0-15.36-3.072-21.504-8.704-70.144-73.216-167.936-114.688-269.312-113.664-201.728-2.56-367.104 158.72-369.664 360.448 0 15.872-13.312 29.184-29.696 28.672 0.512-0.512 0.512-0.512 0-0.512zM471.04 122.368c-110.592-1.536-201.728 87.04-203.264 197.632 1.536 110.592 92.672 199.168 203.264 197.632 110.592 1.536 201.728-87.04 203.264-197.632-1.024-111.104-91.648-200.704-202.752-199.68H471.04v2.048z" fill="#FFFFFF" p-id="6474"></path><path d="M576.512 799.744c-14.336 2.048-27.648-8.192-29.696-22.528-2.048-14.336 8.192-27.648 22.528-29.696 2.56-0.512 4.608-0.512 7.168 0h306.688l-24.064-35.328 43.008-30.72 82.944 117.76-408.576 0.512z m-21.504 43.008h400.896c14.336 0 26.112 11.776 26.112 26.112s-11.776 26.112-26.112 26.112H640l19.456 37.888-49.664 23.552-54.784-113.664z" fill="#FFFFFF" p-id="6475"></path></svg>