<?xml version="1.0" standalone="no"?><!DOCTYPE svg PUBLIC "-//W3C//DTD SVG 1.1//EN" "http://www.w3.org/Graphics/SVG/1.1/DTD/svg11.dtd"><svg t="1651112460047" class="icon" viewBox="0 0 1024 1024" version="1.1" xmlns="http://www.w3.org/2000/svg" p-id="4953" xmlns:xlink="http://www.w3.org/1999/xlink" width="200" height="200"><defs><style type="text/css">@font-face { font-family: feedback-iconfont; src: url("//at.alicdn.com/t/font_1031158_u69w8yhxdu.woff2?t=1630033759944") format("woff2"), url("//at.alicdn.com/t/font_1031158_u69w8yhxdu.woff?t=1630033759944") format("woff"), url("//at.alicdn.com/t/font_1031158_u69w8yhxdu.ttf?t=1630033759944") format("truetype"); }
</style></defs><path d="M829.952 37.888H181.76c-51.2 0-92.672 41.472-92.672 92.672v752.128c0 51.2 41.472 92.672 92.672 92.16h648.192c51.2 0 92.672-41.472 92.672-92.672V130.56c-0.512-51.2-41.472-92.672-92.672-92.672z m21.504 844.288c0 11.776-9.728 21.504-21.504 21.504H181.76c-11.776 0-21.504-9.728-21.504-21.504V130.56c0-11.776 9.728-21.504 21.504-21.504h648.192c11.776 0 21.504 9.728 21.504 21.504v751.616z" fill="#FFFFFF" p-id="4954"></path><path d="M723.968 710.144H288.256c-19.456 0-35.328 15.872-35.328 35.328 0 19.456 15.872 35.328 35.328 35.328h435.712c19.456 0 35.328-15.872 35.328-35.328 0-19.456-15.872-35.328-35.328-35.328z m0-165.888H288.256c-19.456-1.024-35.84 14.336-36.864 33.792-1.024 19.456 14.336 35.84 33.792 36.864H723.968c19.456 1.024 35.84-14.336 36.864-33.792 1.024-19.456-14.336-35.84-33.792-36.864h-3.072zM560.64 228.352c-21.504 0-41.472 9.728-55.296 25.088-13.312-15.872-33.792-25.088-55.296-25.088-37.888 0-67.584 28.672-67.584 66.048 0 45.568 41.472 82.432 104.96 138.752l17.92 15.872 17.92-15.872c62.976-56.32 104.96-93.184 104.96-138.752 0-37.376-29.184-66.048-67.584-66.048z m-48.128 180.224l-2.048 2.048-4.608 4.096-4.608-4.096-2.048-2.048c-26.624-23.552-49.664-44.032-64.512-62.464-14.848-17.92-21.504-32.256-21.504-47.104 0-11.776 4.608-22.528 12.288-30.208 8.192-7.68 18.944-12.288 30.72-12.288 13.824 0 27.136 6.144 36.352 16.896l12.8 14.848 12.8-14.848c9.216-10.752 22.528-16.896 36.352-16.896 11.776 0 23.04 4.096 30.72 12.288s12.288 18.432 12.288 30.208c0 14.848-6.656 29.696-21.504 47.104-14.336 18.432-36.864 38.912-63.488 62.464z" fill="#FFFFFF" p-id="4955"></path></svg>