<svg t="1646903498859" class="icon" viewBox="0 0 1024 1024" version="1.1" xmlns="http://www.w3.org/2000/svg" p-id="3274" width="200" height="200"><path d="M890.4704 747.0592c-0.1024 72.1408-58.7264 130.56-130.8672 130.4064-72.1408-0.1024-130.56-58.7264-130.4064-130.8672 0-4.7104 0.256-9.3696 0.768-14.08H396.1856c7.9872 71.7312-43.7248 136.2944-115.4048 144.2816s-136.2944-43.7248-144.2816-115.4048c-1.0752-9.5744-1.0752-19.2512 0-28.8256h-58.88c-16.0256 0-29.0304-13.0048-29.0304-29.0304v-493.568C48.5888 161.8944 87.552 122.88 135.68 122.88h406.4256c48.0768 0 87.0912 39.0144 87.0912 87.0912v55.1424c16.64-5.4272 34.6112-5.1712 51.0976 0.7168l241.2032 86.1184c33.8432 12.0832 56.064 45.4144 56.064 82.4832v210.9952c0 47.616-36.4544 87.0912-82.6368 87.0912h-5.2736c0.5632 4.7616 0.8192 9.6256 0.8192 14.5408z m4.4544-72.6016c13.0048 0 24.576-12.4928 24.576-29.0304V434.432c0-13.056-7.424-24.1664-17.5104-27.8016L660.7872 320.512c-2.2528-0.8192-4.608-1.2288-7.0144-1.2288-13.0048 0-24.576 12.4928-24.576 29.0304v326.144h22.016a130.53952 130.53952 0 0 1 108.6464-58.0608c45.312 0 85.1968 23.04 108.6464 58.0608h26.4192zM266.2912 616.3968c45.312 0 85.1968 23.04 108.6464 58.0608h196.1984V209.9712c0-16.0256-13.0048-29.0304-29.0304-29.0304H135.68c-16.0256 0-29.0304 13.0048-29.0304 29.0304v464.4864h51.0464a130.51904 130.51904 0 0 1 108.5952-58.0608z m0 203.2128c40.0896 0 72.6016-32.512 72.6016-72.6016s-32.512-72.6016-72.6016-72.6016-72.6016 32.512-72.6016 72.6016c0.0512 40.0896 32.5632 72.6016 72.6016 72.6016z m493.5168 0c40.0896 0 72.6016-32.512 72.6016-72.6016s-32.512-72.6016-72.6016-72.6016-72.6016 32.512-72.6016 72.6016c0.0512 40.0896 32.5632 72.6016 72.6016 72.6016z" fill="#FFFFFF" p-id="3275"></path></svg>