<svg t="1648193692777" class="icon" viewBox="0 0 1024 1024" version="1.1" xmlns="http://www.w3.org/2000/svg" p-id="5826" width="200" height="200"><path d="M652.288 306.688H186.88c-15.872 0-28.672-12.8-28.672-28.672s12.8-28.672 28.672-28.672h465.408c15.872 0 28.672 12.8 28.672 28.672s-13.312 28.672-28.672 28.672zM597.504 482.304H183.808c-15.872 0-28.672-12.8-28.672-28.672s12.8-28.672 28.672-28.672h413.696c15.872 0 28.672 12.8 28.672 28.672s-13.312 28.672-28.672 28.672zM515.072 653.824H183.808c-15.872 0-28.672-12.8-28.672-28.672s12.8-28.672 28.672-28.672h331.776c15.872 0 28.672 12.8 28.672 28.672s-13.312 28.672-29.184 28.672z" fill="#FFFFFF" p-id="5827"></path><path d="M278.528 964.096h-1.024c-7.68-0.512-15.36-4.096-20.48-9.728l-80.896-93.696-90.624 93.184c-8.192 8.192-20.48 10.752-31.232 6.656-10.752-4.608-17.92-14.848-17.92-26.112l0.512-798.72c0-41.984 33.792-75.776 75.776-75.776h629.76c41.984 0 75.776 33.792 75.776 75.776v251.904c0 15.872-12.8 28.672-28.672 28.672s-28.672-12.8-28.672-28.672V135.68c0-10.24-8.704-18.944-18.944-18.944H112.64c-10.24 0-18.944 8.704-18.944 18.944l-0.512 728.576L157.184 798.72c5.632-5.632 13.312-8.704 20.992-8.704 8.192 0.512 15.36 3.584 20.48 9.728l81.408 94.208 94.208-94.208c5.12-5.12 12.8-8.192 19.968-8.192s14.848 3.072 19.968 8.192l116.224 116.224c11.264 11.264 11.264 29.184 0 40.448s-29.184 11.264-40.448 0L394.24 860.16l-95.744 96.256c-5.12 4.608-12.288 7.68-19.968 7.68z" fill="#FFFFFF" p-id="5828"></path><path d="M770.56 966.656c-91.136 0-173.568-54.784-208.896-139.264-23.552-56.32-23.552-120.32 0-176.64 22.528-54.784 66.048-98.304 120.832-120.832 28.16-11.776 57.856-18.432 88.576-18.432 30.208 0 60.416 6.144 88.576 18.432 54.784 22.528 98.304 66.048 120.832 120.832 23.552 56.32 23.552 120.832 0 176.64-36.352 84.48-118.272 139.264-209.92 139.264z m0-408.576c-48.128 0.512-93.184 18.944-127.488 53.76-34.304 34.304-52.224 79.36-52.224 128 0.512 98.816 81.408 179.2 180.736 179.2h1.024c48.128-0.512 93.184-18.944 127.488-53.76 33.792-34.304 52.224-79.36 52.224-128-0.512-63.488-34.816-123.392-90.112-155.136-27.136-15.872-58.88-24.064-90.112-24.064h-1.536z" fill="#FFFFFF" p-id="5829"></path><path d="M771.072 863.232c-12.8 0-23.04-10.24-23.04-23.04s10.24-23.04 23.04-23.04 23.04 10.24 23.04 23.04-10.24 23.04-23.04 23.04z m0-82.432c-12.8 0-23.04-10.24-23.04-23.04v-119.296c0-6.144 2.048-12.288 6.656-16.384 4.608-4.608 10.24-6.656 16.384-6.656s12.288 2.048 16.384 6.656c4.608 4.608 6.656 10.24 6.656 16.384V757.76c0 12.288-10.24 23.04-23.04 23.04z" fill="#FFFFFF" p-id="5830"></path></svg>