<svg t="1648193408604" class="icon" viewBox="0 0 1024 1024" version="1.1" xmlns="http://www.w3.org/2000/svg" p-id="5428" width="200" height="200"><path d="M707.072 975.36c-105.472 0-200.704-62.976-241.664-160.768-27.136-65.024-27.136-139.264 0-204.288 26.112-63.488 76.288-113.664 139.776-139.776 32.768-13.824 66.56-20.992 102.4-20.992 35.328 0 69.632 6.656 102.4 20.992 63.488 26.112 113.664 76.288 139.776 139.776 27.136 65.024 27.136 139.776 0 204.288-41.984 97.792-136.704 160.768-242.688 160.768z m0-472.064c-55.808 0.512-107.52 22.016-146.944 61.952-39.424 39.424-60.416 91.648-60.416 147.456 0.512 114.176 94.208 206.848 208.384 206.848h1.024c55.808-0.512 107.52-22.016 146.944-61.952 38.912-39.424 60.416-91.648 60.416-147.456-0.512-73.728-40.448-142.336-103.936-179.2-31.744-18.432-67.584-27.648-103.936-27.648h-1.536z" fill="#FFFFFF" p-id="5429"></path><path d="M707.584 856.064c-14.848 0-26.624-12.288-26.624-26.624 0-14.848 12.288-26.624 26.624-26.624 14.848 0 26.624 12.288 26.624 26.624 0 14.848-11.776 26.624-26.624 26.624z m0-95.744c-14.848 0-26.624-12.288-26.624-26.624v-137.728c0-7.168 2.56-14.336 7.68-18.944 5.12-5.12 11.776-7.68 18.944-7.68s14.336 2.56 18.944 7.68c5.12 5.12 7.68 11.776 7.68 18.944v137.728c0 14.848-11.776 26.624-26.624 26.624z" fill="#FFFFFF" p-id="5430"></path><path d="M802.816 109.568h-150.528v-26.112c0-14.848-12.288-26.624-26.624-26.624-14.848 0-26.624 12.288-26.624 26.624v26.112H349.184v-26.112c0-14.848-12.288-26.624-26.624-26.624s-26.624 12.288-26.624 26.624v26.112H144.384C92.672 109.568 51.2 151.552 51.2 202.24V808.96c0 51.712 41.984 93.184 93.184 93.184H394.24c14.848 0 26.624-12.288 26.624-26.624s-12.288-26.624-26.624-26.624l-250.368-0.512c-20.992 0-38.912-17.92-38.912-38.912V380.928h737.792v16.896c0 14.848 12.288 26.624 26.624 26.624 14.848 0 26.624-12.288 26.624-26.624V202.24c0-51.2-41.984-92.672-93.184-92.672zM105.472 327.168V202.24c0-20.992 17.92-38.912 38.912-38.912h151.04v38.912c0 14.848 12.288 26.624 26.624 26.624 14.336 0 26.624-12.288 26.624-26.624v-38.912H599.04v38.912c0 14.848 12.288 26.624 26.624 26.624s26.624-12.288 26.624-26.624v-38.912H803.84c20.992 0 38.912 17.92 38.912 38.912l-0.512 124.928H105.472z" fill="#FFFFFF" p-id="5431"></path><path d="M194.56 756.736c-13.824 0-24.576-11.264-24.576-24.576 0-13.824 11.264-24.576 24.576-24.576h79.36c13.824 0 24.576 11.264 24.576 24.576 0 13.824-11.264 24.576-24.576 24.576H194.56z m0-118.784c-13.824 0-24.576-11.264-24.576-24.576s11.264-24.576 24.576-24.576h79.36c13.824 0 24.576 11.264 24.576 24.576s-11.264 24.576-24.576 24.576H194.56z m0-118.272c-13.824 0-24.576-11.264-24.576-24.576s11.264-24.576 24.576-24.576h79.36c13.824 0 24.576 11.264 24.576 24.576s-11.264 24.576-24.576 24.576H194.56z" fill="#FFFFFF" p-id="5432"></path></svg>