<svg t="1646903859141" class="icon" viewBox="0 0 1024 1024" version="1.1" xmlns="http://www.w3.org/2000/svg" p-id="4463" width="200" height="200"><path d="M636.2112 143.8208a48.5376 48.5376 0 0 0-46.592-3.3792L278.2208 281.9072c-0.3072 0-0.6144-0.2048-0.9216-0.2048H138.0864c-41.216 0-74.7008 33.4848-74.7008 74.7008v200.192c0 40.3968 32.3072 73.216 72.3968 74.3936l50.7904 197.4784a78.81728 78.81728 0 0 0 76.3904 59.1872c24.576 0 47.3088-11.1104 62.3104-30.5152 15.0016-19.4048 20.224-44.1856 13.9776-67.9936l-37.9904-147.6096 272.9984 124.0064c7.8848 3.584 16.2816 5.376 24.6784 5.376 11.2128 0 22.4256-3.2256 32.2048-9.5232 17.1008-11.008 27.2896-29.696 27.2896-50.1248V184.7808c0.1536-16.5888-8.2432-31.8976-22.2208-40.96zM117.7088 556.5952v-200.192c0-11.2128 9.1136-20.2752 20.2752-20.2752h112.0256v240.896H137.984c-11.0592-0.1024-20.2752-9.216-20.2752-20.4288z m164.608 267.3152a24.6272 24.6272 0 0 1-19.4048 9.5232c-11.2128 0-20.992-7.5776-23.808-18.3808l-46.4896-180.6848h50.688l43.3152 168.4992c1.9968 7.3216 0.3584 15.0528-4.3008 21.0432z m321.8944-112.4864c0 2.4064-1.28 3.6864-2.4064 4.4032-1.5872 1.024-3.2256 1.1776-5.0176 0.4096L312.32 586.9056V326.0928l291.8912-132.608v517.9392z m172.0832-358.2464c-13.8752 5.5808-20.6848 21.4016-15.104 35.2768 9.216 22.9888 13.824 47.5136 13.824 72.8064 0 29.696-6.7072 59.1872-19.3024 85.1968-6.6048 13.5168-0.9216 29.696 12.5952 36.3008 3.7888 1.8944 7.8848 2.7136 11.8784 2.7136 10.0864 0 19.8144-5.5808 24.4224-15.3088 16.1792-33.28 24.7808-71.0144 24.7808-109.0048 0-32.3072-5.9904-63.5904-17.7152-92.9792-5.6832-13.7728-21.4528-20.5824-35.3792-15.0016z m145.7152-62.2592a27.1872 27.1872 0 0 0-36.3008-12.6976 27.1872 27.1872 0 0 0-12.6976 36.3008c21.6064 44.9024 33.024 95.6928 33.024 146.7904 0 51.4048-11.52 102.2976-33.1776 147.3024a27.20768 27.20768 0 0 0 12.5952 36.3008c3.7888 1.792 7.7824 2.7136 11.776 2.7136 10.0864 0 19.8144-5.6832 24.5248-15.4112 25.2928-52.2752 38.6048-111.4112 38.6048-170.9056 0.0512-59.2896-13.2608-118.2208-38.3488-170.3936z" fill="#FFFFFF" p-id="4464"></path></svg>