<svg t="1648023971401" class="icon" viewBox="0 0 1024 1024" version="1.1" xmlns="http://www.w3.org/2000/svg" p-id="5952" width="200" height="200"><path d="M835.584 69.632h-640c-61.44 0-111.616 49.664-111.616 110.592v496.64c0 60.416 50.176 110.08 111.616 110.08h217.6v110.08h-50.688c-14.848 0-27.648 12.8-27.648 27.648 0 15.36 12.288 27.648 27.648 27.648H696.32c14.848 0 27.648-12.8 27.648-27.648 0-15.36-12.288-27.648-27.648-27.648h-50.688v-110.08h189.952c61.44 0 111.616-49.664 111.616-110.592v-496.64c0-60.416-50.176-110.08-111.616-110.08z m-254.976 827.392H478.72v-110.08h101.888v110.08z m301.056-220.672c0 30.72-15.36 45.568-46.08 45.568h-640c-31.232 0-46.08-14.848-46.08-45.568v-45.568l732.16-9.728v55.296z m0-119.808h-732.16V189.952c0-30.72 25.088-55.296 55.808-55.296h621.056c31.232 0 55.808 24.576 55.808 55.296l-0.512 366.592z" fill="#FFFFFF" p-id="5953"></path><path d="M795.648 317.44l-168.96-102.912c-10.752-6.656-24.064-5.12-33.28 3.584l-180.224 168.96c-9.728 8.704-24.576 10.24-35.328 2.56l-109.568-76.8c-13.312-9.216-30.72-1.024-39.424 11.776-9.216 12.8-5.632 34.816 6.656 43.52L382.976 471.04c10.752 7.68 25.088 6.144 34.816-2.56l182.272-170.496c8.704-8.704 23.04-9.728 33.28-3.584l133.12 80.384c13.312 8.192 30.208-1.024 38.4-13.824 8.704-13.312 4.096-35.328-9.216-43.52z" fill="#FFFFFF" p-id="5954"></path></svg>