<svg t="1646903738688" class="icon" viewBox="0 0 1024 1024" version="1.1" xmlns="http://www.w3.org/2000/svg" p-id="3800" width="200" height="200"><path d="M910.2336 695.04c-14.9504 0-27.0336 12.1344-27.0336 27.0336v188.8256h-46.5408V350.976c0-14.9504-12.1344-27.0336-27.0336-27.0336-14.9504 0-27.0336 12.1344-27.0336 27.0336v557.2608h-162.304a68.13184 68.13184 0 0 0-42.752-22.1696 9.2672 9.2672 0 0 1-6.5024-9.216v-176.896h47.0528V574.464h24.3712v33.024a21.66272 21.66272 0 0 0 22.1696 20.5824c11.6224 0.0512 21.3504-8.96 22.1696-20.5824v-141.824c2.816-22.6304 0.4096-45.568-7.0144-67.072-5.7856-10.24-12.9024-19.712-21.0944-28.1088a172.3648 172.3648 0 0 0-36.8128-28.672 206.69952 206.69952 0 0 0-79.5136-28.672v-31.8976a104.87808 104.87808 0 0 0 54.1184-93.0304v-18.3808c-56.32 21.1456-118.4256 21.1456-174.7456 0v18.3808a104.3968 104.3968 0 0 0 44.9024 90.88v31.8976c-34.6624 3.84-67.6352 16.7424-95.744 37.3248a218.8032 218.8032 0 0 0-28.672 25.9584 152.9856 152.9856 0 0 0-18.3808 23.808 61.22496 61.22496 0 0 0-5.9392 34.0992v175.3088a22.23616 22.23616 0 0 0 22.1696 20.5824c11.7248 0.3072 21.6064-8.8064 22.1696-20.5824v-33.024h23.808v123.3408h47.0528v176.896c0.4096 4.2496-2.3552 8.1408-6.5024 9.216-16.4864 1.9456-31.6416 9.8304-42.752 22.1696h-162.304V350.976c0-14.9504-12.1344-27.0336-27.0336-27.0336-14.9504 0-27.0336 12.1344-27.0336 27.0336v557.2608h-41.6768v-188.8256c0-14.9504-12.1344-27.0336-27.0336-27.0336S71.68 704.4608 71.68 719.4112v216.4224c0 14.9504 12.1344 27.0336 27.0336 27.0336h811.52c14.9504 0 27.0336-12.1344 27.0336-27.0336v-216.4224c-1.3312-13.8752-13.056-24.4224-27.0336-24.3712z m-405.76-324.608c7.7824 0 14.08 6.2976 14.08 14.08 0 0 0 14.08-3.7888 29.2352h-21.0944c0-15.1552-3.7888-29.2352-3.7888-29.2352 0-7.7824 6.2976-14.08 14.08-14.08h0.512z m-21.6064 526.9504V699.904h42.752v199.6288c-0.256 3.7376 1.8944 7.2704 5.4272 8.6528H476.928c3.6864-1.2288 6.144-4.7616 5.9392-8.6528v-2.1504z" fill="#FFFFFF" p-id="3801"></path><path d="M504.4736 126.976c-54.1184 0-94.1568 10.2912-94.1568 22.7328s42.1888 22.7328 94.1568 22.7328 93.5936-10.2912 93.5936-22.7328-39.4752-22.7328-93.5936-22.7328z" fill="#FFFFFF" p-id="3802"></path><path d="M403.3024 132.4032c2.2528 3.0208 6.0416 4.5056 9.728 3.7888h4.352a239.01184 239.01184 0 0 1 87.0912-13.5168c30.208-1.536 60.3648 3.072 88.7296 13.5168 3.6352 0.512 7.2704-1.1776 9.216-4.352l25.9584-43.264c2.4064-4.1472 1.024-9.4208-3.072-11.8272-0.4096-0.256-0.8192-0.4096-1.2288-0.6144l-77.9264-30.3104H462.2848l-80.5888 30.8224a8.6528 8.6528 0 0 0-4.9152 11.2128c0.1536 0.4096 0.3584 0.8192 0.6144 1.2288l25.9072 43.3152z m92.5184-57.9072l8.6528-16.2304 8.1408 16.2304h18.3808l-13.5168 15.6672 3.2256 18.3808-16.2304-8.6528-16.7936 8.6528 3.2256-18.3808-13.0048-13.0048 17.92-2.6624z" fill="#FFFFFF" p-id="3803"></path></svg>