<svg t="1646903718550" class="icon" viewBox="0 0 1024 1024" version="1.1" xmlns="http://www.w3.org/2000/svg" p-id="3668" width="200" height="200"><path d="M904.8064 897.9456V183.8592c0-79.5136-23.6544-90.9312-100.8128-90.9312H231.424c-77.1584 0-100.8128 11.4176-100.8128 90.9312v714.0864H40.96v60.8256h952.32v-60.8256h-88.4736z m-58.9824 0H189.6448V183.8592c0-27.7504 2.304-30.1568 41.8304-30.1568h572.5184c41.8304 0 41.8304 0 41.8304 30.1568v714.0864z" fill="#FFFFFF" p-id="3669"></path><path d="M634.0608 518.1952V459.008c-0.0512-64.5632-52.3776-116.8896-116.9408-116.9408-64.5632 0.1024-116.8384 52.3776-116.9408 116.9408v59.1872c-34.7648 2.7136-61.5936 31.6928-61.6448 66.56v134.1952c0 37.0688 30.0544 67.072 67.072 67.072h222.9248c37.0688 0 67.072-30.0544 67.1232-67.072v-134.1952c-0.0512-34.816-26.88-63.7952-61.5936-66.56z m-41.984-0.512H442.1632V459.008c0-41.3184 33.6384-74.9568 74.9568-74.9568s74.9568 33.6384 74.9568 74.9568v58.6752z" fill="#FFFFFF" p-id="3670"></path></svg>