<svg t="1647940876472" class="icon" viewBox="0 0 1024 1024" version="1.1" xmlns="http://www.w3.org/2000/svg" p-id="5557" width="200" height="200"><path d="M860.672 333.312c-2.048-19.456-15.872-35.84-35.328-39.936l-130.56-30.208c-112.64-25.6-229.888-26.624-342.528-2.048l-148.992 32.768c-19.456 3.584-33.792 19.968-34.816 39.424C99.328 339.456 46.08 396.8 46.08 466.432V552.96c0 69.632 53.248 127.488 122.368 133.12 2.56 16.896 15.36 30.72 32.256 33.792l145.408 33.792c56.32 12.8 114.176 18.944 172.032 18.944 61.44 0 122.88-7.168 182.272-21.504l126.464-31.232c16.896-3.584 29.696-16.896 32.256-33.792 69.632-5.12 122.88-63.488 122.88-133.12V466.432c1.024-69.632-52.224-127.488-121.344-133.12zM111.104 552.96V466.432c0-33.28 23.552-61.44 56.32-67.072v220.672c-32.256-5.632-56.32-34.304-56.32-67.072z m574.464 134.656c-106.496 25.088-217.6 26.112-324.608 2.048L236.032 660.48V353.28l130.048-28.672c103.424-22.016 210.944-21.504 314.368 2.048l113.152 26.112v308.224l-108.032 26.624z m232.448-134.656c0 33.28-24.064 61.44-56.832 67.072V398.848c32.768 5.632 56.832 33.792 56.832 67.072v87.04z" fill="#FFFFFF" p-id="5558"></path><path d="M624.128 427.008c-70.656-20.48-145.408-20.48-216.064-0.512l-21.504-61.952c83.456-25.088 172.544-25.088 256-0.512l-18.432 62.976z" fill="#FFFFFF" p-id="5559"></path></svg>