<svg t="1647941734963" class="icon" viewBox="0 0 1024 1024" version="1.1" xmlns="http://www.w3.org/2000/svg" p-id="7532" width="200" height="200"><path d="M482.304 41.472L921.6 151.552l-9.216 199.68c-18.944-13.312-39.936-25.088-61.952-34.304l5.12-117.248-373.76-93.696-373.76 93.696 15.36 350.72c10.24 187.392 151.552 341.504 337.92 366.592l20.48 3.072 20.48-3.072c21.504-3.072 42.496-7.68 63.488-13.824l47.104 49.664c-32.256 12.8-66.56 21.504-101.888 26.112l-29.184 4.096-29.184-4.096c-216.064-29.696-380.416-208.384-391.68-425.984L43.008 151.04 482.304 41.472z" fill="#FFFFFF" p-id="7533"></path><path d="M983.04 797.184c-0.512-3.072-0.512-7.68-1.024-12.8-2.56-34.816-8.192-106.496-47.104-172.544-22.016-37.376-53.76-68.096-91.648-90.112-35.84-20.48-77.312-34.304-125.44-40.448v-49.152c0-17.408-7.68-35.328-20.992-48.128-13.312-13.312-30.72-20.48-48.128-20.48-26.624 0-41.472 14.848-48.128 22.016l-1.024 1.024-143.36 156.16c-17.408 16.384-27.136 39.936-26.624 64 0 30.72 19.456 50.176 31.232 62.464l144.384 160.256 1.536 1.536c7.168 6.656 21.504 20.992 47.104 20.992 36.352 0 64-27.648 64-64V727.04c60.928 6.656 107.008 39.936 147.456 103.936 12.8 23.04 30.72 34.816 53.76 34.816 30.208 0 64-26.112 64-64 0.512-1.536 0-3.072 0-4.608z m-156.672-113.664c-42.496-25.088-92.672-36.864-147.968-33.792-19.968 1.024-35.84 17.408-35.84 37.888v69.12l-125.952-140.288-1.536-1.536c-2.56-3.072-8.192-8.192-9.728-10.752 0-3.072 1.024-5.632 3.584-7.68l2.56-2.56 131.584-143.872v64.512c0 19.968 15.36 36.864 35.84 37.888 165.888 10.24 211.456 104.448 224.768 198.656-24.064-28.16-49.152-50.176-77.312-67.584z" fill="#FFFFFF" p-id="7534"></path></svg>