<svg t="1648193487000" class="icon" viewBox="0 0 1024 1024" version="1.1" xmlns="http://www.w3.org/2000/svg" p-id="5561" width="200" height="200"><path d="M492.032 51.712l438.272 109.568-9.216 199.168c-18.944-13.312-39.424-25.088-61.44-34.304l5.12-116.736-372.736-93.184-373.248 93.184 15.36 349.696c10.24 186.88 151.04 340.48 336.896 365.568l20.48 3.072 20.48-3.072c21.504-3.072 42.496-7.68 62.976-13.824l47.104 49.664c-32.256 12.288-66.56 21.504-101.888 26.112l-29.184 4.096-29.184-4.096c-215.552-29.696-378.88-207.872-390.656-424.448l-17.92-400.384 438.784-110.08z" fill="#FFFFFF" p-id="5562"></path><path d="M973.824 679.424c-4.096-6.656-10.752-11.264-18.432-12.8-6.656-1.536-13.312 0-18.944 3.584-19.456 12.288-102.4 36.864-167.936 52.736 0.512-2.56 1.024-4.608 1.024-7.168 1.536-22.528-11.776-41.472-35.84-49.664-27.648-9.216-78.848-36.352-119.808-58.368-23.04-12.288-42.496-23.04-54.784-28.672-37.888-16.896-76.8-9.216-78.336-9.216-2.048 0.512-4.608 1.536-6.144 2.56l-106.496 63.488c-9.728 5.632-12.288 17.92-7.168 27.648 5.632 9.728 17.92 12.288 27.648 7.168L491.52 609.28c7.68-1.024 30.208-3.072 50.688 6.656 10.752 5.12 30.208 15.36 52.224 27.648 42.496 23.04 95.232 51.2 125.44 61.44 9.216 3.072 9.216 7.168 8.704 9.216-0.512 7.68-10.24 19.456-30.208 23.04-10.752 0-57.344-13.824-95.232-27.648-10.752-3.584-21.504 1.536-25.6 11.776-3.584 10.752 1.536 21.504 11.776 25.6 38.4 13.824 87.552 29.696 109.568 29.696h3.584c39.936-3.584 182.784-38.912 238.592-64 0 3.072-0.512 7.68-2.56 12.288-23.552 56.832-175.616 131.072-230.4 143.872-42.496 9.728-102.4-11.776-149.504-29.184-19.968-7.68-39.424-13.824-55.808-18.432-57.344-13.824-123.904-0.512-126.464 0-10.752 2.048-17.408 12.288-15.36 23.552 2.048 10.752 12.288 17.408 23.552 15.36 0.512 0 60.416-12.288 109.056 0 13.824 3.584 32.256 10.24 51.712 16.896 42.496 15.36 93.696 34.304 140.288 34.304 11.264 0 21.504-1.024 32.256-3.584 53.76-12.288 225.792-89.088 258.56-167.424 9.728-23.04 8.704-43.008-2.56-60.928z" fill="#FFFFFF" p-id="5563"></path><path d="M819.2 562.688c-34.304 0-61.44 27.648-61.44 61.44s27.648 61.44 61.44 61.44 61.44-27.648 61.44-61.44-27.648-61.44-61.44-61.44z m0 89.6c-15.36 0-28.16-12.288-28.16-28.16s12.288-28.16 28.16-28.16 28.16 12.288 28.16 28.16-12.288 28.16-28.16 28.16z m-152.576-40.96c36.864 0 67.072-30.208 67.072-67.072s-30.208-67.072-67.072-67.072c-36.864 0-67.072 30.208-67.072 67.072s30.208 67.072 67.072 67.072z m0-100.864c18.432 0 33.792 14.848 33.792 33.792 0 18.432-14.848 33.792-33.792 33.792-18.432 0-33.792-14.848-33.792-33.792 0.512-18.944 15.36-33.792 33.792-33.792z m141.312 9.216c43.008 0 78.336-34.816 78.336-78.336s-34.816-78.336-78.336-78.336c-43.008 0-78.336 34.816-78.336 78.336s35.328 78.336 78.336 78.336z m0-123.392c24.576 0 44.544 19.968 44.544 44.544 0 24.576-19.968 44.544-44.544 44.544s-44.544-19.968-44.544-44.544 19.968-44.544 44.544-44.544z" fill="#FFFFFF" p-id="5564"></path></svg>