<svg t="1647940814598" class="icon" viewBox="0 0 1024 1024" version="1.1" xmlns="http://www.w3.org/2000/svg" p-id="5426" width="200" height="200"><path d="M482.816 44.032l439.296 110.08-9.216 199.68c-18.944-13.312-39.424-25.088-61.952-34.304l5.12-117.248-373.76-93.696-373.248 93.696 15.36 350.72c10.24 187.392 151.552 341.504 337.92 366.592l20.48 3.072 20.48-3.072c21.504-3.072 42.496-7.68 63.488-13.824l47.104 49.664c-32.256 12.8-66.56 21.504-101.888 26.112l-29.184 4.096-29.184-4.096c-216.064-29.696-379.904-208.384-391.68-425.984L44.032 153.6 482.816 44.032z" fill="#FFFFFF" p-id="5427"></path><path d="M430.08 803.84c0 37.888 33.792 64 64 64 23.552 0 41.472-11.776 53.76-34.816 40.448-64.512 87.04-97.28 147.456-103.936v60.928c0 36.352 27.648 64 64 64 25.6 0 40.448-14.336 47.104-20.992l1.536-1.536 143.872-160.256c12.288-12.288 31.232-31.744 31.232-62.464 0.512-24.064-9.216-47.104-26.624-64l-143.872-157.184-1.024-1.024c-6.656-6.656-21.504-22.016-48.128-22.016-17.408 0-35.328 7.68-48.128 20.48-12.8 13.312-20.992 31.232-20.992 48.128v49.152c-47.616 6.656-90.112 19.968-125.44 40.448-37.888 21.504-69.12 52.736-91.136 90.112-38.912 65.536-44.544 137.728-47.104 172.032-0.512 5.12-0.512 9.728-1.024 12.8 0.512 3.072 0.512 4.608 0.512 6.144z m80.896-49.664c12.8-93.696 58.88-188.416 224.256-198.144 19.968-1.024 35.84-17.408 35.84-37.888V453.632l131.584 143.36 2.56 2.56c2.048 2.048 3.584 5.12 3.584 7.68-1.536 2.56-7.168 8.192-9.728 10.752l-1.536 1.536-125.952 140.288v-69.12c0-19.968-15.36-36.864-35.84-37.888-55.296-3.072-105.472 8.704-147.968 33.792-28.672 16.384-53.76 38.4-76.8 67.584z" fill="#FFFFFF" p-id="5428"></path></svg>