<svg t="1646903946262" class="icon" viewBox="0 0 1024 1024" version="1.1" xmlns="http://www.w3.org/2000/svg" p-id="4992" width="200" height="200"><path d="M885.7088 736.2048h-99.6352v199.3216H237.9264v-199.3216h-149.504V379.648c0-58.4192 41.2672-91.904 99.6352-91.904h49.8176V88.4736h548.096v199.3216h49.8176c58.4192 0 99.6352 33.4848 99.6352 91.904v356.5568h-49.7152z m-597.9136 149.504h448.4608v-249.1392H287.7952v249.1392z m448.4096-747.4176H287.7952v149.504h448.4608c-0.0512 0-0.0512-149.504-0.0512-149.504z m146.3808 241.3568c0-29.184-17.5104-42.0352-46.6944-42.0352H237.9264l-43.6224-10.9056c-29.184 0-56.064 31.5392-56.064 60.7232v298.9568h99.6352V586.752l538.7264 4.6592 9.3696 94.976h99.6352l-3.0208-306.7392zM509.7472 437.248H265.1136c-15.0016 0-27.136-11.1616-27.136-24.9344s12.1344-24.9344 27.136-24.9344h244.6336c15.0016 0 27.136 11.1616 27.136 24.9344 0.0512 13.7728-12.1344 24.9344-27.136 24.9344z" fill="#FFFFFF" p-id="4993"></path></svg>