<svg t="1648195786297" class="icon" viewBox="0 0 1024 1024" version="1.1" xmlns="http://www.w3.org/2000/svg" p-id="5284" width="200" height="200"><path d="M775.68 983.04H173.056C100.352 983.04 40.96 923.648 40.96 850.944v-336.384c0-59.392 39.424-111.104 96.256-127.488V130.048c0-46.08 37.888-83.968 84.48-83.968h578.048c46.592 0 83.968 37.888 83.968 83.968v257.536C939.52 404.48 977.92 455.68 977.92 514.048v336.384c0 72.704-59.392 132.096-132.096 132.096h-70.144z m70.144-72.192c33.28 0 59.904-27.136 59.904-59.904v-336.384c0-30.208-22.528-55.808-52.736-59.392-1.536 0.512-3.584 0.512-5.12 0.512-2.56 0-5.12-0.512-7.68-1.024H181.248c-2.56 0.512-5.12 1.024-7.68 1.024-2.048 0-4.096 0-6.144-0.512-30.72 3.072-54.272 28.672-54.272 59.904v336.384c0 33.28 27.136 59.904 59.904 59.904h204.8v-156.672c0-19.968 16.384-35.84 35.84-35.84h361.472c19.968 0 35.84 16.384 35.84 35.84V911.36h34.816z m-106.496 0v-120.832H450.048v120.832h289.28z m72.192-528.384V130.048c0-6.656-5.632-12.288-12.288-12.288H221.184c-6.656 0-12.288 5.12-12.288 12.288v252.416h602.624zM221.184 598.528c-19.968 0-35.84-16.384-35.84-35.84 0-19.968 16.384-35.84 35.84-35.84h72.192c19.968 0 35.84 16.384 35.84 35.84 0 19.968-15.872 35.84-35.84 35.84H221.184z" fill="#FFFFFF" p-id="5285"></path></svg>