<svg t="1648029134658" class="icon" viewBox="0 0 1024 1024" version="1.1" xmlns="http://www.w3.org/2000/svg" p-id="10015" width="200" height="200"><path d="M950.784 710.144c-1.536-18.432-13.312-33.792-34.816-40.96-5.632-1.024-8.704-3.584-12.288-10.24-2.56-4.608-3.584-10.24-3.584-11.776 8.192-15.872 4.096-36.864-10.24-51.712-17.92-17.408-39.424-30.72-59.392-37.376-16.384-8.704-37.888-4.608-53.76 11.776-5.12 6.144-12.8 8.192-21.504 2.048l145.408-56.832c19.968-7.68 35.84-23.04 44.544-43.008 8.704-19.968 9.216-41.472 1.024-61.44-7.68-19.968-23.04-35.84-43.008-44.544-13.312-5.632-27.648-7.68-43.008-5.632-76.8-120.32-211.456-191.488-356.864-187.392-13.312-32.256-38.4-57.344-70.656-71.68-33.28-14.848-70.144-15.36-103.936-2.048-34.304 13.312-60.928 38.912-75.264 71.68-13.824 31.744-14.848 67.584-2.56 100.864-108.032 94.208-158.72 239.104-133.12 380.416-29.696 20.992-42.496 59.904-28.672 94.72 7.168 19.968 22.016 36.352 41.472 45.056 10.752 4.608 21.504 7.168 32.768 7.168 9.728 0 19.968-2.048 29.696-5.632l431.616-169.472c-0.512 6.144 0 12.288 1.536 18.432 1.536 7.168 1.024 12.8-2.048 18.944-2.048 4.096-6.656 7.168-14.848 9.216-1.024 0.512-4.608 1.536-5.632 2.048-11.776 6.144-20.48 16.896-25.088 32.256-3.072 14.848-4.096 26.624-4.096 39.424 0 12.288 1.024 24.576 3.072 34.304 1.536 18.432 13.824 33.28 34.816 40.448 5.632 1.024 9.216 3.584 12.288 9.728 3.072 4.608 3.584 10.752 3.584 11.776-6.144 12.288-5.12 27.136 2.048 40.448H114.688c-14.848 0-26.624 11.776-26.624 26.624 0 14.848 11.776 26.624 26.624 26.624h790.016c14.848 0 26.624-11.776 26.624-26.624 0-14.848-11.776-26.624-26.624-26.624h-5.632c5.632-10.24 7.168-23.04 3.584-34.304-2.56-9.216 0-14.848 2.048-18.944 2.048-4.096 6.656-7.168 12.288-8.704 2.048-0.512 6.144-2.048 8.192-3.072 11.776-6.144 19.968-16.384 25.088-32.256 3.072-14.848 4.096-26.624 4.096-39.424-0.512-12.8-1.536-25.6-3.584-34.304z m-777.728 33.792c-6.656 2.56-14.336 2.56-20.992-0.512-6.144-3.072-11.264-8.192-13.824-15.36-5.632-13.824 1.536-29.696 18.944-36.864 12.288-4.608 19.456-17.92 16.384-30.72-31.744-134.144 18.432-275.456 127.488-359.936 11.264-8.704 13.824-25.088 5.12-36.352-1.536-2.56-3.584-5.632-4.608-8.192-8.192-20.48-7.68-43.008 1.024-62.976 8.704-19.968 25.088-35.328 45.568-43.52 10.24-4.096 20.48-6.144 30.72-6.144 11.264 0 22.528 2.56 32.768 7.168 19.968 8.704 35.328 25.088 43.52 45.568 1.024 2.048 1.024 5.12 2.56 10.752 2.56 13.312 14.848 21.504 28.16 20.992 137.728-12.288 270.336 57.344 338.432 177.152 6.656 11.264 24.064 14.848 36.352 10.24 6.656-2.56 14.336-2.56 20.992 0.512 6.656 3.072 11.776 8.192 14.336 15.36 2.56 6.656 2.56 14.336-0.512 20.992-3.072 6.656-8.192 11.776-15.36 14.336 0.512-0.512-707.072 277.504-707.072 277.504z m677.888-116.224c0 0.512 0 0.512-0.512 1.024 0.512-0.512 0.512-1.024 0.512-1.024z m-41.472-19.968c-0.512 0-0.512 0-1.024-0.512 0.512 0 1.024 0.512 1.024 0.512z m-133.12 26.112c0 0.512 0 0.512 0 0 0 0.512 0 0 0 0z m1.024 226.816c0-0.512 0-0.512 0.512-1.024-0.512 0.512-0.512 1.024-0.512 1.024z m174.592-6.144c0.512-0.512 0.512 0 0 0z m46.08-86.016c-18.432 6.144-32.768 17.92-40.96 33.28-8.704 15.872-11.776 34.304-7.68 54.272-10.24 8.704-22.528 16.384-37.376 23.04-29.696-27.648-72.704-25.6-97.792 0-13.824-5.632-26.112-13.312-36.352-22.528 4.608-18.432 2.048-38.4-7.68-54.784-9.728-17.92-24.576-29.184-40.96-33.792-1.536-8.192-2.048-15.872-2.048-24.064 0-7.68 0.512-15.36 2.56-24.576 18.432-6.144 32.768-17.92 40.96-33.28 8.704-15.872 11.776-34.304 7.68-54.272 10.752-8.704 23.552-16.896 37.376-23.04 30.208 28.16 75.264 24.064 97.792 0 13.824 5.632 26.112 13.312 36.352 22.528-4.608 18.944-2.048 38.4 7.68 54.272 9.728 17.92 24.576 29.184 40.96 33.792 1.536 7.68 2.048 16.384 2.048 24.064 0 8.192-0.512 15.872-2.56 25.088z" fill="#FFFFFF" p-id="10016"></path><path d="M764.416 693.76c-27.648 0-50.176 22.528-50.176 50.176s22.528 50.176 50.176 50.176 50.176-22.528 50.176-50.176-22.528-50.176-50.176-50.176zM337.408 340.992C278.016 386.048 238.592 451.072 225.28 524.288c-2.56 14.336 7.168 28.16 21.504 30.72 1.536 0.512 3.072 0.512 4.608 0.512 12.8 0 24.064-9.216 26.112-22.016 10.752-59.904 43.008-113.152 91.648-150.016 11.776-8.704 14.336-25.6 5.12-37.376-8.704-11.264-25.6-13.824-36.864-5.12z" fill="#FFFFFF" p-id="10017"></path></svg>